Pragati-Regular.ufo
<glyph name="quotedbl" format="1">
  <advance width="169"/>
  <unicode hex="0022"/>
  <outline>
    <contour>
      <point x="69" y="314" type="line"/>
      <point x="57" y="237" type="line"/>
      <point x="34" y="237" type="line"/>
      <point x="22" y="314" type="line"/>
      <point x="22" y="399" type="line"/>
      <point x="69" y="399" type="line"/>
    </contour>
    <contour>
      <point x="147" y="314" type="line"/>
      <point x="134" y="237" type="line"/>
      <point x="111" y="237" type="line"/>
      <point x="99" y="314" type="line"/>
      <point x="99" y="399" type="line"/>
      <point x="147" y="399" type="line"/>
    </contour>
  </outline>
</glyph>
<glyph name="numbersign" format="1">
  <advance width="266"/>
  <unicode hex="0023"/>
  <outline>
    <contour>
      <point x="258" y="283" type="line"/>
      <point x="258" y="239" type="line"/>
      <point x="214" y="239" type="line"/>
      <point x="193" y="148" type="line"/>
      <point x="235" y="148" type="line"/>
      <point x="235" y="104" type="line"/>
      <point x="183" y="104" type="line"/>
      <point x="160" y="0" type="line"/>
      <point x="116" y="0" type="line"/>
      <point x="139" y="104" type="line"/>
      <point x="87" y="104" type="line"/>
      <point x="63" y="0" type="line"/>
      <point x="19" y="0" type="line"/>
      <point x="43" y="104" type="line"/>
      <point x="5" y="104" type="line"/>
      <point x="5" y="148" type="line"/>
      <point x="53" y="148" type="line"/>
      <point x="72" y="239" type="line"/>
      <point x="28" y="239" type="line"/>
      <point x="28" y="283" type="line"/>
      <point x="82" y="283" type="line"/>
      <point x="109" y="405" type="line"/>
      <point x="154" y="405" type="line"/>
      <point x="127" y="283" type="line"/>
      <point x="179" y="283" type="line"/>
      <point x="206" y="405" type="line"/>
      <point x="250" y="405" type="line"/>
      <point x="223" y="283" type="line"/>
    </contour>
    <contour>
      <point x="97" y="148" type="line"/>
      <point x="149" y="148" type="line"/>
      <point x="169" y="239" type="line"/>
      <point x="117" y="239" type="line"/>
    </contour>
  </outline>
</glyph>
<glyph name="percent" format="1">
  <advance width="424"/>
  <unicode hex="0025"/>
  <outline>
    <contour>
      <point x="101" y="407" type="curve" smooth="yes"/>
      <point x="148" y="407"/>
      <point x="175" y="382"/>
      <point x="175" y="301" type="curve" smooth="yes"/>
      <point x="175" y="220"/>
      <point x="148" y="196"/>
      <point x="101" y="196" type="curve" smooth="yes"/>
      <point x="54" y="196"/>
      <point x="26" y="221"/>
      <point x="26" y="301" type="curve" smooth="yes"/>
      <point x="26" y="382"/>
      <point x="54" y="407"/>
    </contour>
    <contour>
      <point x="113" y="0" type="line"/>
      <point x="72" y="0" type="line"/>
      <point x="316" y="399" type="line"/>
      <point x="358" y="399" type="line"/>
    </contour>
    <contour>
      <point x="101" y="372" type="curve" smooth="yes"/>
      <point x="72" y="372"/>
      <point x="67" y="345"/>
      <point x="67" y="306" type="curve" smooth="yes"/>
      <point x="67" y="297" type="line" smooth="yes"/>
      <point x="67" y="258"/>
      <point x="72" y="231"/>
      <point x="101" y="231" type="curve" smooth="yes"/>
      <point x="129" y="231"/>
      <point x="135" y="258"/>
      <point x="135" y="297" type="curve" smooth="yes"/>
      <point x="135" y="306" type="line" smooth="yes"/>
      <point x="135" y="345"/>
      <point x="129" y="372"/>
    </contour>
    <contour>
      <point x="329" y="204" type="curve" smooth="yes"/>
      <point x="376" y="204"/>
      <point x="404" y="179"/>
      <point x="404" y="98" type="curve" smooth="yes"/>
      <point x="404" y="17"/>
      <point x="376" y="-7"/>
      <point x="329" y="-7" type="curve" smooth="yes"/>
      <point x="283" y="-7"/>
      <point x="254" y="18"/>
      <point x="254" y="98" type="curve" smooth="yes"/>
      <point x="254" y="179"/>
      <point x="283" y="204"/>
    </contour>
    <contour>
      <point x="329" y="169" type="curve" smooth="yes"/>
      <point x="301" y="169"/>
      <point x="295" y="142"/>
      <point x="295" y="103" type="curve" smooth="yes"/>
      <point x="295" y="94" type="line" smooth="yes"/>
      <point x="295" y="55"/>
      <point x="301" y="28"/>
      <point x="329" y="28" type="curve" smooth="yes"/>
      <point x="357" y="28"/>
      <point x="364" y="55"/>
      <point x="364" y="94" type="curve" smooth="yes"/>
      <point x="364" y="103" type="line" smooth="yes"/>
      <point x="364" y="142"/>
      <point x="357" y="169"/>
    </contour>
  </outline>
</glyph>
<glyph name="comma" format="1">
  <advance width="133"/>
  <unicode hex="002C"/>
  <outline>
    <contour>
      <point x="68" y="-72" type="line"/>
      <point x="38" y="-72" type="line"/>
      <point x="61" y="0" type="line"/>
      <point x="38" y="0" type="line"/>
      <point x="38" y="63" type="line"/>
      <point x="96" y="63" type="line"/>
      <point x="96" y="5" type="line"/>
    </contour>
  </outline>
</glyph>
<glyph name="hyphen" format="1">
  <advance width="159"/>
  <unicode hex="002D"/>
  <outline>
    <contour>
      <point x="6" y="129" type="line"/>
      <point x="6" y="186" type="line"/>
      <point x="153" y="186" type="line"/>
      <point x="153" y="129" type="line"/>
    </contour>
  </outline>
</glyph>
<glyph name="one" format="1">
  <advance width="266"/>
  <unicode hex="0031"/>
  <outline>
    <contour>
      <point x="259" y="43" type="line"/>
      <point x="259" y="0" type="line"/>
      <point x="29" y="0" type="line"/>
      <point x="29" y="43" type="line"/>
      <point x="124" y="43" type="line"/>
      <point x="124" y="327" type="line"/>
      <point x="28" y="327" type="line"/>
      <point x="28" y="357" type="line"/>
      <point x="61" y="360"/>
      <point x="116" y="378"/>
      <point x="153" y="399" type="curve"/>
      <point x="172" y="399" type="line"/>
      <point x="172" y="43" type="line"/>
    </contour>
  </outline>
</glyph>
<glyph name="five" format="1">
  <advance width="266"/>
  <unicode hex="0035"/>
  <outline>
    <contour>
      <point x="89" y="351" type="line"/>
      <point x="82" y="229" type="line"/>
      <point x="94" y="242"/>
      <point x="118" y="260"/>
      <point x="152" y="260" type="curve" smooth="yes"/>
      <point x="204" y="260"/>
      <point x="246" y="218"/>
      <point x="246" y="130" type="curve" smooth="yes"/>
      <point x="246" y="43"/>
      <point x="204" y="-7"/>
      <point x="135" y="-7" type="curve" smooth="yes"/>
      <point x="68" y="-7"/>
      <point x="23" y="43"/>
      <point x="23" y="124" type="curve"/>
      <point x="72" y="124" type="line"/>
      <point x="72" y="69"/>
      <point x="100" y="35"/>
      <point x="135" y="35" type="curve" smooth="yes"/>
      <point x="171" y="35"/>
      <point x="197" y="66"/>
      <point x="197" y="130" type="curve" smooth="yes"/>
      <point x="197" y="186"/>
      <point x="173" y="217"/>
      <point x="139" y="217" type="curve" smooth="yes"/>
      <point x="113" y="217"/>
      <point x="92" y="198"/>
      <point x="80" y="171" type="curve"/>
      <point x="34" y="179" type="line"/>
      <point x="47" y="399" type="line"/>
      <point x="229" y="399" type="line"/>
      <point x="229" y="351" type="line"/>
    </contour>
  </outline>
</glyph>
<glyph name="seven" format="1">
  <advance width="266"/>
  <unicode hex="0037"/>
  <outline>
    <contour>
      <point x="246" y="369" type="line"/>
      <point x="192" y="286"/>
      <point x="123" y="159"/>
      <point x="123" y="30" type="curve" smooth="yes"/>
      <point x="123" y="0" type="line"/>
      <point x="69" y="0" type="line"/>
      <point x="69" y="138"/>
      <point x="134" y="268"/>
      <point x="186" y="351" type="curve"/>
      <point x="19" y="351" type="line"/>
      <point x="19" y="399" type="line"/>
      <point x="246" y="399" type="line"/>
    </contour>
  </outline>
</glyph>
<glyph name="nine" format="1">
  <advance width="266"/>
  <unicode hex="0039"/>
  <outline>
    <contour>
      <point x="128" y="407" type="curve" smooth="yes"/>
      <point x="199" y="407"/>
      <point x="243" y="359"/>
      <point x="243" y="212" type="curve" smooth="yes"/>
      <point x="243" y="45"/>
      <point x="202" y="-7"/>
      <point x="133" y="-7" type="curve" smooth="yes"/>
      <point x="63" y="-7"/>
      <point x="34" y="49"/>
      <point x="34" y="123" type="curve"/>
      <point x="82" y="123" type="line"/>
      <point x="82" y="68"/>
      <point x="100" y="36"/>
      <point x="135" y="36" type="curve" smooth="yes"/>
      <point x="182" y="36"/>
      <point x="192" y="94"/>
      <point x="193" y="186" type="curve"/>
      <point x="176" y="163"/>
      <point x="152" y="148"/>
      <point x="123" y="148" type="curve" smooth="yes"/>
      <point x="55" y="148"/>
      <point x="23" y="206"/>
      <point x="23" y="277" type="curve" smooth="yes"/>
      <point x="23" y="357"/>
      <point x="68" y="407"/>
    </contour>
    <contour>
      <point x="130" y="364" type="curve" smooth="yes"/>
      <point x="90" y="364"/>
      <point x="72" y="325"/>
      <point x="72" y="277" type="curve" smooth="yes"/>
      <point x="72" y="229"/>
      <point x="90" y="190"/>
      <point x="130" y="190" type="curve" smooth="yes"/>
      <point x="171" y="190"/>
      <point x="189" y="229"/>
      <point x="189" y="277" type="curve" smooth="yes"/>
      <point x="189" y="325"/>
      <point x="171" y="364"/>
    </contour>
  </outline>
</glyph>
<glyph name="question" format="1">
  <advance width="266"/>
  <unicode hex="003F"/>
  <outline>
    <contour>
      <point x="138" y="407" type="curve" smooth="yes"/>
      <point x="195" y="407"/>
      <point x="239" y="364"/>
      <point x="239" y="303" type="curve" smooth="yes"/>
      <point x="239" y="240"/>
      <point x="215" y="214"/>
      <point x="194" y="192" type="curve" smooth="yes"/>
      <point x="178" y="175"/>
      <point x="163" y="159"/>
      <point x="163" y="129" type="curve" smooth="yes"/>
      <point x="163" y="105" type="line"/>
      <point x="112" y="105" type="line"/>
      <point x="112" y="138" type="line" smooth="yes"/>
      <point x="112" y="177"/>
      <point x="130" y="197"/>
      <point x="149" y="218" type="curve" smooth="yes"/>
      <point x="167" y="238"/>
      <point x="185" y="259"/>
      <point x="185" y="297" type="curve" smooth="yes"/>
      <point x="185" y="313"/>
      <point x="180" y="362"/>
      <point x="133" y="362" type="curve" smooth="yes"/>
      <point x="84" y="362"/>
      <point x="78" y="310"/>
      <point x="78" y="283" type="curve" smooth="yes"/>
      <point x="78" y="268" type="line"/>
      <point x="27" y="268" type="line"/>
      <point x="27" y="268"/>
      <point x="25" y="281"/>
      <point x="25" y="288" type="curve" smooth="yes"/>
      <point x="25" y="353"/>
      <point x="63" y="407"/>
    </contour>
    <contour>
      <point x="108" y="0" type="line"/>
      <point x="108" y="63" type="line"/>
      <point x="166" y="63" type="line"/>
      <point x="166" y="0" type="line"/>
    </contour>
  </outline>
</glyph>
<glyph name="B" format="1">
  <advance width="319"/>
  <unicode hex="0042"/>
  <outline>
    <contour>
      <point x="189" y="399" type="line" smooth="yes"/>
      <point x="248" y="399"/>
      <point x="293" y="360"/>
      <point x="293" y="302" type="curve" smooth="yes"/>
      <point x="293" y="256"/>
      <point x="266" y="222"/>
      <point x="231" y="210" type="curve"/>
      <point x="231" y="208" type="line"/>
      <point x="271" y="195"/>
      <point x="302" y="158"/>
      <point x="302" y="106" type="curve" smooth="yes"/>
      <point x="302" y="39"/>
      <point x="250" y="0"/>
      <point x="189" y="0" type="curve" smooth="yes"/>
      <point x="38" y="0" type="line"/>
      <point x="38" y="399" type="line"/>
    </contour>
    <contour>
      <point x="89" y="228" type="line"/>
      <point x="174" y="228" type="line" smooth="yes"/>
      <point x="214" y="228"/>
      <point x="239" y="257"/>
      <point x="239" y="291" type="curve" smooth="yes"/>
      <point x="239" y="333"/>
      <point x="214" y="353"/>
      <point x="178" y="353" type="curve" smooth="yes"/>
      <point x="89" y="353" type="line"/>
    </contour>
    <contour>
      <point x="89" y="47" type="line"/>
      <point x="183" y="47" type="line" smooth="yes"/>
      <point x="220" y="47"/>
      <point x="248" y="70"/>
      <point x="248" y="113" type="curve" smooth="yes"/>
      <point x="248" y="149"/>
      <point x="221" y="181"/>
      <point x="179" y="181" type="curve" smooth="yes"/>
      <point x="89" y="181" type="line"/>
    </contour>
  </outline>
</glyph>
<glyph name="E" format="1">
  <advance width="319"/>
  <unicode hex="0045"/>
  <outline>
    <contour>
      <point x="159" y="0" type="move" name="Anchor-1"/>
    </contour>
    <contour>
      <point x="159" y="399" type="move" name="Anchor-0"/>
    </contour>
    <contour>
      <point x="41" y="399" type="line"/>
      <point x="287" y="399" type="line"/>
      <point x="287" y="353" type="line"/>
      <point x="92" y="353" type="line"/>
      <point x="92" y="228" type="line"/>
      <point x="262" y="228" type="line"/>
      <point x="262" y="181" type="line"/>
      <point x="92" y="181" type="line"/>
      <point x="92" y="47" type="line"/>
      <point x="291" y="47" type="line"/>
      <point x="291" y="0" type="line"/>
      <point x="41" y="0" type="line"/>
    </contour>
  </outline>
</glyph>
<glyph name="H" format="1">
  <advance width="345"/>
  <unicode hex="0048"/>
  <outline>
    <contour>
      <point x="0" y="0" type="move" name="Anchor-1"/>
    </contour>
    <contour>
      <point x="173" y="399" type="move" name="Anchor-0"/>
    </contour>
    <contour>
      <point x="304" y="0" type="line"/>
      <point x="253" y="0" type="line"/>
      <point x="253" y="181" type="line"/>
      <point x="92" y="181" type="line"/>
      <point x="92" y="0" type="line"/>
      <point x="41" y="0" type="line"/>
      <point x="41" y="399" type="line"/>
      <point x="92" y="399" type="line"/>
      <point x="92" y="228" type="line"/>
      <point x="253" y="228" type="line"/>
      <point x="253" y="399" type="line"/>
      <point x="304" y="399" type="line"/>
    </contour>
  </outline>
</glyph>
<glyph name="J" format="1">
  <advance width="239"/>
  <unicode hex="004A"/>
  <outline>
    <contour>
      <point x="0" y="0" type="move" name="Anchor-1"/>
    </contour>
    <contour>
      <point x="119" y="399" type="move" name="Anchor-0"/>
    </contour>
    <contour>
      <point x="201" y="95" type="line" smooth="yes"/>
      <point x="201" y="28"/>
      <point x="165" y="-7"/>
      <point x="104" y="-7" type="curve" smooth="yes"/>
      <point x="43" y="-7"/>
      <point x="7" y="28"/>
      <point x="7" y="95" type="curve" smooth="yes"/>
      <point x="7" y="121" type="line"/>
      <point x="59" y="121" type="line"/>
      <point x="59" y="92" type="line" smooth="yes"/>
      <point x="59" y="58"/>
      <point x="75" y="40"/>
      <point x="104" y="40" type="curve" smooth="yes"/>
      <point x="133" y="40"/>
      <point x="150" y="58"/>
      <point x="150" y="92" type="curve" smooth="yes"/>
      <point x="150" y="399" type="line"/>
      <point x="201" y="399" type="line"/>
    </contour>
  </outline>
</glyph>
<glyph name="M" format="1">
  <advance width="398"/>
  <unicode hex="004D"/>
  <outline>
    <contour>
      <point x="362" y="0" type="line"/>
      <point x="310" y="0" type="line"/>
      <point x="310" y="290" type="line" smooth="yes"/>
      <point x="310" y="304"/>
      <point x="314" y="352"/>
      <point x="314" y="352" type="curve"/>
      <point x="312" y="352" type="line"/>
      <point x="308" y="331"/>
      <point x="304" y="310"/>
      <point x="299" y="290" type="curve" smooth="yes"/>
      <point x="219" y="0" type="line"/>
      <point x="173" y="0" type="line"/>
      <point x="93" y="290" type="line" smooth="yes"/>
      <point x="90" y="304"/>
      <point x="87" y="318"/>
      <point x="85" y="332" type="curve" smooth="yes"/>
      <point x="83" y="339"/>
      <point x="82" y="345"/>
      <point x="81" y="352" type="curve"/>
      <point x="78" y="352" type="line"/>
      <point x="78" y="352"/>
      <point x="82" y="302"/>
      <point x="82" y="290" type="curve" smooth="yes"/>
      <point x="82" y="0" type="line"/>
      <point x="36" y="0" type="line"/>
      <point x="36" y="399" type="line"/>
      <point x="114" y="399" type="line"/>
      <point x="185" y="138" type="line" smooth="yes"/>
      <point x="192" y="108"/>
      <point x="198" y="47"/>
      <point x="198" y="47" type="curve"/>
      <point x="200" y="47" type="line"/>
      <point x="200" y="47"/>
      <point x="206" y="109"/>
      <point x="214" y="138" type="curve" smooth="yes"/>
      <point x="284" y="399" type="line"/>
      <point x="362" y="399" type="line"/>
    </contour>
  </outline>
</glyph>
<glyph name="R" format="1">
  <advance width="345"/>
  <unicode hex="0052"/>
  <outline>
    <contour>
      <point x="173" y="0" type="move" name="Anchor-1"/>
    </contour>
    <contour>
      <point x="173" y="399" type="move" name="Anchor-0"/>
    </contour>
    <contour>
      <point x="202" y="399" type="line" smooth="yes"/>
      <point x="280" y="399"/>
      <point x="321" y="355"/>
      <point x="321" y="289" type="curve" smooth="yes"/>
      <point x="321" y="239"/>
      <point x="295" y="201"/>
      <point x="250" y="186" type="curve"/>
      <point x="330" y="0" type="line"/>
      <point x="273" y="0" type="line"/>
      <point x="199" y="177" type="line"/>
      <point x="92" y="177" type="line"/>
      <point x="92" y="0" type="line"/>
      <point x="41" y="0" type="line"/>
      <point x="41" y="399" type="line"/>
    </contour>
    <contour>
      <point x="92" y="353" type="line"/>
      <point x="92" y="223" type="line"/>
      <point x="200" y="223" type="line" smooth="yes"/>
      <point x="241" y="223"/>
      <point x="268" y="249"/>
      <point x="268" y="289" type="curve" smooth="yes"/>
      <point x="268" y="329"/>
      <point x="244" y="353"/>
      <point x="200" y="353" type="curve" smooth="yes"/>
    </contour>
  </outline>
</glyph>
<glyph name="X" format="1">
  <advance width="319"/>
  <unicode hex="0058"/>
  <outline>
    <contour>
      <point x="316" y="0" type="line"/>
      <point x="256" y="0" type="line"/>
      <point x="157" y="163" type="line"/>
      <point x="57" y="0" type="line"/>
      <point x="3" y="0" type="line"/>
      <point x="130" y="208" type="line"/>
      <point x="14" y="399" type="line"/>
      <point x="74" y="399" type="line"/>
      <point x="161" y="257" type="line"/>
      <point x="248" y="399" type="line"/>
      <point x="304" y="399" type="line"/>
      <point x="188" y="212" type="line"/>
    </contour>
  </outline>
</glyph>
<glyph name="asciicircum" format="1">
  <advance width="224"/>
  <unicode hex="005E"/>
  <outline>
    <contour>
      <point x="171" y="171" type="line"/>
      <point x="113" y="355" type="line"/>
      <point x="55" y="171" type="line"/>
      <point x="3" y="171" type="line"/>
      <point x="82" y="399" type="line"/>
      <point x="144" y="399" type="line"/>
      <point x="223" y="171" type="line"/>
    </contour>
  </outline>
</glyph>
<glyph name="underscore" format="1">
  <advance width="266"/>
  <unicode hex="005F"/>
  <outline>
    <contour>
      <point x="0" y="-72" type="line"/>
      <point x="0" y="-42" type="line"/>
      <point x="265" y="-42" type="line"/>
      <point x="265" y="-72" type="line"/>
    </contour>
  </outline>
</glyph>
<glyph name="grave" format="1">
  <advance width="159"/>
  <unicode hex="0060"/>
  <outline>
    <contour>
      <point x="78" y="344" type="line"/>
      <point x="16" y="419" type="line"/>
      <point x="16" y="421" type="line"/>
      <point x="69" y="421" type="line"/>
      <point x="119" y="344" type="line"/>
    </contour>
  </outline>
</glyph>
<glyph name="d" format="1">
  <advance width="266"/>
  <unicode hex="0064"/>
  <outline>
    <contour>
      <point x="194" y="0" type="line"/>
      <point x="188" y="36" type="line"/>
      <point x="185" y="36" type="line"/>
      <point x="171" y="7"/>
      <point x="146" y="-7"/>
      <point x="118" y="-7" type="curve" smooth="yes"/>
      <point x="60" y="-7"/>
      <point x="23" y="42"/>
      <point x="23" y="154" type="curve" smooth="yes"/>
      <point x="23" y="265"/>
      <point x="64" y="314"/>
      <point x="115" y="314" type="curve" smooth="yes"/>
      <point x="144" y="314"/>
      <point x="169" y="300"/>
      <point x="180" y="277" type="curve"/>
      <point x="183" y="277" type="line"/>
      <point x="183" y="421" type="line"/>
      <point x="231" y="421" type="line"/>
      <point x="231" y="0" type="line"/>
    </contour>
    <contour>
      <point x="128" y="271" type="curve" smooth="yes"/>
      <point x="92" y="271"/>
      <point x="73" y="241"/>
      <point x="73" y="164" type="curve" smooth="yes"/>
      <point x="73" y="142" type="line" smooth="yes"/>
      <point x="73" y="66"/>
      <point x="92" y="36"/>
      <point x="128" y="36" type="curve" smooth="yes"/>
      <point x="165" y="36"/>
      <point x="183" y="72"/>
      <point x="183" y="142" type="curve" smooth="yes"/>
      <point x="183" y="162" type="line" smooth="yes"/>
      <point x="183" y="234"/>
      <point x="165" y="271"/>
    </contour>
  </outline>
</glyph>
<glyph name="i" format="1">
  <advance width="106"/>
  <unicode hex="0069"/>
  <outline>
    <contour>
      <point x="29" y="364" type="line"/>
      <point x="29" y="421" type="line"/>
      <point x="77" y="421" type="line"/>
      <point x="77" y="364" type="line"/>
    </contour>
    <contour>
      <point x="29" y="0" type="line"/>
      <point x="29" y="306" type="line"/>
      <point x="77" y="306" type="line"/>
      <point x="77" y="0" type="line"/>
    </contour>
  </outline>
</glyph>
<glyph name="j" format="1">
  <advance width="106"/>
  <unicode hex="006A"/>
  <outline>
    <contour>
      <point x="29" y="364" type="line"/>
      <point x="29" y="421" type="line"/>
      <point x="77" y="421" type="line"/>
      <point x="77" y="364" type="line"/>
    </contour>
    <contour>
      <point x="77" y="-36" type="line" smooth="yes"/>
      <point x="77" y="-71"/>
      <point x="63" y="-106"/>
      <point x="16" y="-106" type="curve" smooth="yes"/>
      <point x="3" y="-106"/>
      <point x="-14" y="-103"/>
      <point x="-24" y="-99" type="curve"/>
      <point x="-24" y="-66" type="line"/>
      <point x="2" y="-66" type="line" smooth="yes"/>
      <point x="20" y="-66"/>
      <point x="29" y="-56"/>
      <point x="29" y="-38" type="curve" smooth="yes"/>
      <point x="29" y="306" type="line"/>
      <point x="77" y="306" type="line"/>
    </contour>
  </outline>
</glyph>
<glyph name="n" format="1">
  <advance width="266"/>
  <unicode hex="006E"/>
  <outline>
    <contour>
      <point x="133" y="0" type="move" name="Anchor-1"/>
    </contour>
    <contour>
      <point x="133" y="306" type="move" name="Anchor-0"/>
    </contour>
    <contour>
      <point x="155" y="314" type="curve" smooth="yes"/>
      <point x="201" y="314"/>
      <point x="231" y="289"/>
      <point x="231" y="221" type="curve" smooth="yes"/>
      <point x="231" y="0" type="line"/>
      <point x="183" y="0" type="line"/>
      <point x="183" y="217" type="line" smooth="yes"/>
      <point x="183" y="260"/>
      <point x="165" y="271"/>
      <point x="140" y="271" type="curve" smooth="yes"/>
      <point x="109" y="271"/>
      <point x="83" y="240"/>
      <point x="83" y="187" type="curve" smooth="yes"/>
      <point x="83" y="0" type="line"/>
      <point x="35" y="0" type="line"/>
      <point x="35" y="306" type="line"/>
      <point x="71" y="306" type="line"/>
      <point x="78" y="271" type="line"/>
      <point x="81" y="271" type="line"/>
      <point x="98" y="301"/>
      <point x="125" y="314"/>
    </contour>
  </outline>
</glyph>
<glyph name="p" format="1">
  <advance width="266"/>
  <unicode hex="0070"/>
  <outline>
    <contour>
      <point x="148" y="314" type="curve" smooth="yes"/>
      <point x="206" y="314"/>
      <point x="243" y="265"/>
      <point x="243" y="153" type="curve" smooth="yes"/>
      <point x="243" y="42"/>
      <point x="202" y="-7"/>
      <point x="151" y="-7" type="curve" smooth="yes"/>
      <point x="121" y="-7"/>
      <point x="96" y="6"/>
      <point x="86" y="27" type="curve"/>
      <point x="83" y="27" type="line"/>
      <point x="83" y="-101" type="line"/>
      <point x="35" y="-101" type="line"/>
      <point x="35" y="306" type="line"/>
      <point x="71" y="306" type="line"/>
      <point x="78" y="271" type="line"/>
      <point x="80" y="271" type="line"/>
      <point x="95" y="299"/>
      <point x="119" y="314"/>
    </contour>
    <contour>
      <point x="138" y="271" type="curve" smooth="yes"/>
      <point x="101" y="271"/>
      <point x="83" y="235"/>
      <point x="83" y="164" type="curve" smooth="yes"/>
      <point x="83" y="142" type="line" smooth="yes"/>
      <point x="83" y="72"/>
      <point x="101" y="36"/>
      <point x="138" y="36" type="curve" smooth="yes"/>
      <point x="174" y="36"/>
      <point x="192" y="66"/>
      <point x="192" y="142" type="curve" smooth="yes"/>
      <point x="192" y="164" type="line" smooth="yes"/>
      <point x="192" y="241"/>
      <point x="174" y="271"/>
    </contour>
  </outline>
</glyph>
<glyph name="t" format="1">
  <advance width="133"/>
  <unicode hex="0074"/>
  <outline>
    <contour>
      <point x="78" y="0" type="move" name="Anchor-1"/>
    </contour>
    <contour>
      <point x="0" y="0" type="move" name="Anchor-0"/>
    </contour>
    <contour>
      <point x="123" y="306" type="line"/>
      <point x="123" y="264" type="line"/>
      <point x="82" y="264" type="line"/>
      <point x="82" y="63" type="line" smooth="yes"/>
      <point x="82" y="45"/>
      <point x="92" y="36"/>
      <point x="109" y="36" type="curve" smooth="yes"/>
      <point x="123" y="36" type="line"/>
      <point x="123" y="3" type="line"/>
      <point x="115" y="-3"/>
      <point x="101" y="-6"/>
      <point x="89" y="-6" type="curve" smooth="yes"/>
      <point x="47" y="-6"/>
      <point x="34" y="30"/>
      <point x="34" y="65" type="curve" smooth="yes"/>
      <point x="34" y="264" type="line"/>
      <point x="8" y="264" type="line"/>
      <point x="8" y="306" type="line"/>
      <point x="34" y="306" type="line"/>
      <point x="45" y="391" type="line"/>
      <point x="82" y="391" type="line"/>
      <point x="82" y="306" type="line"/>
    </contour>
  </outline>
</glyph>
<glyph name="bar" format="1">
  <advance width="124"/>
  <unicode hex="007C"/>
  <outline>
    <contour>
      <point x="39" y="-101" type="line"/>
      <point x="39" y="421" type="line"/>
      <point x="85" y="421" type="line"/>
      <point x="85" y="-101" type="line"/>
    </contour>
  </outline>
</glyph>
<glyph name="braceright" format="1">
  <advance width="159"/>
  <unicode hex="007D"/>
  <outline>
    <contour>
      <point x="12" y="428" type="line"/>
      <point x="60" y="428"/>
      <point x="103" y="415"/>
      <point x="103" y="342" type="curve" smooth="yes"/>
      <point x="103" y="227" type="line" smooth="yes"/>
      <point x="103" y="201"/>
      <point x="127" y="192"/>
      <point x="148" y="192" type="curve"/>
      <point x="148" y="143" type="line"/>
      <point x="127" y="143"/>
      <point x="103" y="134"/>
      <point x="103" y="108" type="curve" smooth="yes"/>
      <point x="103" y="-7" type="line" smooth="yes"/>
      <point x="103" y="-80"/>
      <point x="60" y="-93"/>
      <point x="12" y="-93" type="curve"/>
      <point x="12" y="-59" type="line"/>
      <point x="33" y="-59"/>
      <point x="58" y="-53"/>
      <point x="58" y="-18" type="curve" smooth="yes"/>
      <point x="58" y="20"/>
      <point x="60" y="57"/>
      <point x="62" y="96" type="curve" smooth="yes"/>
      <point x="62" y="98"/>
      <point x="62" y="100"/>
      <point x="62" y="102" type="curve" smooth="yes"/>
      <point x="63" y="142"/>
      <point x="76" y="165"/>
      <point x="113" y="165" type="curve"/>
      <point x="113" y="171" type="line"/>
      <point x="76" y="171"/>
      <point x="63" y="194"/>
      <point x="62" y="233" type="curve" smooth="yes"/>
      <point x="62" y="234"/>
      <point x="62" y="235"/>
      <point x="62" y="236" type="curve" smooth="yes"/>
      <point x="60" y="276"/>
      <point x="58" y="315"/>
      <point x="58" y="354" type="curve" smooth="yes"/>
      <point x="58" y="388"/>
      <point x="33" y="395"/>
      <point x="12" y="395" type="curve"/>
    </contour>
  </outline>
</glyph>
<glyph name="exclamdown" format="1">
  <advance width="159"/>
  <unicode hex="00A1"/>
  <outline>
    <contour>
      <point x="121" y="244" type="line"/>
      <point x="63" y="244" type="line"/>
      <point x="63" y="306" type="line"/>
      <point x="121" y="306" type="line"/>
    </contour>
    <contour>
      <point x="109" y="207" type="line"/>
      <point x="110" y="184"/>
      <point x="111" y="158"/>
      <point x="113" y="131" type="curve" smooth="yes"/>
      <point x="117" y="36"/>
      <point x="122" y="-67"/>
      <point x="124" y="-93" type="curve"/>
      <point x="58" y="-93" type="line"/>
      <point x="64" y="7"/>
      <point x="68" y="107"/>
      <point x="72" y="207" type="curve"/>
    </contour>
  </outline>
</glyph>
<glyph name="cent" format="1">
  <advance width="266"/>
  <unicode hex="00A2"/>
  <outline>
    <contour>
      <point x="151" y="359" type="line"/>
      <point x="212" y="354"/>
      <point x="237" y="312"/>
      <point x="237" y="239" type="curve"/>
      <point x="188" y="239" type="line"/>
      <point x="188" y="286"/>
      <point x="179" y="310"/>
      <point x="151" y="316" type="curve"/>
      <point x="151" y="83" type="line"/>
      <point x="179" y="89"/>
      <point x="190" y="115"/>
      <point x="190" y="160" type="curve"/>
      <point x="237" y="160" type="line"/>
      <point x="237" y="100"/>
      <point x="213" y="47"/>
      <point x="151" y="40" type="curve"/>
      <point x="151" y="-28" type="line"/>
      <point x="123" y="-28" type="line"/>
      <point x="123" y="40" type="line"/>
      <point x="58" y="47"/>
      <point x="28" y="98"/>
      <point x="28" y="200" type="curve" smooth="yes"/>
      <point x="28" y="302"/>
      <point x="58" y="353"/>
      <point x="123" y="359" type="curve"/>
      <point x="123" y="421" type="line"/>
      <point x="151" y="421" type="line"/>
    </contour>
    <contour>
      <point x="123" y="315" type="line"/>
      <point x="92" y="307"/>
      <point x="78" y="272"/>
      <point x="78" y="211" type="curve" smooth="yes"/>
      <point x="78" y="188" type="line" smooth="yes"/>
      <point x="78" y="128"/>
      <point x="91" y="93"/>
      <point x="123" y="84" type="curve"/>
    </contour>
  </outline>
</glyph>
<glyph name="yen" format="1">
  <advance width="266"/>
  <unicode hex="00A5"/>
  <outline>
    <contour>
      <point x="251" y="215" type="line"/>
      <point x="251" y="177" type="line"/>
      <point x="158" y="177" type="line"/>
      <point x="158" y="136" type="line"/>
      <point x="251" y="136" type="line"/>
      <point x="251" y="98" type="line"/>
      <point x="158" y="98" type="line"/>
      <point x="158" y="0" type="line"/>
      <point x="107" y="0" type="line"/>
      <point x="107" y="98" type="line"/>
      <point x="14" y="98" type="line"/>
      <point x="14" y="136" type="line"/>
      <point x="107" y="136" type="line"/>
      <point x="107" y="177" type="line"/>
      <point x="14" y="177" type="line"/>
      <point x="14" y="215" type="line"/>
      <point x="89" y="215" type="line"/>
      <point x="1" y="399" type="line"/>
      <point x="57" y="399" type="line"/>
      <point x="136" y="229" type="line"/>
      <point x="138" y="229" type="line"/>
      <point x="215" y="399" type="line"/>
      <point x="264" y="399" type="line"/>
      <point x="177" y="215" type="line"/>
    </contour>
  </outline>
</glyph>
<glyph name="dieresis" format="1">
  <advance width="159"/>
  <unicode hex="00A8"/>
  <outline>
    <contour>
      <point x="11" y="366" type="line"/>
      <point x="11" y="421" type="line"/>
      <point x="61" y="421" type="line"/>
      <point x="61" y="366" type="line"/>
    </contour>
    <contour>
      <point x="98" y="366" type="line"/>
      <point x="98" y="421" type="line"/>
      <point x="148" y="421" type="line"/>
      <point x="148" y="366" type="line"/>
    </contour>
  </outline>
</glyph>
<glyph name="ordfeminine" format="1">
  <advance width="177"/>
  <unicode hex="00AA"/>
  <outline>
    <contour>
      <point x="160" y="242" type="curve" smooth="yes"/>
      <point x="173" y="242" type="line"/>
      <point x="173" y="218" type="line"/>
      <point x="169" y="215"/>
      <point x="161" y="213"/>
      <point x="152" y="213" type="curve" smooth="yes"/>
      <point x="135" y="213"/>
      <point x="123" y="222"/>
      <point x="118" y="237" type="curve"/>
      <point x="107" y="220"/>
      <point x="88" y="211"/>
      <point x="67" y="211" type="curve" smooth="yes"/>
      <point x="46" y="211"/>
      <point x="12" y="219"/>
      <point x="12" y="270" type="curve" smooth="yes"/>
      <point x="12" y="328"/>
      <point x="56" y="340"/>
      <point x="116" y="340" type="curve"/>
      <point x="116" y="365" type="line" smooth="yes"/>
      <point x="116" y="384"/>
      <point x="109" y="398"/>
      <point x="85" y="398" type="curve" smooth="yes"/>
      <point x="62" y="398"/>
      <point x="54" y="382"/>
      <point x="54" y="366" type="curve" smooth="yes"/>
      <point x="54" y="360" type="line"/>
      <point x="20" y="360" type="line"/>
      <point x="20" y="370" type="line" smooth="yes"/>
      <point x="20" y="409"/>
      <point x="47" y="428"/>
      <point x="87" y="428" type="curve" smooth="yes"/>
      <point x="129" y="428"/>
      <point x="150" y="407"/>
      <point x="150" y="370" type="curve" smooth="yes"/>
      <point x="150" y="254" type="line" smooth="yes"/>
      <point x="150" y="245"/>
      <point x="156" y="242"/>
    </contour>
    <contour>
      <point x="116" y="291" type="curve" smooth="yes"/>
      <point x="116" y="309" type="line"/>
      <point x="76" y="309"/>
      <point x="47" y="303"/>
      <point x="47" y="272" type="curve" smooth="yes"/>
      <point x="47" y="249"/>
      <point x="57" y="242"/>
      <point x="74" y="242" type="curve" smooth="yes"/>
      <point x="94" y="242"/>
      <point x="116" y="258"/>
    </contour>
  </outline>
</glyph>
<glyph name="guillemotleft" format="1">
  <advance width="266"/>
  <unicode hex="00AB"/>
  <outline>
    <contour>
      <point x="155" y="73" type="line"/>
      <point x="113" y="73" type="line"/>
      <point x="32" y="190" type="line"/>
      <point x="113" y="306" type="line"/>
      <point x="155" y="306" type="line"/>
      <point x="89" y="190" type="line"/>
    </contour>
    <contour>
      <point x="243" y="73" type="line"/>
      <point x="202" y="73" type="line"/>
      <point x="119" y="190" type="line"/>
      <point x="202" y="306" type="line"/>
      <point x="243" y="306" type="line"/>
      <point x="178" y="190" type="line"/>
    </contour>
  </outline>
</glyph>
<glyph name="logicalnot" format="1">
  <advance width="279"/>
  <unicode hex="00AC"/>
  <outline>
    <contour>
      <point x="204" y="115" type="line"/>
      <point x="204" y="210" type="line"/>
      <point x="22" y="210" type="line"/>
      <point x="22" y="264" type="line"/>
      <point x="254" y="264" type="line"/>
      <point x="254" y="115" type="line"/>
    </contour>
  </outline>
</glyph>
<glyph name="macron" format="1">
  <advance width="159"/>
  <unicode hex="00AF"/>
  <outline>
    <contour>
      <point x="7" y="349" type="line"/>
      <point x="7" y="391" type="line"/>
      <point x="153" y="391" type="line"/>
      <point x="153" y="349" type="line"/>
    </contour>
  </outline>
</glyph>
<glyph name="plusminus" format="1">
  <advance width="320"/>
  <unicode hex="00B1"/>
  <outline>
    <contour>
      <point x="273" y="229" type="line"/>
      <point x="273" y="181" type="line"/>
      <point x="183" y="181" type="line"/>
      <point x="183" y="74" type="line"/>
      <point x="135" y="74" type="line"/>
      <point x="135" y="181" type="line"/>
      <point x="45" y="181" type="line"/>
      <point x="45" y="229" type="line"/>
      <point x="135" y="229" type="line"/>
      <point x="135" y="337" type="line"/>
      <point x="183" y="337" type="line"/>
      <point x="183" y="229" type="line"/>
    </contour>
    <contour>
      <point x="45" y="0" type="line"/>
      <point x="45" y="48" type="line"/>
      <point x="273" y="48" type="line"/>
      <point x="273" y="0" type="line"/>
    </contour>
  </outline>
</glyph>
<glyph name="uni00B2" format="1">
  <advance width="159"/>
  <unicode hex="00B2"/>
  <outline>
    <contour>
      <point x="82" y="428" type="curve" smooth="yes"/>
      <point x="117" y="428"/>
      <point x="146" y="410"/>
      <point x="146" y="364" type="curve" smooth="yes"/>
      <point x="146" y="326"/>
      <point x="117" y="293"/>
      <point x="92" y="265" type="curve" smooth="yes"/>
      <point x="91" y="264"/>
      <point x="90" y="263"/>
      <point x="89" y="262" type="curve" smooth="yes"/>
      <point x="78" y="251"/>
      <point x="65" y="239"/>
      <point x="59" y="224" type="curve"/>
      <point x="147" y="224" type="line"/>
      <point x="147" y="188" type="line"/>
      <point x="14" y="188" type="line"/>
      <point x="14" y="197" type="line" smooth="yes"/>
      <point x="14" y="228"/>
      <point x="31" y="252"/>
      <point x="51" y="273" type="curve" smooth="yes"/>
      <point x="56" y="278"/>
      <point x="61" y="284"/>
      <point x="65" y="289" type="curve" smooth="yes"/>
      <point x="87" y="313"/>
      <point x="108" y="335"/>
      <point x="108" y="364" type="curve" smooth="yes"/>
      <point x="108" y="378"/>
      <point x="103" y="394"/>
      <point x="82" y="394" type="curve" smooth="yes"/>
      <point x="62" y="394"/>
      <point x="54" y="376"/>
      <point x="54" y="355" type="curve" smooth="yes"/>
      <point x="54" y="337" type="line"/>
      <point x="18" y="337" type="line"/>
      <point x="18" y="337"/>
      <point x="16" y="347"/>
      <point x="16" y="355" type="curve" smooth="yes"/>
      <point x="16" y="407"/>
      <point x="47" y="428"/>
    </contour>
  </outline>
</glyph>
<glyph name="cedilla" format="1">
  <advance width="159"/>
  <unicode hex="00B8"/>
  <outline>
    <contour>
      <point x="83" y="-21" type="line"/>
      <point x="108" y="-22"/>
      <point x="130" y="-32"/>
      <point x="130" y="-59" type="curve" smooth="yes"/>
      <point x="130" y="-98"/>
      <point x="94" y="-106"/>
      <point x="70" y="-106" type="curve" smooth="yes"/>
      <point x="53" y="-106"/>
      <point x="35" y="-104"/>
      <point x="21" y="-101" type="curve"/>
      <point x="21" y="-73" type="line"/>
      <point x="65" y="-73" type="line" smooth="yes"/>
      <point x="78" y="-73"/>
      <point x="86" y="-70"/>
      <point x="86" y="-59" type="curve" smooth="yes"/>
      <point x="86" y="-49"/>
      <point x="82" y="-45"/>
      <point x="67" y="-45" type="curve" smooth="yes"/>
      <point x="47" y="-45" type="line"/>
      <point x="55" y="7" type="line"/>
      <point x="88" y="7" type="line"/>
    </contour>
  </outline>
</glyph>
<glyph name="ordmasculine" format="1">
  <advance width="174"/>
  <unicode hex="00BA"/>
  <outline>
    <contour>
      <point x="87" y="428" type="curve" smooth="yes"/>
      <point x="136" y="428"/>
      <point x="161" y="394"/>
      <point x="161" y="319" type="curve" smooth="yes"/>
      <point x="161" y="244"/>
      <point x="136" y="210"/>
      <point x="87" y="210" type="curve" smooth="yes"/>
      <point x="38" y="210"/>
      <point x="13" y="244"/>
      <point x="13" y="319" type="curve" smooth="yes"/>
      <point x="13" y="394"/>
      <point x="38" y="428"/>
    </contour>
    <contour>
      <point x="87" y="397" type="curve" smooth="yes"/>
      <point x="61" y="397"/>
      <point x="48" y="374"/>
      <point x="48" y="327" type="curve" smooth="yes"/>
      <point x="48" y="312" type="line" smooth="yes"/>
      <point x="48" y="265"/>
      <point x="61" y="241"/>
      <point x="87" y="241" type="curve" smooth="yes"/>
      <point x="113" y="241"/>
      <point x="126" y="265"/>
      <point x="126" y="312" type="curve" smooth="yes"/>
      <point x="126" y="327" type="line" smooth="yes"/>
      <point x="126" y="374"/>
      <point x="113" y="397"/>
    </contour>
  </outline>
</glyph>
<glyph name="Aacute" format="1">
  <advance width="319"/>
  <unicode hex="00C1"/>
  <outline>
    <contour>
      <point x="228" y="513" type="line"/>
      <point x="165" y="438" type="line"/>
      <point x="125" y="438" type="line"/>
      <point x="175" y="515" type="line"/>
      <point x="227" y="515" type="line"/>
    </contour>
    <contour>
      <point x="319" y="0" type="line"/>
      <point x="264" y="0" type="line"/>
      <point x="237" y="89" type="line"/>
      <point x="78" y="89" type="line"/>
      <point x="51" y="0" type="line"/>
      <point x="-1" y="0" type="line"/>
      <point x="127" y="399" type="line"/>
      <point x="192" y="399" type="line"/>
    </contour>
    <contour>
      <point x="156" y="358" type="line"/>
      <point x="156" y="358"/>
      <point x="151" y="326"/>
      <point x="147" y="314" type="curve" smooth="yes"/>
      <point x="92" y="136" type="line"/>
      <point x="222" y="136" type="line"/>
      <point x="168" y="314" type="line" smooth="yes"/>
      <point x="163" y="327"/>
      <point x="158" y="358"/>
      <point x="158" y="358" type="curve"/>
    </contour>
  </outline>
</glyph>
<glyph name="Ccedilla" format="1">
  <advance width="345"/>
  <unicode hex="00C7"/>
  <outline>
    <contour>
      <point x="182" y="407" type="curve" smooth="yes"/>
      <point x="264" y="407"/>
      <point x="321" y="357"/>
      <point x="321" y="255" type="curve"/>
      <point x="269" y="255" type="line"/>
      <point x="269" y="325"/>
      <point x="234" y="359"/>
      <point x="182" y="359" type="curve" smooth="yes"/>
      <point x="112" y="359"/>
      <point x="78" y="312"/>
      <point x="78" y="214" type="curve" smooth="yes"/>
      <point x="78" y="185" type="line" smooth="yes"/>
      <point x="78" y="88"/>
      <point x="112" y="40"/>
      <point x="182" y="40" type="curve" smooth="yes"/>
      <point x="235" y="40"/>
      <point x="270" y="74"/>
      <point x="270" y="143" type="curve"/>
      <point x="321" y="143" type="line"/>
      <point x="321" y="40"/>
      <point x="264" y="-7"/>
      <point x="182" y="-7" type="curve"/>
      <point x="180" y="-21" type="line"/>
      <point x="205" y="-22"/>
      <point x="227" y="-32"/>
      <point x="227" y="-59" type="curve" smooth="yes"/>
      <point x="227" y="-98"/>
      <point x="190" y="-106"/>
      <point x="167" y="-106" type="curve" smooth="yes"/>
      <point x="150" y="-106"/>
      <point x="132" y="-104"/>
      <point x="118" y="-101" type="curve"/>
      <point x="118" y="-73" type="line"/>
      <point x="162" y="-73" type="line" smooth="yes"/>
      <point x="175" y="-73"/>
      <point x="183" y="-70"/>
      <point x="183" y="-59" type="curve" smooth="yes"/>
      <point x="183" y="-49"/>
      <point x="179" y="-45"/>
      <point x="163" y="-45" type="curve" smooth="yes"/>
      <point x="144" y="-45" type="line"/>
      <point x="150" y="-5" type="line"/>
      <point x="67" y="8"/>
      <point x="24" y="76"/>
      <point x="24" y="200" type="curve" smooth="yes"/>
      <point x="24" y="339"/>
      <point x="78" y="407"/>
    </contour>
  </outline>
</glyph>
<glyph name="Eacute" format="1">
  <advance width="319"/>
  <unicode hex="00C9"/>
  <outline>
    <contour>
      <point x="228" y="513" type="line"/>
      <point x="165" y="438" type="line"/>
      <point x="125" y="438" type="line"/>
      <point x="175" y="515" type="line"/>
      <point x="227" y="515" type="line"/>
    </contour>
    <contour>
      <point x="287" y="353" type="line"/>
      <point x="92" y="353" type="line"/>
      <point x="92" y="228" type="line"/>
      <point x="262" y="228" type="line"/>
      <point x="262" y="181" type="line"/>
      <point x="92" y="181" type="line"/>
      <point x="92" y="47" type="line"/>
      <point x="291" y="47" type="line"/>
      <point x="291" y="0" type="line"/>
      <point x="41" y="0" type="line"/>
      <point x="41" y="399" type="line"/>
      <point x="287" y="399" type="line"/>
    </contour>
  </outline>
</glyph>
<glyph name="Igrave" format="1">
  <advance width="133"/>
  <unicode hex="00CC"/>
  <outline>
    <contour>
      <point x="101" y="438" type="line"/>
      <point x="61" y="438" type="line"/>
      <point x="-2" y="513" type="line"/>
      <point x="-1" y="515" type="line"/>
      <point x="51" y="515" type="line"/>
    </contour>
    <contour>
      <point x="92" y="0" type="line"/>
      <point x="41" y="0" type="line"/>
      <point x="41" y="399" type="line"/>
      <point x="92" y="399" type="line"/>
    </contour>
  </outline>
</glyph>
<glyph name="Iacute" format="1">
  <advance width="133"/>
  <unicode hex="00CD"/>
  <outline>
    <contour>
      <point x="134" y="513" type="line"/>
      <point x="72" y="438" type="line"/>
      <point x="32" y="438" type="line"/>
      <point x="82" y="515" type="line"/>
      <point x="134" y="515" type="line"/>
    </contour>
    <contour>
      <point x="92" y="0" type="line"/>
      <point x="41" y="0" type="line"/>
      <point x="41" y="399" type="line"/>
      <point x="92" y="399" type="line"/>
    </contour>
  </outline>
</glyph>
<glyph name="Icircumflex" format="1">
  <advance width="133"/>
  <unicode hex="00CE"/>
  <outline>
    <contour>
      <point x="93" y="435" type="line"/>
      <point x="67" y="481" type="line"/>
      <point x="41" y="435" type="line"/>
      <point x="-7" y="435" type="line"/>
      <point x="44" y="514" type="line"/>
      <point x="90" y="514" type="line"/>
      <point x="139" y="435" type="line"/>
    </contour>
    <contour>
      <point x="41" y="0" type="line"/>
      <point x="41" y="399" type="line"/>
      <point x="92" y="399" type="line"/>
      <point x="92" y="0" type="line"/>
    </contour>
  </outline>
</glyph>
<glyph name="Ntilde" format="1">
  <advance width="345"/>
  <unicode hex="00D1"/>
  <outline>
    <contour>
      <point x="258" y="515" type="line"/>
      <point x="258" y="488"/>
      <point x="243" y="454"/>
      <point x="208" y="454" type="curve" smooth="yes"/>
      <point x="195" y="454"/>
      <point x="184" y="459"/>
      <point x="172" y="463" type="curve" smooth="yes"/>
      <point x="162" y="468"/>
      <point x="152" y="472"/>
      <point x="141" y="472" type="curve" smooth="yes"/>
      <point x="130" y="472"/>
      <point x="123" y="467"/>
      <point x="121" y="454" type="curve"/>
      <point x="88" y="454" type="line"/>
      <point x="88" y="480"/>
      <point x="102" y="515"/>
      <point x="137" y="515" type="curve" smooth="yes"/>
      <point x="150" y="515"/>
      <point x="161" y="510"/>
      <point x="172" y="506" type="curve" smooth="yes"/>
      <point x="182" y="501"/>
      <point x="193" y="497"/>
      <point x="204" y="497" type="curve" smooth="yes"/>
      <point x="214" y="497"/>
      <point x="222" y="501"/>
      <point x="223" y="515" type="curve"/>
    </contour>
    <contour>
      <point x="304" y="0" type="line"/>
      <point x="262" y="0" type="line"/>
      <point x="112" y="254" type="line" smooth="yes"/>
      <point x="102" y="272"/>
      <point x="86" y="308"/>
      <point x="86" y="308" type="curve"/>
      <point x="84" y="308" type="line"/>
      <point x="84" y="308"/>
      <point x="87" y="271"/>
      <point x="87" y="254" type="curve" smooth="yes"/>
      <point x="87" y="0" type="line"/>
      <point x="41" y="0" type="line"/>
      <point x="41" y="399" type="line"/>
      <point x="85" y="399" type="line"/>
      <point x="233" y="148" type="line" smooth="yes"/>
      <point x="243" y="133"/>
      <point x="258" y="95"/>
      <point x="258" y="95" type="curve"/>
      <point x="260" y="96" type="line"/>
      <point x="260" y="96"/>
      <point x="258" y="136"/>
      <point x="258" y="148" type="curve" smooth="yes"/>
      <point x="258" y="399" type="line"/>
      <point x="304" y="399" type="line"/>
    </contour>
  </outline>
</glyph>
<glyph name="Oacute" format="1">
  <advance width="372"/>
  <unicode hex="00D3"/>
  <outline>
    <contour>
      <point x="254" y="513" type="line"/>
      <point x="192" y="438" type="line"/>
      <point x="152" y="438" type="line"/>
      <point x="202" y="515" type="line"/>
      <point x="254" y="515" type="line"/>
    </contour>
    <contour>
      <point x="186" y="407" type="curve" smooth="yes"/>
      <point x="284" y="407"/>
      <point x="343" y="339"/>
      <point x="343" y="200" type="curve" smooth="yes"/>
      <point x="343" y="61"/>
      <point x="284" y="-7"/>
      <point x="186" y="-7" type="curve" smooth="yes"/>
      <point x="88" y="-7"/>
      <point x="28" y="61"/>
      <point x="28" y="200" type="curve" smooth="yes"/>
      <point x="28" y="339"/>
      <point x="88" y="407"/>
    </contour>
    <contour>
      <point x="186" y="359" type="curve" smooth="yes"/>
      <point x="122" y="359"/>
      <point x="82" y="312"/>
      <point x="82" y="214" type="curve" smooth="yes"/>
      <point x="82" y="185" type="line" smooth="yes"/>
      <point x="82" y="88"/>
      <point x="122" y="40"/>
      <point x="186" y="40" type="curve" smooth="yes"/>
      <point x="250" y="40"/>
      <point x="289" y="88"/>
      <point x="289" y="185" type="curve" smooth="yes"/>
      <point x="289" y="214" type="line" smooth="yes"/>
      <point x="289" y="312"/>
      <point x="250" y="359"/>
    </contour>
  </outline>
</glyph>
<glyph name="Ocircumflex" format="1">
  <advance width="372"/>
  <unicode hex="00D4"/>
  <outline>
    <contour>
      <point x="212" y="435" type="line"/>
      <point x="186" y="481" type="line"/>
      <point x="160" y="435" type="line"/>
      <point x="113" y="435" type="line"/>
      <point x="163" y="514" type="line"/>
      <point x="209" y="514" type="line"/>
      <point x="258" y="435" type="line"/>
    </contour>
    <contour>
      <point x="186" y="407" type="curve" smooth="yes"/>
      <point x="284" y="407"/>
      <point x="343" y="339"/>
      <point x="343" y="200" type="curve" smooth="yes"/>
      <point x="343" y="61"/>
      <point x="284" y="-7"/>
      <point x="186" y="-7" type="curve" smooth="yes"/>
      <point x="88" y="-7"/>
      <point x="28" y="61"/>
      <point x="28" y="200" type="curve" smooth="yes"/>
      <point x="28" y="339"/>
      <point x="88" y="407"/>
    </contour>
    <contour>
      <point x="186" y="359" type="curve" smooth="yes"/>
      <point x="122" y="359"/>
      <point x="82" y="312"/>
      <point x="82" y="214" type="curve" smooth="yes"/>
      <point x="82" y="185" type="line" smooth="yes"/>
      <point x="82" y="88"/>
      <point x="122" y="40"/>
      <point x="186" y="40" type="curve" smooth="yes"/>
      <point x="250" y="40"/>
      <point x="289" y="88"/>
      <point x="289" y="185" type="curve" smooth="yes"/>
      <point x="289" y="214" type="line" smooth="yes"/>
      <point x="289" y="312"/>
      <point x="250" y="359"/>
    </contour>
  </outline>
</glyph>
<glyph name="Uacute" format="1">
  <advance width="345"/>
  <unicode hex="00DA"/>
  <outline>
    <contour>
      <point x="241" y="513" type="line"/>
      <point x="179" y="438" type="line"/>
      <point x="138" y="438" type="line"/>
      <point x="188" y="515" type="line"/>
      <point x="240" y="515" type="line"/>
    </contour>
    <contour>
      <point x="304" y="130" type="line" smooth="yes"/>
      <point x="304" y="40"/>
      <point x="254" y="-7"/>
      <point x="173" y="-7" type="curve" smooth="yes"/>
      <point x="90" y="-7"/>
      <point x="41" y="40"/>
      <point x="41" y="130" type="curve" smooth="yes"/>
      <point x="41" y="399" type="line"/>
      <point x="92" y="399" type="line"/>
      <point x="92" y="127" type="line" smooth="yes"/>
      <point x="92" y="71"/>
      <point x="123" y="40"/>
      <point x="173" y="40" type="curve" smooth="yes"/>
      <point x="223" y="40"/>
      <point x="253" y="71"/>
      <point x="253" y="127" type="curve" smooth="yes"/>
      <point x="253" y="399" type="line"/>
      <point x="304" y="399" type="line"/>
    </contour>
  </outline>
</glyph>
<glyph name="Ucircumflex" format="1">
  <advance width="345"/>
  <unicode hex="00DB"/>
  <outline>
    <contour>
      <point x="245" y="435" type="line"/>
      <point x="198" y="435" type="line"/>
      <point x="173" y="481" type="line"/>
      <point x="146" y="435" type="line"/>
      <point x="100" y="435" type="line"/>
      <point x="150" y="514" type="line"/>
      <point x="195" y="514" type="line"/>
    </contour>
    <contour>
      <point x="304" y="130" type="line" smooth="yes"/>
      <point x="304" y="40"/>
      <point x="254" y="-7"/>
      <point x="173" y="-7" type="curve" smooth="yes"/>
      <point x="90" y="-7"/>
      <point x="41" y="40"/>
      <point x="41" y="130" type="curve" smooth="yes"/>
      <point x="41" y="399" type="line"/>
      <point x="92" y="399" type="line"/>
      <point x="92" y="127" type="line" smooth="yes"/>
      <point x="92" y="71"/>
      <point x="123" y="40"/>
      <point x="173" y="40" type="curve" smooth="yes"/>
      <point x="223" y="40"/>
      <point x="253" y="71"/>
      <point x="253" y="127" type="curve" smooth="yes"/>
      <point x="253" y="399" type="line"/>
      <point x="304" y="399" type="line"/>
    </contour>
  </outline>
</glyph>
<glyph name="ae" format="1">
  <advance width="424"/>
  <unicode hex="00E6"/>
  <outline>
    <contour>
      <point x="0" y="0" type="move" name="Anchor-1"/>
    </contour>
    <contour>
      <point x="213" y="306" type="move" name="Anchor-0"/>
    </contour>
    <contour>
      <point x="294" y="314" type="curve" smooth="yes"/>
      <point x="360" y="314"/>
      <point x="394" y="272"/>
      <point x="394" y="169" type="curve" smooth="yes"/>
      <point x="394" y="139" type="line"/>
      <point x="229" y="139" type="line"/>
      <point x="229" y="68"/>
      <point x="250" y="36"/>
      <point x="295" y="36" type="curve" smooth="yes"/>
      <point x="326" y="36"/>
      <point x="347" y="62"/>
      <point x="347" y="104" type="curve"/>
      <point x="394" y="104" type="line"/>
      <point x="394" y="36"/>
      <point x="354" y="-7"/>
      <point x="294" y="-7" type="curve" smooth="yes"/>
      <point x="252" y="-7"/>
      <point x="220" y="7"/>
      <point x="201" y="40" type="curve"/>
      <point x="179" y="11"/>
      <point x="148" y="-7"/>
      <point x="113" y="-7" type="curve" smooth="yes"/>
      <point x="74" y="-7"/>
      <point x="23" y="5"/>
      <point x="23" y="79" type="curve" smooth="yes"/>
      <point x="23" y="163"/>
      <point x="89" y="182"/>
      <point x="179" y="182" type="curve"/>
      <point x="179" y="221" type="line" smooth="yes"/>
      <point x="179" y="250"/>
      <point x="169" y="271"/>
      <point x="130" y="271" type="curve" smooth="yes"/>
      <point x="94" y="271"/>
      <point x="83" y="246"/>
      <point x="83" y="223" type="curve" smooth="yes"/>
      <point x="83" y="215" type="line"/>
      <point x="36" y="215" type="line"/>
      <point x="35" y="219"/>
      <point x="35" y="223"/>
      <point x="35" y="229" type="curve" smooth="yes"/>
      <point x="35" y="284"/>
      <point x="76" y="314"/>
      <point x="133" y="314" type="curve" smooth="yes"/>
      <point x="171" y="314"/>
      <point x="198" y="301"/>
      <point x="212" y="279" type="curve"/>
      <point x="231" y="302"/>
      <point x="258" y="314"/>
    </contour>
    <contour>
      <point x="294" y="271" type="curve" smooth="yes"/>
      <point x="251" y="271"/>
      <point x="233" y="241"/>
      <point x="229" y="182" type="curve"/>
      <point x="344" y="182" type="line"/>
      <point x="344" y="240"/>
      <point x="327" y="271"/>
    </contour>
    <contour>
      <point x="179" y="139" type="line"/>
      <point x="116" y="139"/>
      <point x="73" y="130"/>
      <point x="73" y="82" type="curve" smooth="yes"/>
      <point x="73" y="47"/>
      <point x="88" y="36"/>
      <point x="115" y="36" type="curve" smooth="yes"/>
      <point x="145" y="36"/>
      <point x="179" y="59"/>
      <point x="179" y="107" type="curve" smooth="yes"/>
    </contour>
  </outline>
</glyph>
<glyph name="egrave" format="1">
  <advance width="266"/>
  <unicode hex="00E8"/>
  <outline>
    <contour>
      <point x="174" y="344" type="line"/>
      <point x="134" y="344" type="line"/>
      <point x="71" y="419" type="line"/>
      <point x="72" y="421" type="line"/>
      <point x="124" y="421" type="line"/>
    </contour>
    <contour>
      <point x="140" y="314" type="curve" smooth="yes"/>
      <point x="207" y="314"/>
      <point x="241" y="272"/>
      <point x="241" y="169" type="curve" smooth="yes"/>
      <point x="241" y="139" type="line"/>
      <point x="74" y="139" type="line"/>
      <point x="75" y="68"/>
      <point x="96" y="36"/>
      <point x="142" y="36" type="curve" smooth="yes"/>
      <point x="172" y="36"/>
      <point x="193" y="62"/>
      <point x="193" y="104" type="curve"/>
      <point x="241" y="104" type="line"/>
      <point x="241" y="36"/>
      <point x="200" y="-7"/>
      <point x="140" y="-7" type="curve" smooth="yes"/>
      <point x="64" y="-7"/>
      <point x="24" y="40"/>
      <point x="24" y="153" type="curve" smooth="yes"/>
      <point x="24" y="264"/>
      <point x="63" y="314"/>
    </contour>
    <contour>
      <point x="140" y="271" type="curve" smooth="yes"/>
      <point x="98" y="271"/>
      <point x="79" y="241"/>
      <point x="75" y="182" type="curve"/>
      <point x="190" y="182" type="line"/>
      <point x="190" y="240"/>
      <point x="173" y="271"/>
    </contour>
  </outline>
</glyph>
<glyph name="idieresis" format="1">
  <advance width="133"/>
  <unicode hex="00EF"/>
  <outline>
    <contour>
      <point x="48" y="366" type="line"/>
      <point x="-3" y="366" type="line"/>
      <point x="-3" y="421" type="line"/>
      <point x="48" y="421" type="line"/>
    </contour>
    <contour>
      <point x="136" y="366" type="line"/>
      <point x="85" y="366" type="line"/>
      <point x="85" y="421" type="line"/>
      <point x="136" y="421" type="line"/>
    </contour>
    <contour>
      <point x="90" y="0" type="line"/>
      <point x="43" y="0" type="line"/>
      <point x="43" y="306" type="line"/>
      <point x="90" y="306" type="line"/>
    </contour>
  </outline>
</glyph>
<glyph name="eth" format="1">
  <advance width="266"/>
  <unicode hex="00F0"/>
  <outline>
    <contour>
      <point x="173" y="360" type="line"/>
      <point x="215" y="304"/>
      <point x="243" y="238"/>
      <point x="243" y="153" type="curve" smooth="yes"/>
      <point x="243" y="43"/>
      <point x="204" y="-7"/>
      <point x="133" y="-7" type="curve" smooth="yes"/>
      <point x="61" y="-7"/>
      <point x="23" y="43"/>
      <point x="23" y="153" type="curve" smooth="yes"/>
      <point x="23" y="266"/>
      <point x="67" y="314"/>
      <point x="127" y="314" type="curve" smooth="yes"/>
      <point x="137" y="314"/>
      <point x="147" y="311"/>
      <point x="156" y="306" type="curve"/>
      <point x="147" y="323"/>
      <point x="136" y="339"/>
      <point x="123" y="355" type="curve"/>
      <point x="54" y="349" type="line"/>
      <point x="54" y="384" type="line"/>
      <point x="96" y="388" type="line" smooth="yes"/>
      <point x="93" y="391"/>
      <point x="90" y="394"/>
      <point x="87" y="398" type="curve" smooth="yes"/>
      <point x="81" y="405"/>
      <point x="75" y="412"/>
      <point x="68" y="419" type="curve"/>
      <point x="69" y="421" type="line"/>
      <point x="121" y="421" type="line"/>
      <point x="147" y="393" type="line"/>
      <point x="215" y="399" type="line"/>
      <point x="215" y="364" type="line"/>
    </contour>
    <contour>
      <point x="192" y="142" type="curve" smooth="yes"/>
      <point x="192" y="164" type="line" smooth="yes"/>
      <point x="192" y="235"/>
      <point x="172" y="271"/>
      <point x="133" y="271" type="curve" smooth="yes"/>
      <point x="93" y="271"/>
      <point x="73" y="235"/>
      <point x="73" y="164" type="curve" smooth="yes"/>
      <point x="73" y="142" type="line" smooth="yes"/>
      <point x="73" y="72"/>
      <point x="93" y="36"/>
      <point x="133" y="36" type="curve" smooth="yes"/>
      <point x="173" y="36"/>
      <point x="192" y="72"/>
    </contour>
  </outline>
</glyph>
<glyph name="ntilde" format="1">
  <advance width="266"/>
  <unicode hex="00F1"/>
  <outline>
    <contour>
      <point x="218" y="421" type="line"/>
      <point x="218" y="394"/>
      <point x="204" y="360"/>
      <point x="168" y="360" type="curve" smooth="yes"/>
      <point x="155" y="360"/>
      <point x="144" y="365"/>
      <point x="133" y="370" type="curve" smooth="yes"/>
      <point x="123" y="374"/>
      <point x="112" y="379"/>
      <point x="101" y="379" type="curve" smooth="yes"/>
      <point x="91" y="379"/>
      <point x="83" y="374"/>
      <point x="82" y="360" type="curve"/>
      <point x="47" y="360" type="line"/>
      <point x="47" y="387"/>
      <point x="63" y="421"/>
      <point x="98" y="421" type="curve" smooth="yes"/>
      <point x="111" y="421"/>
      <point x="122" y="416"/>
      <point x="133" y="412" type="curve" smooth="yes"/>
      <point x="143" y="407"/>
      <point x="153" y="403"/>
      <point x="164" y="403" type="curve" smooth="yes"/>
      <point x="175" y="403"/>
      <point x="183" y="408"/>
      <point x="184" y="421" type="curve"/>
    </contour>
    <contour>
      <point x="155" y="314" type="curve" smooth="yes"/>
      <point x="201" y="314"/>
      <point x="231" y="289"/>
      <point x="231" y="221" type="curve" smooth="yes"/>
      <point x="231" y="0" type="line"/>
      <point x="183" y="0" type="line"/>
      <point x="183" y="217" type="line" smooth="yes"/>
      <point x="183" y="260"/>
      <point x="165" y="271"/>
      <point x="140" y="271" type="curve" smooth="yes"/>
      <point x="109" y="271"/>
      <point x="83" y="240"/>
      <point x="83" y="187" type="curve" smooth="yes"/>
      <point x="83" y="0" type="line"/>
      <point x="35" y="0" type="line"/>
      <point x="35" y="306" type="line"/>
      <point x="71" y="306" type="line"/>
      <point x="78" y="271" type="line"/>
      <point x="81" y="271" type="line"/>
      <point x="98" y="301"/>
      <point x="125" y="314"/>
    </contour>
  </outline>
</glyph>
<glyph name="divide" format="1">
  <advance width="320"/>
  <unicode hex="00F7"/>
  <outline>
    <contour>
      <point x="135" y="215" type="line"/>
      <point x="135" y="268" type="line"/>
      <point x="184" y="268" type="line"/>
      <point x="184" y="215" type="line"/>
    </contour>
    <contour>
      <point x="25" y="124" type="line"/>
      <point x="25" y="173" type="line"/>
      <point x="294" y="173" type="line"/>
      <point x="294" y="124" type="line"/>
    </contour>
    <contour>
      <point x="135" y="30" type="line"/>
      <point x="135" y="82" type="line"/>
      <point x="184" y="82" type="line"/>
      <point x="184" y="30" type="line"/>
    </contour>
  </outline>
</glyph>
<glyph name="oslash" format="1">
  <advance width="292"/>
  <unicode hex="00F8"/>
  <outline>
    <contour>
      <point x="0" y="0" type="move" name="Anchor-1"/>
    </contour>
    <contour>
      <point x="146" y="306" type="move" name="Anchor-0"/>
    </contour>
    <contour>
      <point x="227" y="274" type="line"/>
      <point x="246" y="248"/>
      <point x="255" y="208"/>
      <point x="255" y="153" type="curve" smooth="yes"/>
      <point x="255" y="43"/>
      <point x="217" y="-7"/>
      <point x="146" y="-7" type="curve" smooth="yes"/>
      <point x="121" y="-7"/>
      <point x="100" y="-1"/>
      <point x="84" y="11" type="curve"/>
      <point x="68" y="-18" type="line"/>
      <point x="36" y="-18" type="line"/>
      <point x="63" y="32" type="line"/>
      <point x="45" y="58"/>
      <point x="36" y="98"/>
      <point x="36" y="153" type="curve" smooth="yes"/>
      <point x="36" y="264"/>
      <point x="74" y="314"/>
      <point x="146" y="314" type="curve" smooth="yes"/>
      <point x="170" y="314"/>
      <point x="190" y="308"/>
      <point x="207" y="295" type="curve"/>
      <point x="223" y="325" type="line"/>
      <point x="255" y="325" type="line"/>
    </contour>
    <contour>
      <point x="146" y="271" type="curve" smooth="yes"/>
      <point x="106" y="271"/>
      <point x="86" y="235"/>
      <point x="86" y="164" type="curve" smooth="yes"/>
      <point x="86" y="142" type="line" smooth="yes"/>
      <point x="86" y="119"/>
      <point x="88" y="100"/>
      <point x="92" y="84" type="curve"/>
      <point x="184" y="254" type="line"/>
      <point x="174" y="265"/>
      <point x="161" y="271"/>
    </contour>
    <contour>
      <point x="107" y="53" type="line"/>
      <point x="117" y="42"/>
      <point x="129" y="36"/>
      <point x="146" y="36" type="curve" smooth="yes"/>
      <point x="185" y="36"/>
      <point x="205" y="72"/>
      <point x="205" y="142" type="curve" smooth="yes"/>
      <point x="205" y="164" type="line" smooth="yes"/>
      <point x="205" y="187"/>
      <point x="203" y="206"/>
      <point x="198" y="221" type="curve"/>
    </contour>
  </outline>
</glyph>
<glyph name="Abreve" format="1">
  <advance width="319"/>
  <unicode hex="0102"/>
  <outline>
    <contour>
      <point x="231" y="515" type="line"/>
      <point x="231" y="488"/>
      <point x="204" y="458"/>
      <point x="159" y="458" type="curve" smooth="yes"/>
      <point x="115" y="458"/>
      <point x="88" y="488"/>
      <point x="88" y="515" type="curve"/>
      <point x="125" y="515" type="line"/>
      <point x="127" y="506"/>
      <point x="140" y="495"/>
      <point x="159" y="495" type="curve" smooth="yes"/>
      <point x="179" y="495"/>
      <point x="193" y="506"/>
      <point x="194" y="515" type="curve"/>
    </contour>
    <contour>
      <point x="319" y="0" type="line"/>
      <point x="264" y="0" type="line"/>
      <point x="237" y="89" type="line"/>
      <point x="78" y="89" type="line"/>
      <point x="51" y="0" type="line"/>
      <point x="-1" y="0" type="line"/>
      <point x="127" y="399" type="line"/>
      <point x="192" y="399" type="line"/>
    </contour>
    <contour>
      <point x="156" y="358" type="line"/>
      <point x="156" y="358"/>
      <point x="151" y="326"/>
      <point x="147" y="314" type="curve" smooth="yes"/>
      <point x="92" y="136" type="line"/>
      <point x="222" y="136" type="line"/>
      <point x="168" y="314" type="line" smooth="yes"/>
      <point x="163" y="327"/>
      <point x="158" y="358"/>
      <point x="158" y="358" type="curve"/>
    </contour>
  </outline>
</glyph>
<glyph name="Ebreve" format="1">
  <advance width="319"/>
  <unicode hex="0114"/>
  <outline>
    <contour>
      <point x="231" y="515" type="line"/>
      <point x="231" y="488"/>
      <point x="204" y="458"/>
      <point x="159" y="458" type="curve" smooth="yes"/>
      <point x="115" y="458"/>
      <point x="88" y="488"/>
      <point x="88" y="515" type="curve"/>
      <point x="125" y="515" type="line"/>
      <point x="127" y="506"/>
      <point x="140" y="495"/>
      <point x="159" y="495" type="curve" smooth="yes"/>
      <point x="179" y="495"/>
      <point x="193" y="506"/>
      <point x="194" y="515" type="curve"/>
    </contour>
    <contour>
      <point x="41" y="399" type="line"/>
      <point x="287" y="399" type="line"/>
      <point x="287" y="353" type="line"/>
      <point x="92" y="353" type="line"/>
      <point x="92" y="228" type="line"/>
      <point x="262" y="228" type="line"/>
      <point x="262" y="181" type="line"/>
      <point x="92" y="181" type="line"/>
      <point x="92" y="47" type="line"/>
      <point x="291" y="47" type="line"/>
      <point x="291" y="0" type="line"/>
      <point x="41" y="0" type="line"/>
    </contour>
  </outline>
</glyph>
<glyph name="Edotaccent" format="1">
  <advance width="319"/>
  <unicode hex="0116"/>
  <outline>
    <contour>
      <point x="134" y="459" type="line"/>
      <point x="134" y="515" type="line"/>
      <point x="185" y="515" type="line"/>
      <point x="185" y="459" type="line"/>
    </contour>
    <contour>
      <point x="41" y="399" type="line"/>
      <point x="287" y="399" type="line"/>
      <point x="287" y="353" type="line"/>
      <point x="92" y="353" type="line"/>
      <point x="92" y="228" type="line"/>
      <point x="262" y="228" type="line"/>
      <point x="262" y="181" type="line"/>
      <point x="92" y="181" type="line"/>
      <point x="92" y="47" type="line"/>
      <point x="291" y="47" type="line"/>
      <point x="291" y="0" type="line"/>
      <point x="41" y="0" type="line"/>
    </contour>
  </outline>
</glyph>
<glyph name="eogonek" format="1">
  <advance width="266"/>
  <unicode hex="0119"/>
  <outline>
    <contour>
      <point x="241" y="169" type="curve" smooth="yes"/>
      <point x="241" y="139" type="line"/>
      <point x="74" y="139" type="line"/>
      <point x="75" y="68"/>
      <point x="96" y="36"/>
      <point x="142" y="36" type="curve" smooth="yes"/>
      <point x="172" y="36"/>
      <point x="193" y="62"/>
      <point x="193" y="104" type="curve"/>
      <point x="241" y="104" type="line"/>
      <point x="241" y="56"/>
      <point x="220" y="21"/>
      <point x="188" y="4" type="curve" smooth="yes"/>
      <point x="181" y="-4"/>
      <point x="171" y="-20"/>
      <point x="171" y="-36" type="curve" smooth="yes"/>
      <point x="171" y="-53"/>
      <point x="179" y="-68"/>
      <point x="198" y="-68" type="curve" smooth="yes"/>
      <point x="216" y="-68" type="line"/>
      <point x="216" y="-98" type="line"/>
      <point x="204" y="-103"/>
      <point x="192" y="-106"/>
      <point x="181" y="-106" type="curve" smooth="yes"/>
      <point x="156" y="-106"/>
      <point x="126" y="-94"/>
      <point x="126" y="-53" type="curve" smooth="yes"/>
      <point x="126" y="-34"/>
      <point x="132" y="-19"/>
      <point x="140" y="-7" type="curve"/>
      <point x="64" y="-7"/>
      <point x="24" y="40"/>
      <point x="24" y="153" type="curve" smooth="yes"/>
      <point x="24" y="264"/>
      <point x="63" y="314"/>
      <point x="140" y="314" type="curve" smooth="yes"/>
      <point x="207" y="314"/>
      <point x="241" y="272"/>
    </contour>
    <contour>
      <point x="75" y="182" type="curve"/>
      <point x="190" y="182" type="line"/>
      <point x="190" y="240"/>
      <point x="173" y="271"/>
      <point x="140" y="271" type="curve" smooth="yes"/>
      <point x="98" y="271"/>
      <point x="79" y="241"/>
    </contour>
  </outline>
</glyph>
<glyph name="Ecaron" format="1">
  <advance width="319"/>
  <unicode hex="011A"/>
  <outline>
    <contour>
      <point x="136" y="436" type="line"/>
      <point x="87" y="515" type="line"/>
      <point x="133" y="515" type="line"/>
      <point x="159" y="469" type="line"/>
      <point x="185" y="515" type="line"/>
      <point x="232" y="515" type="line"/>
      <point x="182" y="436" type="line"/>
    </contour>
    <contour>
      <point x="41" y="399" type="line"/>
      <point x="287" y="399" type="line"/>
      <point x="287" y="353" type="line"/>
      <point x="92" y="353" type="line"/>
      <point x="92" y="228" type="line"/>
      <point x="262" y="228" type="line"/>
      <point x="262" y="181" type="line"/>
      <point x="92" y="181" type="line"/>
      <point x="92" y="47" type="line"/>
      <point x="291" y="47" type="line"/>
      <point x="291" y="0" type="line"/>
      <point x="41" y="0" type="line"/>
    </contour>
  </outline>
</glyph>
<glyph name="ecaron" format="1">
  <advance width="266"/>
  <unicode hex="011B"/>
  <outline>
    <contour>
      <point x="109" y="343" type="line"/>
      <point x="61" y="421" type="line"/>
      <point x="107" y="421" type="line"/>
      <point x="133" y="375" type="line"/>
      <point x="159" y="421" type="line"/>
      <point x="206" y="421" type="line"/>
      <point x="156" y="343" type="line"/>
    </contour>
    <contour>
      <point x="140" y="314" type="curve" smooth="yes"/>
      <point x="207" y="314"/>
      <point x="241" y="272"/>
      <point x="241" y="169" type="curve" smooth="yes"/>
      <point x="241" y="139" type="line"/>
      <point x="74" y="139" type="line"/>
      <point x="75" y="68"/>
      <point x="96" y="36"/>
      <point x="142" y="36" type="curve" smooth="yes"/>
      <point x="172" y="36"/>
      <point x="193" y="62"/>
      <point x="193" y="104" type="curve"/>
      <point x="241" y="104" type="line"/>
      <point x="241" y="36"/>
      <point x="200" y="-7"/>
      <point x="140" y="-7" type="curve" smooth="yes"/>
      <point x="64" y="-7"/>
      <point x="24" y="40"/>
      <point x="24" y="153" type="curve" smooth="yes"/>
      <point x="24" y="264"/>
      <point x="63" y="314"/>
    </contour>
    <contour>
      <point x="140" y="271" type="curve" smooth="yes"/>
      <point x="98" y="271"/>
      <point x="79" y="241"/>
      <point x="75" y="182" type="curve"/>
      <point x="190" y="182" type="line"/>
      <point x="190" y="240"/>
      <point x="173" y="271"/>
    </contour>
  </outline>
</glyph>
<glyph name="Gbreve" format="1">
  <advance width="372"/>
  <unicode hex="011E"/>
  <outline>
    <contour>
      <point x="186" y="458" type="curve" smooth="yes"/>
      <point x="142" y="458"/>
      <point x="114" y="488"/>
      <point x="114" y="515" type="curve"/>
      <point x="152" y="515" type="line"/>
      <point x="153" y="506"/>
      <point x="167" y="495"/>
      <point x="186" y="495" type="curve" smooth="yes"/>
      <point x="206" y="495"/>
      <point x="219" y="506"/>
      <point x="221" y="515" type="curve"/>
      <point x="258" y="515" type="line"/>
      <point x="258" y="488"/>
      <point x="231" y="458"/>
    </contour>
    <contour>
      <point x="178" y="163" type="line"/>
      <point x="178" y="208" type="line"/>
      <point x="334" y="208" type="line"/>
      <point x="334" y="0" type="line"/>
      <point x="300" y="0" type="line"/>
      <point x="289" y="44" type="line"/>
      <point x="264" y="8"/>
      <point x="229" y="-7"/>
      <point x="186" y="-7" type="curve" smooth="yes"/>
      <point x="85" y="-7"/>
      <point x="28" y="61"/>
      <point x="28" y="200" type="curve" smooth="yes"/>
      <point x="28" y="339"/>
      <point x="89" y="407"/>
      <point x="188" y="407" type="curve" smooth="yes"/>
      <point x="272" y="407"/>
      <point x="334" y="360"/>
      <point x="334" y="264" type="curve"/>
      <point x="281" y="264" type="line"/>
      <point x="281" y="329"/>
      <point x="244" y="359"/>
      <point x="188" y="359" type="curve" smooth="yes"/>
      <point x="123" y="359"/>
      <point x="82" y="312"/>
      <point x="82" y="214" type="curve" smooth="yes"/>
      <point x="82" y="185" type="line" smooth="yes"/>
      <point x="82" y="88"/>
      <point x="119" y="40"/>
      <point x="186" y="40" type="curve" smooth="yes"/>
      <point x="252" y="40"/>
      <point x="281" y="78"/>
      <point x="281" y="154" type="curve" smooth="yes"/>
      <point x="281" y="163" type="line"/>
    </contour>
  </outline>
</glyph>
<glyph name="hcircumflex" format="1">
  <advance width="266"/>
  <unicode hex="0125"/>
  <outline>
    <contour>
      <point x="86" y="435" type="line"/>
      <point x="61" y="481" type="line"/>
      <point x="34" y="435" type="line"/>
      <point x="-13" y="435" type="line"/>
      <point x="38" y="514" type="line"/>
      <point x="83" y="514" type="line"/>
      <point x="133" y="435" type="line"/>
    </contour>
    <contour>
      <point x="86" y="274" type="line"/>
      <point x="102" y="302"/>
      <point x="125" y="314"/>
      <point x="155" y="314" type="curve" smooth="yes"/>
      <point x="201" y="314"/>
      <point x="231" y="289"/>
      <point x="231" y="221" type="curve" smooth="yes"/>
      <point x="231" y="0" type="line"/>
      <point x="183" y="0" type="line"/>
      <point x="183" y="217" type="line" smooth="yes"/>
      <point x="183" y="260"/>
      <point x="165" y="271"/>
      <point x="140" y="271" type="curve" smooth="yes"/>
      <point x="109" y="271"/>
      <point x="83" y="240"/>
      <point x="83" y="187" type="curve" smooth="yes"/>
      <point x="83" y="0" type="line"/>
      <point x="35" y="0" type="line"/>
      <point x="35" y="421" type="line"/>
      <point x="83" y="421" type="line"/>
      <point x="83" y="274" type="line"/>
    </contour>
  </outline>
</glyph>
<glyph name="Itilde" format="1">
  <advance width="133"/>
  <unicode hex="0128"/>
  <outline>
    <contour>
      <point x="152" y="515" type="line"/>
      <point x="152" y="488"/>
      <point x="137" y="454"/>
      <point x="102" y="454" type="curve" smooth="yes"/>
      <point x="89" y="454"/>
      <point x="78" y="459"/>
      <point x="67" y="463" type="curve" smooth="yes"/>
      <point x="57" y="468"/>
      <point x="46" y="472"/>
      <point x="35" y="472" type="curve" smooth="yes"/>
      <point x="24" y="472"/>
      <point x="17" y="467"/>
      <point x="15" y="454" type="curve"/>
      <point x="-18" y="454" type="line"/>
      <point x="-18" y="480"/>
      <point x="-4" y="515"/>
      <point x="31" y="515" type="curve" smooth="yes"/>
      <point x="44" y="515"/>
      <point x="55" y="510"/>
      <point x="66" y="506" type="curve" smooth="yes"/>
      <point x="76" y="501"/>
      <point x="87" y="497"/>
      <point x="98" y="497" type="curve" smooth="yes"/>
      <point x="108" y="497"/>
      <point x="116" y="501"/>
      <point x="118" y="515" type="curve"/>
    </contour>
    <contour>
      <point x="41" y="0" type="line"/>
      <point x="41" y="399" type="line"/>
      <point x="92" y="399" type="line"/>
      <point x="92" y="0" type="line"/>
    </contour>
  </outline>
</glyph>
<glyph name="itilde" format="1">
  <advance width="133"/>
  <unicode hex="0129"/>
  <outline>
    <contour>
      <point x="152" y="421" type="line"/>
      <point x="152" y="394"/>
      <point x="137" y="360"/>
      <point x="102" y="360" type="curve" smooth="yes"/>
      <point x="89" y="360"/>
      <point x="78" y="365"/>
      <point x="67" y="370" type="curve" smooth="yes"/>
      <point x="57" y="374"/>
      <point x="46" y="379"/>
      <point x="35" y="379" type="curve" smooth="yes"/>
      <point x="24" y="379"/>
      <point x="17" y="374"/>
      <point x="15" y="360" type="curve"/>
      <point x="-18" y="360" type="line"/>
      <point x="-18" y="387"/>
      <point x="-4" y="421"/>
      <point x="31" y="421" type="curve" smooth="yes"/>
      <point x="44" y="421"/>
      <point x="55" y="416"/>
      <point x="66" y="412" type="curve" smooth="yes"/>
      <point x="76" y="407"/>
      <point x="87" y="403"/>
      <point x="98" y="403" type="curve" smooth="yes"/>
      <point x="108" y="403"/>
      <point x="116" y="408"/>
      <point x="118" y="421" type="curve"/>
    </contour>
    <contour>
      <point x="43" y="0" type="line"/>
      <point x="43" y="306" type="line"/>
      <point x="90" y="306" type="line"/>
      <point x="90" y="0" type="line"/>
    </contour>
  </outline>
</glyph>
<glyph name="imacron" format="1">
  <advance width="133"/>
  <unicode hex="012B"/>
  <outline>
    <contour>
      <point x="-7" y="349" type="line"/>
      <point x="-7" y="391" type="line"/>
      <point x="140" y="391" type="line"/>
      <point x="140" y="349" type="line"/>
    </contour>
    <contour>
      <point x="43" y="0" type="line"/>
      <point x="43" y="306" type="line"/>
      <point x="90" y="306" type="line"/>
      <point x="90" y="0" type="line"/>
    </contour>
  </outline>
</glyph>
<glyph name="ibreve" format="1">
  <advance width="133"/>
  <unicode hex="012D"/>
  <outline>
    <contour>
      <point x="138" y="421" type="line"/>
      <point x="138" y="395"/>
      <point x="111" y="364"/>
      <point x="67" y="364" type="curve" smooth="yes"/>
      <point x="22" y="364"/>
      <point x="-6" y="395"/>
      <point x="-6" y="421" type="curve"/>
      <point x="32" y="421" type="line"/>
      <point x="34" y="413"/>
      <point x="47" y="402"/>
      <point x="67" y="402" type="curve" smooth="yes"/>
      <point x="86" y="402"/>
      <point x="100" y="413"/>
      <point x="101" y="421" type="curve"/>
    </contour>
    <contour>
      <point x="43" y="0" type="line"/>
      <point x="43" y="306" type="line"/>
      <point x="90" y="306" type="line"/>
      <point x="90" y="0" type="line"/>
    </contour>
  </outline>
</glyph>
<glyph name="Iogonek" format="1">
  <advance width="133"/>
  <unicode hex="012E"/>
  <outline>
    <contour>
      <point x="92" y="0" type="line"/>
      <point x="92" y="0"/>
      <point x="91" y="-1"/>
      <point x="91" y="-1" type="curve" smooth="yes"/>
      <point x="85" y="-10"/>
      <point x="78" y="-21"/>
      <point x="78" y="-36" type="curve" smooth="yes"/>
      <point x="78" y="-53"/>
      <point x="86" y="-68"/>
      <point x="105" y="-68" type="curve" smooth="yes"/>
      <point x="123" y="-68" type="line"/>
      <point x="123" y="-98" type="line"/>
      <point x="111" y="-103"/>
      <point x="100" y="-106"/>
      <point x="88" y="-106" type="curve" smooth="yes"/>
      <point x="63" y="-106"/>
      <point x="33" y="-94"/>
      <point x="33" y="-53" type="curve" smooth="yes"/>
      <point x="33" y="-28"/>
      <point x="42" y="-13"/>
      <point x="54" y="0" type="curve"/>
      <point x="41" y="0" type="line"/>
      <point x="41" y="399" type="line"/>
      <point x="92" y="399" type="line"/>
    </contour>
  </outline>
</glyph>
<glyph name="dotlessi" format="1">
  <advance width="133"/>
  <unicode hex="0131"/>
  <outline>
    <contour>
      <point x="0" y="0" type="move" name="Anchor-1"/>
    </contour>
    <contour>
      <point x="67" y="306" type="move" name="Anchor-0"/>
    </contour>
    <contour>
      <point x="43" y="0" type="line"/>
      <point x="43" y="306" type="line"/>
      <point x="90" y="306" type="line"/>
      <point x="90" y="0" type="line"/>
    </contour>
  </outline>
</glyph>
<glyph name="ij" format="1">
  <advance width="212"/>
  <unicode hex="0133"/>
  <outline>
    <contour>
      <point x="77" y="364" type="line"/>
      <point x="29" y="364" type="line"/>
      <point x="29" y="421" type="line"/>
      <point x="77" y="421" type="line"/>
    </contour>
    <contour>
      <point x="183" y="364" type="line"/>
      <point x="135" y="364" type="line"/>
      <point x="135" y="421" type="line"/>
      <point x="183" y="421" type="line"/>
    </contour>
    <contour>
      <point x="77" y="0" type="line"/>
      <point x="29" y="0" type="line"/>
      <point x="29" y="306" type="line"/>
      <point x="77" y="306" type="line"/>
    </contour>
    <contour>
      <point x="183" y="-36" type="line" smooth="yes"/>
      <point x="183" y="-71"/>
      <point x="169" y="-106"/>
      <point x="123" y="-106" type="curve" smooth="yes"/>
      <point x="108" y="-106"/>
      <point x="92" y="-103"/>
      <point x="82" y="-99" type="curve"/>
      <point x="82" y="-66" type="line"/>
      <point x="108" y="-66" type="line" smooth="yes"/>
      <point x="126" y="-66"/>
      <point x="135" y="-56"/>
      <point x="135" y="-38" type="curve" smooth="yes"/>
      <point x="135" y="306" type="line"/>
      <point x="183" y="306" type="line"/>
    </contour>
  </outline>
</glyph>
<glyph name="Jcircumflex" format="1">
  <advance width="239"/>
  <unicode hex="0134"/>
  <outline>
    <contour>
      <point x="248" y="435" type="line"/>
      <point x="202" y="435" type="line"/>
      <point x="177" y="481" type="line"/>
      <point x="150" y="435" type="line"/>
      <point x="103" y="435" type="line"/>
      <point x="153" y="514" type="line"/>
      <point x="198" y="514" type="line"/>
    </contour>
    <contour>
      <point x="201" y="95" type="line" smooth="yes"/>
      <point x="201" y="28"/>
      <point x="165" y="-7"/>
      <point x="104" y="-7" type="curve" smooth="yes"/>
      <point x="43" y="-7"/>
      <point x="7" y="28"/>
      <point x="7" y="95" type="curve" smooth="yes"/>
      <point x="7" y="121" type="line"/>
      <point x="59" y="121" type="line"/>
      <point x="59" y="92" type="line" smooth="yes"/>
      <point x="59" y="58"/>
      <point x="75" y="40"/>
      <point x="104" y="40" type="curve" smooth="yes"/>
      <point x="133" y="40"/>
      <point x="150" y="58"/>
      <point x="150" y="92" type="curve" smooth="yes"/>
      <point x="150" y="399" type="line"/>
      <point x="201" y="399" type="line"/>
    </contour>
  </outline>
</glyph>
<glyph name="Kcommaaccent" format="1">
  <advance width="319"/>
  <unicode hex="0136"/>
  <outline>
    <contour>
      <point x="250" y="399" type="line"/>
      <point x="308" y="399" type="line"/>
      <point x="188" y="239" type="line"/>
      <point x="312" y="0" type="line"/>
      <point x="254" y="0" type="line"/>
      <point x="156" y="195" type="line"/>
      <point x="92" y="124" type="line"/>
      <point x="92" y="0" type="line"/>
      <point x="41" y="0" type="line"/>
      <point x="41" y="399" type="line"/>
      <point x="92" y="399" type="line"/>
      <point x="92" y="188" type="line"/>
    </contour>
    <contour>
      <point x="167" y="-129" type="line"/>
      <point x="142" y="-129" type="line"/>
      <point x="154" y="-88" type="line"/>
      <point x="134" y="-88" type="line"/>
      <point x="134" y="-35" type="line"/>
      <point x="184" y="-35" type="line"/>
      <point x="184" y="-84" type="line"/>
    </contour>
  </outline>
</glyph>
<glyph name="kcommaaccent" format="1">
  <advance width="239"/>
  <unicode hex="0137"/>
  <outline>
    <contour>
      <point x="182" y="306" type="line"/>
      <point x="235" y="306" type="line"/>
      <point x="144" y="181" type="line"/>
      <point x="239" y="0" type="line"/>
      <point x="185" y="0" type="line"/>
      <point x="115" y="140" type="line"/>
      <point x="83" y="104" type="line"/>
      <point x="83" y="0" type="line"/>
      <point x="35" y="0" type="line"/>
      <point x="35" y="421" type="line"/>
      <point x="83" y="421" type="line"/>
      <point x="83" y="164" type="line"/>
    </contour>
    <contour>
      <point x="128" y="-129" type="line"/>
      <point x="101" y="-129" type="line"/>
      <point x="115" y="-88" type="line"/>
      <point x="95" y="-88" type="line"/>
      <point x="95" y="-35" type="line"/>
      <point x="144" y="-35" type="line"/>
      <point x="144" y="-84" type="line"/>
    </contour>
  </outline>
</glyph>
<glyph name="lacute" format="1">
  <advance width="106"/>
  <unicode hex="013A"/>
  <outline>
    <contour>
      <point x="121" y="513" type="line"/>
      <point x="59" y="438" type="line"/>
      <point x="18" y="438" type="line"/>
      <point x="69" y="515" type="line"/>
      <point x="121" y="515" type="line"/>
    </contour>
    <contour>
      <point x="77" y="0" type="line"/>
      <point x="29" y="0" type="line"/>
      <point x="29" y="421" type="line"/>
      <point x="77" y="421" type="line"/>
    </contour>
  </outline>
</glyph>
<glyph name="Lcommaaccent" format="1">
  <advance width="266"/>
  <unicode hex="013B"/>
  <outline>
    <contour>
      <point x="92" y="47" type="line"/>
      <point x="255" y="47" type="line"/>
      <point x="255" y="0" type="line"/>
      <point x="41" y="0" type="line"/>
      <point x="41" y="399" type="line"/>
      <point x="92" y="399" type="line"/>
    </contour>
    <contour>
      <point x="158" y="-84" type="line"/>
      <point x="141" y="-129" type="line"/>
      <point x="115" y="-129" type="line"/>
      <point x="128" y="-88" type="line"/>
      <point x="108" y="-88" type="line"/>
      <point x="108" y="-35" type="line"/>
      <point x="158" y="-35" type="line"/>
    </contour>
  </outline>
</glyph>
<glyph name="lcaron" format="1">
  <advance width="139"/>
  <unicode hex="013E"/>
  <outline>
    <contour>
      <point x="29" y="0" type="line"/>
      <point x="29" y="421" type="line"/>
      <point x="77" y="421" type="line"/>
      <point x="77" y="0" type="line"/>
    </contour>
    <contour>
      <point x="130" y="264" type="line"/>
      <point x="100" y="264" type="line"/>
      <point x="123" y="337" type="line"/>
      <point x="100" y="337" type="line"/>
      <point x="100" y="399" type="line"/>
      <point x="158" y="399" type="line"/>
      <point x="158" y="342" type="line"/>
    </contour>
  </outline>
</glyph>
<glyph name="Ldot" format="1">
  <advance width="266"/>
  <unicode hex="013F"/>
  <outline>
    <contour>
      <point x="92" y="47" type="line"/>
      <point x="255" y="47" type="line"/>
      <point x="255" y="0" type="line"/>
      <point x="41" y="0" type="line"/>
      <point x="41" y="399" type="line"/>
      <point x="92" y="399" type="line"/>
    </contour>
    <contour>
      <point x="231" y="241" type="line"/>
      <point x="172" y="241" type="line"/>
      <point x="172" y="306" type="line"/>
      <point x="231" y="306" type="line"/>
    </contour>
  </outline>
</glyph>
<glyph name="Lslash" format="1">
  <advance width="266"/>
  <unicode hex="0141"/>
  <outline>
    <contour>
      <point x="92" y="230" type="line"/>
      <point x="172" y="301" type="line"/>
      <point x="172" y="258" type="line"/>
      <point x="92" y="188" type="line"/>
      <point x="92" y="47" type="line"/>
      <point x="255" y="47" type="line"/>
      <point x="255" y="0" type="line"/>
      <point x="41" y="0" type="line"/>
      <point x="41" y="143" type="line"/>
      <point x="0" y="107" type="line"/>
      <point x="0" y="148" type="line"/>
      <point x="41" y="185" type="line"/>
      <point x="41" y="399" type="line"/>
      <point x="92" y="399" type="line"/>
    </contour>
  </outline>
</glyph>
<glyph name="Ncaron" format="1">
  <advance width="345"/>
  <unicode hex="0147"/>
  <outline>
    <contour>
      <point x="194" y="436" type="line"/>
      <point x="149" y="436" type="line"/>
      <point x="100" y="515" type="line"/>
      <point x="146" y="515" type="line"/>
      <point x="173" y="469" type="line"/>
      <point x="198" y="515" type="line"/>
      <point x="245" y="515" type="line"/>
    </contour>
    <contour>
      <point x="304" y="0" type="line"/>
      <point x="262" y="0" type="line"/>
      <point x="112" y="254" type="line" smooth="yes"/>
      <point x="102" y="272"/>
      <point x="86" y="308"/>
      <point x="86" y="308" type="curve"/>
      <point x="84" y="308" type="line"/>
      <point x="84" y="308"/>
      <point x="87" y="271"/>
      <point x="87" y="254" type="curve" smooth="yes"/>
      <point x="87" y="0" type="line"/>
      <point x="41" y="0" type="line"/>
      <point x="41" y="399" type="line"/>
      <point x="85" y="399" type="line"/>
      <point x="233" y="148" type="line" smooth="yes"/>
      <point x="243" y="133"/>
      <point x="258" y="95"/>
      <point x="258" y="95" type="curve"/>
      <point x="260" y="96" type="line"/>
      <point x="260" y="96"/>
      <point x="258" y="136"/>
      <point x="258" y="148" type="curve" smooth="yes"/>
      <point x="258" y="399" type="line"/>
      <point x="304" y="399" type="line"/>
    </contour>
  </outline>
</glyph>
<glyph name="ncaron" format="1">
  <advance width="266"/>
  <unicode hex="0148"/>
  <outline>
    <contour>
      <point x="109" y="343" type="line"/>
      <point x="61" y="421" type="line"/>
      <point x="107" y="421" type="line"/>
      <point x="133" y="375" type="line"/>
      <point x="159" y="421" type="line"/>
      <point x="206" y="421" type="line"/>
      <point x="156" y="343" type="line"/>
    </contour>
    <contour>
      <point x="155" y="314" type="curve" smooth="yes"/>
      <point x="201" y="314"/>
      <point x="231" y="289"/>
      <point x="231" y="221" type="curve" smooth="yes"/>
      <point x="231" y="0" type="line"/>
      <point x="183" y="0" type="line"/>
      <point x="183" y="217" type="line" smooth="yes"/>
      <point x="183" y="260"/>
      <point x="165" y="271"/>
      <point x="140" y="271" type="curve" smooth="yes"/>
      <point x="109" y="271"/>
      <point x="83" y="240"/>
      <point x="83" y="187" type="curve" smooth="yes"/>
      <point x="83" y="0" type="line"/>
      <point x="35" y="0" type="line"/>
      <point x="35" y="306" type="line"/>
      <point x="71" y="306" type="line"/>
      <point x="78" y="271" type="line"/>
      <point x="81" y="271" type="line"/>
      <point x="98" y="301"/>
      <point x="125" y="314"/>
    </contour>
  </outline>
</glyph>
<glyph name="napostrophe" format="1">
  <advance width="334"/>
  <unicode hex="0149"/>
  <outline>
    <contour>
      <point x="78" y="350" type="line"/>
      <point x="61" y="304" type="line"/>
      <point x="34" y="304" type="line"/>
      <point x="47" y="346" type="line"/>
      <point x="28" y="346" type="line"/>
      <point x="28" y="399" type="line"/>
      <point x="78" y="399" type="line"/>
    </contour>
    <contour>
      <point x="223" y="314" type="curve" smooth="yes"/>
      <point x="269" y="314"/>
      <point x="299" y="289"/>
      <point x="299" y="221" type="curve" smooth="yes"/>
      <point x="299" y="0" type="line"/>
      <point x="251" y="0" type="line"/>
      <point x="251" y="217" type="line" smooth="yes"/>
      <point x="251" y="260"/>
      <point x="233" y="271"/>
      <point x="208" y="271" type="curve" smooth="yes"/>
      <point x="178" y="271"/>
      <point x="151" y="240"/>
      <point x="151" y="187" type="curve" smooth="yes"/>
      <point x="151" y="0" type="line"/>
      <point x="103" y="0" type="line"/>
      <point x="103" y="306" type="line"/>
      <point x="139" y="306" type="line"/>
      <point x="146" y="271" type="line"/>
      <point x="149" y="271" type="line"/>
      <point x="166" y="301"/>
      <point x="193" y="314"/>
    </contour>
  </outline>
</glyph>
<glyph name="eng" format="1">
  <advance width="266"/>
  <unicode hex="014B"/>
  <outline>
    <contour>
      <point x="155" y="314" type="curve" smooth="yes"/>
      <point x="201" y="314"/>
      <point x="231" y="289"/>
      <point x="231" y="221" type="curve" smooth="yes"/>
      <point x="231" y="-36" type="line" smooth="yes"/>
      <point x="231" y="-71"/>
      <point x="217" y="-106"/>
      <point x="170" y="-106" type="curve" smooth="yes"/>
      <point x="156" y="-106"/>
      <point x="140" y="-103"/>
      <point x="130" y="-99" type="curve"/>
      <point x="130" y="-66" type="line"/>
      <point x="156" y="-66" type="line" smooth="yes"/>
      <point x="173" y="-66"/>
      <point x="183" y="-56"/>
      <point x="183" y="-38" type="curve" smooth="yes"/>
      <point x="183" y="217" type="line" smooth="yes"/>
      <point x="183" y="260"/>
      <point x="165" y="271"/>
      <point x="140" y="271" type="curve" smooth="yes"/>
      <point x="109" y="271"/>
      <point x="83" y="240"/>
      <point x="83" y="187" type="curve" smooth="yes"/>
      <point x="83" y="0" type="line"/>
      <point x="35" y="0" type="line"/>
      <point x="35" y="306" type="line"/>
      <point x="71" y="306" type="line"/>
      <point x="78" y="271" type="line"/>
      <point x="81" y="271" type="line"/>
      <point x="98" y="301"/>
      <point x="125" y="314"/>
    </contour>
  </outline>
</glyph>
<glyph name="Rcaron" format="1">
  <advance width="345"/>
  <unicode hex="0158"/>
  <outline>
    <contour>
      <point x="194" y="436" type="line"/>
      <point x="149" y="436" type="line"/>
      <point x="100" y="515" type="line"/>
      <point x="146" y="515" type="line"/>
      <point x="173" y="469" type="line"/>
      <point x="198" y="515" type="line"/>
      <point x="245" y="515" type="line"/>
    </contour>
    <contour>
      <point x="202" y="399" type="line" smooth="yes"/>
      <point x="280" y="399"/>
      <point x="321" y="355"/>
      <point x="321" y="289" type="curve" smooth="yes"/>
      <point x="321" y="239"/>
      <point x="295" y="201"/>
      <point x="250" y="186" type="curve"/>
      <point x="330" y="0" type="line"/>
      <point x="273" y="0" type="line"/>
      <point x="199" y="177" type="line"/>
      <point x="92" y="177" type="line"/>
      <point x="92" y="0" type="line"/>
      <point x="41" y="0" type="line"/>
      <point x="41" y="399" type="line"/>
    </contour>
    <contour>
      <point x="92" y="353" type="line"/>
      <point x="92" y="223" type="line"/>
      <point x="200" y="223" type="line" smooth="yes"/>
      <point x="241" y="223"/>
      <point x="268" y="249"/>
      <point x="268" y="289" type="curve" smooth="yes"/>
      <point x="268" y="329"/>
      <point x="244" y="353"/>
      <point x="200" y="353" type="curve" smooth="yes"/>
    </contour>
  </outline>
</glyph>
<glyph name="scedilla" format="1">
  <advance width="239"/>
  <unicode hex="015F"/>
  <outline>
    <contour>
      <point x="122" y="314" type="curve" smooth="yes"/>
      <point x="179" y="314"/>
      <point x="210" y="275"/>
      <point x="210" y="229" type="curve" smooth="yes"/>
      <point x="210" y="226"/>
      <point x="210" y="223"/>
      <point x="209" y="220" type="curve" smooth="yes"/>
      <point x="209" y="219"/>
      <point x="209" y="218"/>
      <point x="209" y="218" type="curve"/>
      <point x="159" y="218" type="line"/>
      <point x="159" y="223" type="line" smooth="yes"/>
      <point x="159" y="248"/>
      <point x="150" y="272"/>
      <point x="117" y="272" type="curve" smooth="yes"/>
      <point x="83" y="272"/>
      <point x="76" y="246"/>
      <point x="76" y="229" type="curve" smooth="yes"/>
      <point x="76" y="200"/>
      <point x="102" y="192"/>
      <point x="131" y="181" type="curve" smooth="yes"/>
      <point x="170" y="168"/>
      <point x="215" y="153"/>
      <point x="215" y="88" type="curve" smooth="yes"/>
      <point x="215" y="26"/>
      <point x="179" y="-3"/>
      <point x="129" y="-7" type="curve"/>
      <point x="127" y="-21" type="line"/>
      <point x="152" y="-22"/>
      <point x="174" y="-32"/>
      <point x="174" y="-59" type="curve" smooth="yes"/>
      <point x="174" y="-98"/>
      <point x="138" y="-106"/>
      <point x="113" y="-106" type="curve" smooth="yes"/>
      <point x="98" y="-106"/>
      <point x="78" y="-104"/>
      <point x="65" y="-101" type="curve"/>
      <point x="65" y="-73" type="line"/>
      <point x="109" y="-73" type="line" smooth="yes"/>
      <point x="122" y="-73"/>
      <point x="130" y="-70"/>
      <point x="130" y="-59" type="curve" smooth="yes"/>
      <point x="130" y="-49"/>
      <point x="125" y="-45"/>
      <point x="110" y="-45" type="curve" smooth="yes"/>
      <point x="91" y="-45" type="line"/>
      <point x="97" y="-6" type="line"/>
      <point x="42" y="2"/>
      <point x="19" y="42"/>
      <point x="19" y="83" type="curve" smooth="yes"/>
      <point x="19" y="88"/>
      <point x="19" y="91"/>
      <point x="20" y="94" type="curve" smooth="yes"/>
      <point x="20" y="95"/>
      <point x="20" y="95"/>
      <point x="20" y="96" type="curve" smooth="yes"/>
      <point x="70" y="96" type="line"/>
      <point x="70" y="90" type="line" smooth="yes"/>
      <point x="70" y="51"/>
      <point x="92" y="35"/>
      <point x="120" y="35" type="curve" smooth="yes"/>
      <point x="145" y="35"/>
      <point x="166" y="51"/>
      <point x="166" y="80" type="curve" smooth="yes"/>
      <point x="166" y="116"/>
      <point x="137" y="126"/>
      <point x="105" y="138" type="curve" smooth="yes"/>
      <point x="67" y="151"/>
      <point x="26" y="166"/>
      <point x="26" y="226" type="curve" smooth="yes"/>
      <point x="26" y="280"/>
      <point x="63" y="314"/>
    </contour>
  </outline>
</glyph>
<glyph name="Scaron" format="1">
  <advance width="319"/>
  <unicode hex="0160"/>
  <outline>
    <contour>
      <point x="136" y="436" type="line"/>
      <point x="87" y="515" type="line"/>
      <point x="133" y="515" type="line"/>
      <point x="159" y="469" type="line"/>
      <point x="185" y="515" type="line"/>
      <point x="232" y="515" type="line"/>
      <point x="182" y="436" type="line"/>
    </contour>
    <contour>
      <point x="159" y="407" type="curve" smooth="yes"/>
      <point x="229" y="407"/>
      <point x="284" y="374"/>
      <point x="284" y="294" type="curve" smooth="yes"/>
      <point x="284" y="287" type="line"/>
      <point x="231" y="287" type="line"/>
      <point x="231" y="296" type="line" smooth="yes"/>
      <point x="231" y="337"/>
      <point x="200" y="359"/>
      <point x="160" y="359" type="curve" smooth="yes"/>
      <point x="118" y="359"/>
      <point x="86" y="342"/>
      <point x="86" y="304" type="curve" smooth="yes"/>
      <point x="86" y="261"/>
      <point x="129" y="247"/>
      <point x="175" y="231" type="curve" smooth="yes"/>
      <point x="232" y="213"/>
      <point x="294" y="192"/>
      <point x="294" y="115" type="curve" smooth="yes"/>
      <point x="294" y="26"/>
      <point x="236" y="-7"/>
      <point x="158" y="-7" type="curve" smooth="yes"/>
      <point x="86" y="-7"/>
      <point x="24" y="25"/>
      <point x="24" y="113" type="curve" smooth="yes"/>
      <point x="24" y="125" type="line"/>
      <point x="78" y="125" type="line"/>
      <point x="77" y="113" type="line"/>
      <point x="77" y="63"/>
      <point x="111" y="40"/>
      <point x="156" y="40" type="curve" smooth="yes"/>
      <point x="210" y="40"/>
      <point x="240" y="63"/>
      <point x="240" y="107" type="curve" smooth="yes"/>
      <point x="240" y="153"/>
      <point x="197" y="167"/>
      <point x="150" y="182" type="curve" smooth="yes"/>
      <point x="94" y="201"/>
      <point x="32" y="221"/>
      <point x="32" y="299" type="curve" smooth="yes"/>
      <point x="32" y="373"/>
      <point x="89" y="407"/>
    </contour>
  </outline>
</glyph>
<glyph name="tcaron" format="1">
  <advance width="179"/>
  <unicode hex="0165"/>
  <outline>
    <contour>
      <point x="177" y="264" type="line"/>
      <point x="147" y="264" type="line"/>
      <point x="170" y="337" type="line"/>
      <point x="147" y="337" type="line"/>
      <point x="147" y="399" type="line"/>
      <point x="206" y="399" type="line"/>
      <point x="206" y="342" type="line"/>
    </contour>
    <contour>
      <point x="123" y="306" type="line"/>
      <point x="123" y="264" type="line"/>
      <point x="82" y="264" type="line"/>
      <point x="82" y="63" type="line" smooth="yes"/>
      <point x="82" y="45"/>
      <point x="92" y="36"/>
      <point x="109" y="36" type="curve" smooth="yes"/>
      <point x="123" y="36" type="line"/>
      <point x="123" y="3" type="line"/>
      <point x="115" y="-3"/>
      <point x="101" y="-6"/>
      <point x="89" y="-6" type="curve" smooth="yes"/>
      <point x="47" y="-6"/>
      <point x="34" y="30"/>
      <point x="34" y="65" type="curve" smooth="yes"/>
      <point x="34" y="264" type="line"/>
      <point x="8" y="264" type="line"/>
      <point x="8" y="306" type="line"/>
      <point x="34" y="306" type="line"/>
      <point x="45" y="391" type="line"/>
      <point x="82" y="391" type="line"/>
      <point x="82" y="306" type="line"/>
    </contour>
  </outline>
</glyph>
<glyph name="Tbar" format="1">
  <advance width="292"/>
  <unicode hex="0166"/>
  <outline>
    <contour>
      <point x="280" y="353" type="line"/>
      <point x="171" y="353" type="line"/>
      <point x="171" y="229" type="line"/>
      <point x="248" y="229" type="line"/>
      <point x="248" y="186" type="line"/>
      <point x="171" y="186" type="line"/>
      <point x="171" y="0" type="line"/>
      <point x="120" y="0" type="line"/>
      <point x="120" y="186" type="line"/>
      <point x="45" y="186" type="line"/>
      <point x="45" y="229" type="line"/>
      <point x="120" y="229" type="line"/>
      <point x="120" y="353" type="line"/>
      <point x="11" y="353" type="line"/>
      <point x="11" y="399" type="line"/>
      <point x="280" y="399" type="line"/>
    </contour>
  </outline>
</glyph>
<glyph name="Utilde" format="1">
  <advance width="345"/>
  <unicode hex="0168"/>
  <outline>
    <contour>
      <point x="258" y="515" type="line"/>
      <point x="258" y="488"/>
      <point x="243" y="454"/>
      <point x="208" y="454" type="curve" smooth="yes"/>
      <point x="195" y="454"/>
      <point x="184" y="459"/>
      <point x="172" y="463" type="curve" smooth="yes"/>
      <point x="162" y="468"/>
      <point x="152" y="472"/>
      <point x="141" y="472" type="curve" smooth="yes"/>
      <point x="130" y="472"/>
      <point x="123" y="467"/>
      <point x="121" y="454" type="curve"/>
      <point x="88" y="454" type="line"/>
      <point x="88" y="480"/>
      <point x="102" y="515"/>
      <point x="137" y="515" type="curve" smooth="yes"/>
      <point x="150" y="515"/>
      <point x="161" y="510"/>
      <point x="172" y="506" type="curve" smooth="yes"/>
      <point x="182" y="501"/>
      <point x="193" y="497"/>
      <point x="204" y="497" type="curve" smooth="yes"/>
      <point x="214" y="497"/>
      <point x="222" y="501"/>
      <point x="223" y="515" type="curve"/>
    </contour>
    <contour>
      <point x="304" y="130" type="line" smooth="yes"/>
      <point x="304" y="40"/>
      <point x="254" y="-7"/>
      <point x="173" y="-7" type="curve" smooth="yes"/>
      <point x="90" y="-7"/>
      <point x="41" y="40"/>
      <point x="41" y="130" type="curve" smooth="yes"/>
      <point x="41" y="399" type="line"/>
      <point x="92" y="399" type="line"/>
      <point x="92" y="127" type="line" smooth="yes"/>
      <point x="92" y="71"/>
      <point x="123" y="40"/>
      <point x="173" y="40" type="curve" smooth="yes"/>
      <point x="223" y="40"/>
      <point x="253" y="71"/>
      <point x="253" y="127" type="curve" smooth="yes"/>
      <point x="253" y="399" type="line"/>
      <point x="304" y="399" type="line"/>
    </contour>
  </outline>
</glyph>
<glyph name="ubreve" format="1">
  <advance width="266"/>
  <unicode hex="016D"/>
  <outline>
    <contour>
      <point x="205" y="421" type="line"/>
      <point x="205" y="395"/>
      <point x="178" y="364"/>
      <point x="133" y="364" type="curve" smooth="yes"/>
      <point x="88" y="364"/>
      <point x="61" y="395"/>
      <point x="61" y="421" type="curve"/>
      <point x="98" y="421" type="line"/>
      <point x="100" y="413"/>
      <point x="113" y="402"/>
      <point x="133" y="402" type="curve" smooth="yes"/>
      <point x="153" y="402"/>
      <point x="167" y="413"/>
      <point x="168" y="421" type="curve"/>
    </contour>
    <contour>
      <point x="194" y="0" type="line"/>
      <point x="188" y="36" type="line"/>
      <point x="185" y="36" type="line"/>
      <point x="168" y="5"/>
      <point x="141" y="-7"/>
      <point x="111" y="-7" type="curve" smooth="yes"/>
      <point x="65" y="-7"/>
      <point x="35" y="18"/>
      <point x="35" y="86" type="curve" smooth="yes"/>
      <point x="35" y="306" type="line"/>
      <point x="83" y="306" type="line"/>
      <point x="83" y="89" type="line" smooth="yes"/>
      <point x="83" y="47"/>
      <point x="100" y="36"/>
      <point x="126" y="36" type="curve" smooth="yes"/>
      <point x="156" y="36"/>
      <point x="183" y="67"/>
      <point x="183" y="119" type="curve" smooth="yes"/>
      <point x="183" y="306" type="line"/>
      <point x="231" y="306" type="line"/>
      <point x="231" y="0" type="line"/>
    </contour>
  </outline>
</glyph>
<glyph name="Uring" format="1">
  <advance width="345"/>
  <unicode hex="016E"/>
  <outline>
    <contour>
      <point x="173" y="533" type="curve" smooth="yes"/>
      <point x="204" y="533"/>
      <point x="229" y="507"/>
      <point x="229" y="477" type="curve" smooth="yes"/>
      <point x="229" y="446"/>
      <point x="204" y="421"/>
      <point x="173" y="421" type="curve" smooth="yes"/>
      <point x="142" y="421"/>
      <point x="117" y="445"/>
      <point x="117" y="477" type="curve" smooth="yes"/>
      <point x="117" y="508"/>
      <point x="142" y="533"/>
    </contour>
    <contour>
      <point x="173" y="507" type="curve" smooth="yes"/>
      <point x="156" y="507"/>
      <point x="143" y="494"/>
      <point x="143" y="477" type="curve" smooth="yes"/>
      <point x="143" y="461"/>
      <point x="156" y="447"/>
      <point x="173" y="447" type="curve" smooth="yes"/>
      <point x="188" y="447"/>
      <point x="202" y="461"/>
      <point x="202" y="477" type="curve" smooth="yes"/>
      <point x="202" y="494"/>
      <point x="188" y="507"/>
    </contour>
    <contour>
      <point x="304" y="130" type="line" smooth="yes"/>
      <point x="304" y="40"/>
      <point x="254" y="-7"/>
      <point x="173" y="-7" type="curve" smooth="yes"/>
      <point x="90" y="-7"/>
      <point x="41" y="40"/>
      <point x="41" y="130" type="curve" smooth="yes"/>
      <point x="41" y="399" type="line"/>
      <point x="92" y="399" type="line"/>
      <point x="92" y="127" type="line" smooth="yes"/>
      <point x="92" y="71"/>
      <point x="123" y="40"/>
      <point x="173" y="40" type="curve" smooth="yes"/>
      <point x="223" y="40"/>
      <point x="253" y="71"/>
      <point x="253" y="127" type="curve" smooth="yes"/>
      <point x="253" y="399" type="line"/>
      <point x="304" y="399" type="line"/>
    </contour>
  </outline>
</glyph>
<glyph name="Uogonek" format="1">
  <advance width="345"/>
  <unicode hex="0172"/>
  <outline>
    <contour>
      <point x="253" y="399" type="line"/>
      <point x="304" y="399" type="line"/>
      <point x="304" y="130" type="line" smooth="yes"/>
      <point x="304" y="64"/>
      <point x="277" y="22"/>
      <point x="231" y="3" type="curve"/>
      <point x="224" y="-5"/>
      <point x="215" y="-20"/>
      <point x="215" y="-36" type="curve" smooth="yes"/>
      <point x="215" y="-53"/>
      <point x="223" y="-68"/>
      <point x="243" y="-68" type="curve" smooth="yes"/>
      <point x="260" y="-68" type="line"/>
      <point x="260" y="-98" type="line"/>
      <point x="248" y="-103"/>
      <point x="237" y="-106"/>
      <point x="225" y="-106" type="curve" smooth="yes"/>
      <point x="200" y="-106"/>
      <point x="170" y="-94"/>
      <point x="170" y="-53" type="curve" smooth="yes"/>
      <point x="170" y="-34"/>
      <point x="177" y="-19"/>
      <point x="186" y="-7" type="curve"/>
      <point x="173" y="-7" type="line" smooth="yes"/>
      <point x="90" y="-7"/>
      <point x="41" y="40"/>
      <point x="41" y="130" type="curve" smooth="yes"/>
      <point x="41" y="399" type="line"/>
      <point x="92" y="399" type="line"/>
      <point x="92" y="127" type="line" smooth="yes"/>
      <point x="92" y="71"/>
      <point x="123" y="40"/>
      <point x="173" y="40" type="curve" smooth="yes"/>
      <point x="223" y="40"/>
      <point x="253" y="71"/>
      <point x="253" y="127" type="curve" smooth="yes"/>
    </contour>
  </outline>
</glyph>
<glyph name="Ydieresis" format="1">
  <advance width="319"/>
  <unicode hex="0178"/>
  <outline>
    <contour>
      <point x="141" y="459" type="line"/>
      <point x="90" y="459" type="line"/>
      <point x="90" y="515" type="line"/>
      <point x="141" y="515" type="line"/>
    </contour>
    <contour>
      <point x="229" y="459" type="line"/>
      <point x="178" y="459" type="line"/>
      <point x="178" y="515" type="line"/>
      <point x="229" y="515" type="line"/>
    </contour>
    <contour>
      <point x="185" y="165" type="line"/>
      <point x="185" y="0" type="line"/>
      <point x="134" y="0" type="line"/>
      <point x="134" y="165" type="line"/>
      <point x="5" y="399" type="line"/>
      <point x="61" y="399" type="line"/>
      <point x="163" y="214" type="line"/>
      <point x="165" y="214" type="line"/>
      <point x="264" y="399" type="line"/>
      <point x="314" y="399" type="line"/>
    </contour>
  </outline>
</glyph>
<glyph name="zdotaccent" format="1">
  <advance width="239"/>
  <unicode hex="017C"/>
  <outline>
    <contour>
      <point x="94" y="366" type="line"/>
      <point x="94" y="421" type="line"/>
      <point x="145" y="421" type="line"/>
      <point x="145" y="366" type="line"/>
    </contour>
    <contour>
      <point x="80" y="43" type="line"/>
      <point x="223" y="43" type="line"/>
      <point x="223" y="0" type="line"/>
      <point x="15" y="0" type="line"/>
      <point x="15" y="22" type="line"/>
      <point x="150" y="264" type="line"/>
      <point x="24" y="264" type="line"/>
      <point x="24" y="306" type="line"/>
      <point x="215" y="306" type="line"/>
      <point x="215" y="284" type="line"/>
    </contour>
  </outline>
</glyph>
<glyph name="Zcaron" format="1">
  <advance width="292"/>
  <unicode hex="017D"/>
  <outline>
    <contour>
      <point x="168" y="436" type="line"/>
      <point x="123" y="436" type="line"/>
      <point x="73" y="515" type="line"/>
      <point x="120" y="515" type="line"/>
      <point x="146" y="469" type="line"/>
      <point x="172" y="515" type="line"/>
      <point x="218" y="515" type="line"/>
    </contour>
    <contour>
      <point x="275" y="378" type="line"/>
      <point x="84" y="47" type="line"/>
      <point x="279" y="47" type="line"/>
      <point x="279" y="0" type="line"/>
      <point x="12" y="0" type="line"/>
      <point x="12" y="22" type="line"/>
      <point x="202" y="353" type="line"/>
      <point x="24" y="353" type="line"/>
      <point x="24" y="399" type="line"/>
      <point x="275" y="399" type="line"/>
    </contour>
  </outline>
</glyph>
<glyph name="Aringacute" format="1">
  <advance width="319"/>
  <unicode hex="01FA"/>
  <outline>
    <contour>
      <point x="182" y="494" type="line"/>
      <point x="142" y="494" type="line"/>
      <point x="183" y="558" type="line"/>
      <point x="235" y="558" type="line"/>
      <point x="236" y="555" type="line"/>
    </contour>
    <contour>
      <point x="159" y="478" type="curve" smooth="yes"/>
      <point x="191" y="478"/>
      <point x="215" y="454"/>
      <point x="215" y="424" type="curve" smooth="yes"/>
      <point x="215" y="409"/>
      <point x="208" y="394"/>
      <point x="197" y="384" type="curve"/>
      <point x="319" y="0" type="line"/>
      <point x="264" y="0" type="line"/>
      <point x="237" y="89" type="line"/>
      <point x="78" y="89" type="line"/>
      <point x="51" y="0" type="line"/>
      <point x="-1" y="0" type="line"/>
      <point x="122" y="385" type="line"/>
      <point x="111" y="394"/>
      <point x="103" y="409"/>
      <point x="103" y="424" type="curve" smooth="yes"/>
      <point x="103" y="455"/>
      <point x="129" y="478"/>
    </contour>
    <contour>
      <point x="159" y="453" type="curve" smooth="yes"/>
      <point x="143" y="453"/>
      <point x="130" y="440"/>
      <point x="130" y="424" type="curve" smooth="yes"/>
      <point x="130" y="409"/>
      <point x="143" y="396"/>
      <point x="159" y="396" type="curve" smooth="yes"/>
      <point x="175" y="396"/>
      <point x="189" y="409"/>
      <point x="189" y="424" type="curve" smooth="yes"/>
      <point x="189" y="440"/>
      <point x="175" y="453"/>
    </contour>
    <contour>
      <point x="156" y="358" type="line"/>
      <point x="156" y="358"/>
      <point x="151" y="326"/>
      <point x="147" y="314" type="curve" smooth="yes"/>
      <point x="92" y="136" type="line"/>
      <point x="222" y="136" type="line"/>
      <point x="168" y="314" type="line" smooth="yes"/>
      <point x="163" y="327"/>
      <point x="158" y="358"/>
      <point x="158" y="358" type="curve"/>
    </contour>
  </outline>
</glyph>
<glyph name="uni021A" format="1">
  <advance width="292"/>
  <unicode hex="021A"/>
  <outline>
    <contour>
      <point x="280" y="353" type="line"/>
      <point x="171" y="353" type="line"/>
      <point x="171" y="0" type="line"/>
      <point x="120" y="0" type="line"/>
      <point x="120" y="353" type="line"/>
      <point x="11" y="353" type="line"/>
      <point x="11" y="399" type="line"/>
      <point x="280" y="399" type="line"/>
    </contour>
    <contour>
      <point x="171" y="-84" type="line"/>
      <point x="154" y="-129" type="line"/>
      <point x="128" y="-129" type="line"/>
      <point x="141" y="-88" type="line"/>
      <point x="121" y="-88" type="line"/>
      <point x="121" y="-35" type="line"/>
      <point x="171" y="-35" type="line"/>
    </contour>
  </outline>
</glyph>
<glyph name="ogonek" format="1">
  <advance width="159"/>
  <unicode hex="02DB"/>
  <outline>
    <contour>
      <point x="105" y="5" type="line"/>
      <point x="98" y="-3"/>
      <point x="88" y="-20"/>
      <point x="88" y="-36" type="curve" smooth="yes"/>
      <point x="88" y="-53"/>
      <point x="94" y="-68"/>
      <point x="113" y="-68" type="curve" smooth="yes"/>
      <point x="132" y="-68" type="line"/>
      <point x="132" y="-98" type="line"/>
      <point x="120" y="-103"/>
      <point x="108" y="-106"/>
      <point x="97" y="-106" type="curve" smooth="yes"/>
      <point x="72" y="-106"/>
      <point x="42" y="-94"/>
      <point x="42" y="-53" type="curve" smooth="yes"/>
      <point x="42" y="-25"/>
      <point x="55" y="-8"/>
      <point x="70" y="7" type="curve"/>
      <point x="105" y="7" type="line"/>
    </contour>
  </outline>
</glyph>
<glyph name="uni0326" format="1">
  <advance width="0"/>
  <unicode hex="0326"/>
  <outline>
    <contour>
      <point x="-78" y="0" type="move" name="_Anchor-8"/>
    </contour>
    <contour>
      <point x="-78" y="0" type="move" name="_Anchor-7"/>
    </contour>
    <contour>
      <point x="-78" y="0" type="move" name="_Anchor-1"/>
    </contour>
    <contour>
      <point x="-71" y="-129" type="line"/>
      <point x="-97" y="-129" type="line"/>
      <point x="-83" y="-88" type="line"/>
      <point x="-103" y="-88" type="line"/>
      <point x="-103" y="-35" type="line"/>
      <point x="-53" y="-35" type="line"/>
      <point x="-53" y="-84" type="line"/>
    </contour>
  </outline>
</glyph>
<glyph name="mu" format="1">
  <advance width="266"/>
  <unicode hex="03BC"/>
  <outline>
    <contour>
      <point x="194" y="0" type="line"/>
      <point x="188" y="36" type="line"/>
      <point x="185" y="36" type="line"/>
      <point x="168" y="5"/>
      <point x="141" y="-7"/>
      <point x="111" y="-7" type="curve" smooth="yes"/>
      <point x="100" y="-7"/>
      <point x="91" y="-6"/>
      <point x="83" y="-3" type="curve"/>
      <point x="83" y="-101" type="line"/>
      <point x="35" y="-101" type="line"/>
      <point x="35" y="306" type="line"/>
      <point x="83" y="306" type="line"/>
      <point x="83" y="83" type="line" smooth="yes"/>
      <point x="83" y="45"/>
      <point x="101" y="36"/>
      <point x="126" y="36" type="curve" smooth="yes"/>
      <point x="156" y="36"/>
      <point x="183" y="67"/>
      <point x="183" y="119" type="curve" smooth="yes"/>
      <point x="183" y="306" type="line"/>
      <point x="231" y="306" type="line"/>
      <point x="231" y="0" type="line"/>
    </contour>
  </outline>
</glyph>
<glyph name="uni0900" format="1">
  <advance width="0"/>
  <unicode hex="0900"/>
  <outline>
    <contour>
      <point x="-71" y="549" type="move" name="Anchor-4"/>
    </contour>
    <contour>
      <point x="-72" y="399" type="move" name="_Anchor-2"/>
    </contour>
    <contour>
      <point x="28" y="459" type="curve"/>
      <point x="-18" y="459" type="line"/>
      <point x="-18" y="499"/>
      <point x="-39" y="515"/>
      <point x="-72" y="515" type="curve" smooth="yes"/>
      <point x="-105" y="515"/>
      <point x="-126" y="499"/>
      <point x="-126" y="459" type="curve"/>
      <point x="-172" y="459" type="line"/>
      <point x="-172" y="512"/>
      <point x="-130" y="549"/>
      <point x="-72" y="549" type="curve" smooth="yes"/>
      <point x="-13" y="549"/>
      <point x="28" y="512"/>
    </contour>
    <contour>
      <point x="-99" y="487" type="line"/>
      <point x="-44" y="487" type="line"/>
      <point x="-44" y="427" type="line"/>
      <point x="-99" y="427" type="line"/>
    </contour>
  </outline>
</glyph>
<glyph name="uni0902" format="1">
  <advance width="0"/>
  <unicode hex="0902"/>
  <outline>
    <contour>
      <point x="-71" y="399" type="move" name="_Anchor-4"/>
    </contour>
    <contour>
      <point x="-71" y="399" type="move" name="_Anchor-3"/>
    </contour>
    <contour>
      <point x="-71" y="399" type="move" name="_Anchor-0"/>
    </contour>
    <contour>
      <point x="-100" y="444" type="line"/>
      <point x="-100" y="507" type="line"/>
      <point x="-42" y="507" type="line"/>
      <point x="-42" y="444" type="line"/>
    </contour>
  </outline>
</glyph>
<glyph name="uni0907" format="1">
  <advance width="274"/>
  <unicode hex="0907"/>
  <outline>
    <contour>
      <point x="101" y="0" type="move" name="Anchor-7"/>
    </contour>
    <contour>
      <point x="0" y="0" type="move" name="Anchor-6"/>
    </contour>
    <contour>
      <point x="0" y="0" type="move" name="Anchor-5"/>
    </contour>
    <contour>
      <point x="204" y="399" type="move" name="Anchor-3"/>
    </contour>
    <contour>
      <point x="0" y="0" type="move" name="Anchor-2"/>
    </contour>
    <contour>
      <point x="129" y="257" type="line" smooth="yes"/>
      <point x="108" y="257"/>
      <point x="90" y="246"/>
      <point x="90" y="224" type="curve" smooth="yes"/>
      <point x="90" y="205"/>
      <point x="103" y="194"/>
      <point x="127" y="194" type="curve" smooth="yes"/>
      <point x="152" y="194" type="line" smooth="yes"/>
      <point x="212" y="194"/>
      <point x="246" y="165"/>
      <point x="246" y="112" type="curve" smooth="yes"/>
      <point x="246" y="55"/>
      <point x="207" y="26"/>
      <point x="152" y="26" type="curve" smooth="yes"/>
      <point x="128" y="26"/>
      <point x="109" y="31"/>
      <point x="94" y="40" type="curve"/>
      <point x="94" y="-24" type="line"/>
      <point x="46" y="-24" type="line"/>
      <point x="46" y="125" type="line"/>
      <point x="94" y="125" type="line"/>
      <point x="94" y="119" type="line" smooth="yes"/>
      <point x="94" y="83"/>
      <point x="117" y="68"/>
      <point x="146" y="68" type="curve" smooth="yes"/>
      <point x="175" y="68"/>
      <point x="196" y="83"/>
      <point x="196" y="113" type="curve" smooth="yes"/>
      <point x="196" y="139"/>
      <point x="179" y="151"/>
      <point x="148" y="151" type="curve" smooth="yes"/>
      <point x="129" y="151" type="line" smooth="yes"/>
      <point x="70" y="151"/>
      <point x="40" y="179"/>
      <point x="40" y="225" type="curve" smooth="yes"/>
      <point x="40" y="278"/>
      <point x="78" y="299"/>
      <point x="131" y="299" type="curve" smooth="yes"/>
      <point x="181" y="299" type="line"/>
      <point x="181" y="357" type="line"/>
      <point x="-7" y="357" type="line"/>
      <point x="-7" y="399" type="line"/>
      <point x="281" y="399" type="line"/>
      <point x="281" y="357" type="line"/>
      <point x="229" y="357" type="line"/>
      <point x="229" y="257" type="line"/>
    </contour>
  </outline>
</glyph>
<glyph name="uni0909" format="1">
  <advance width="244"/>
  <unicode hex="0909"/>
  <outline>
    <contour>
      <point x="113" y="0" type="move" name="Anchor-7"/>
    </contour>
    <contour>
      <point x="0" y="0" type="move" name="Anchor-6"/>
    </contour>
    <contour>
      <point x="0" y="0" type="move" name="Anchor-5"/>
    </contour>
    <contour>
      <point x="116" y="397" type="move" name="Anchor-3"/>
    </contour>
    <contour>
      <point x="0" y="0" type="move" name="Anchor-2"/>
    </contour>
    <contour>
      <point x="250" y="399" type="line"/>
      <point x="250" y="357" type="line"/>
      <point x="196" y="357" type="line"/>
      <point x="204" y="344"/>
      <point x="208" y="327"/>
      <point x="208" y="308" type="curve" smooth="yes"/>
      <point x="208" y="299" type="line" smooth="yes"/>
      <point x="208" y="260"/>
      <point x="192" y="240"/>
      <point x="174" y="227" type="curve"/>
      <point x="174" y="225" type="line"/>
      <point x="197" y="217"/>
      <point x="214" y="190"/>
      <point x="214" y="150" type="curve" smooth="yes"/>
      <point x="214" y="131" type="line" smooth="yes"/>
      <point x="214" y="71"/>
      <point x="173" y="34"/>
      <point x="112" y="34" type="curve" smooth="yes"/>
      <point x="49" y="34"/>
      <point x="12" y="74"/>
      <point x="12" y="127" type="curve" smooth="yes"/>
      <point x="12" y="132"/>
      <point x="12" y="136"/>
      <point x="13" y="139" type="curve" smooth="yes"/>
      <point x="13" y="140"/>
      <point x="13" y="141"/>
      <point x="13" y="142" type="curve" smooth="yes"/>
      <point x="61" y="142" type="line"/>
      <point x="61" y="135" type="line" smooth="yes"/>
      <point x="61" y="97"/>
      <point x="79" y="76"/>
      <point x="111" y="76" type="curve" smooth="yes"/>
      <point x="143" y="76"/>
      <point x="164" y="96"/>
      <point x="165" y="131" type="curve" smooth="yes"/>
      <point x="165" y="150" type="line" smooth="yes"/>
      <point x="165" y="188"/>
      <point x="141" y="203"/>
      <point x="109" y="203" type="curve" smooth="yes"/>
      <point x="82" y="203" type="line"/>
      <point x="82" y="244" type="line"/>
      <point x="111" y="244" type="line" smooth="yes"/>
      <point x="138" y="244"/>
      <point x="159" y="263"/>
      <point x="159" y="299" type="curve" smooth="yes"/>
      <point x="159" y="308" type="line" smooth="yes"/>
      <point x="159" y="340"/>
      <point x="138" y="357"/>
      <point x="113" y="357" type="curve" smooth="yes"/>
      <point x="-7" y="357" type="line"/>
      <point x="-7" y="399" type="line"/>
    </contour>
  </outline>
</glyph>
<glyph name="uni090A" format="1">
  <advance width="387"/>
  <unicode hex="090A"/>
  <outline>
    <contour>
      <point x="130" y="0" type="move" name="Anchor-7"/>
    </contour>
    <contour>
      <point x="0" y="0" type="move" name="Anchor-6"/>
    </contour>
    <contour>
      <point x="0" y="0" type="move" name="Anchor-5"/>
    </contour>
    <contour>
      <point x="159" y="399" type="move" name="Anchor-3"/>
    </contour>
    <contour>
      <point x="0" y="0" type="move" name="Anchor-2"/>
    </contour>
    <contour>
      <point x="393" y="357" type="line"/>
      <point x="196" y="357" type="line"/>
      <point x="204" y="344"/>
      <point x="208" y="327"/>
      <point x="208" y="308" type="curve" smooth="yes"/>
      <point x="208" y="299" type="line" smooth="yes"/>
      <point x="208" y="260"/>
      <point x="192" y="240"/>
      <point x="174" y="227" type="curve"/>
      <point x="174" y="225" type="line"/>
      <point x="184" y="222"/>
      <point x="193" y="215"/>
      <point x="199" y="205" type="curve"/>
      <point x="214" y="229"/>
      <point x="240" y="246"/>
      <point x="278" y="246" type="curve" smooth="yes"/>
      <point x="335" y="246"/>
      <point x="374" y="203"/>
      <point x="374" y="138" type="curve" smooth="yes"/>
      <point x="374" y="71"/>
      <point x="335" y="31"/>
      <point x="275" y="31" type="curve" smooth="yes"/>
      <point x="273" y="31"/>
      <point x="271" y="31"/>
      <point x="269" y="31" type="curve" smooth="yes"/>
      <point x="267" y="32"/>
      <point x="265" y="32"/>
      <point x="262" y="32" type="curve" smooth="yes"/>
      <point x="262" y="74" type="line"/>
      <point x="270" y="74" type="line" smooth="yes"/>
      <point x="305" y="74"/>
      <point x="327" y="98"/>
      <point x="327" y="132" type="curve" smooth="yes"/>
      <point x="327" y="145" type="line" smooth="yes"/>
      <point x="327" y="183"/>
      <point x="309" y="204"/>
      <point x="276" y="204" type="curve" smooth="yes"/>
      <point x="230" y="204"/>
      <point x="214" y="175"/>
      <point x="214" y="131" type="curve" smooth="yes"/>
      <point x="214" y="71"/>
      <point x="173" y="34"/>
      <point x="112" y="34" type="curve" smooth="yes"/>
      <point x="49" y="34"/>
      <point x="12" y="74"/>
      <point x="12" y="127" type="curve" smooth="yes"/>
      <point x="12" y="132"/>
      <point x="12" y="136"/>
      <point x="13" y="139" type="curve" smooth="yes"/>
      <point x="13" y="140"/>
      <point x="13" y="141"/>
      <point x="13" y="142" type="curve" smooth="yes"/>
      <point x="61" y="142" type="line"/>
      <point x="61" y="135" type="line" smooth="yes"/>
      <point x="61" y="97"/>
      <point x="79" y="76"/>
      <point x="111" y="76" type="curve" smooth="yes"/>
      <point x="143" y="76"/>
      <point x="164" y="96"/>
      <point x="165" y="131" type="curve" smooth="yes"/>
      <point x="165" y="150" type="line" smooth="yes"/>
      <point x="165" y="188"/>
      <point x="141" y="203"/>
      <point x="109" y="203" type="curve" smooth="yes"/>
      <point x="82" y="203" type="line"/>
      <point x="82" y="244" type="line"/>
      <point x="111" y="244" type="line" smooth="yes"/>
      <point x="138" y="244"/>
      <point x="159" y="263"/>
      <point x="159" y="299" type="curve" smooth="yes"/>
      <point x="159" y="308" type="line" smooth="yes"/>
      <point x="159" y="340"/>
      <point x="138" y="357"/>
      <point x="113" y="357" type="curve" smooth="yes"/>
      <point x="-7" y="357" type="line"/>
      <point x="-7" y="399" type="line"/>
      <point x="393" y="399" type="line"/>
    </contour>
  </outline>
</glyph>
<glyph name="uni091A" format="1">
  <advance width="304"/>
  <unicode hex="091A"/>
  <outline>
    <contour>
      <point x="232" y="0" type="move" name="Anchor-7"/>
    </contour>
    <contour>
      <point x="0" y="0" type="move" name="Anchor-6"/>
    </contour>
    <contour>
      <point x="33" y="92" type="move" name="Anchor-5"/>
    </contour>
    <contour>
      <point x="232" y="399" type="move" name="Anchor-3"/>
    </contour>
    <contour>
      <point x="146" y="399" type="move" name="Anchor-2"/>
    </contour>
    <contour>
      <point x="311" y="399" type="line"/>
      <point x="311" y="357" type="line"/>
      <point x="256" y="357" type="line"/>
      <point x="256" y="0" type="line"/>
      <point x="208" y="0" type="line"/>
      <point x="208" y="92" type="line"/>
      <point x="206" y="92" type="line"/>
      <point x="194" y="78"/>
      <point x="172" y="68"/>
      <point x="142" y="68" type="curve" smooth="yes"/>
      <point x="87" y="68"/>
      <point x="49" y="98"/>
      <point x="49" y="168" type="curve" smooth="yes"/>
      <point x="49" y="197"/>
      <point x="56" y="219"/>
      <point x="69" y="235" type="curve"/>
      <point x="9" y="235" type="line"/>
      <point x="9" y="279" type="line"/>
      <point x="165" y="279" type="line"/>
      <point x="165" y="235" type="line"/>
      <point x="154" y="235" type="line" smooth="yes"/>
      <point x="117" y="235"/>
      <point x="99" y="219"/>
      <point x="99" y="179" type="curve" smooth="yes"/>
      <point x="99" y="167" type="line" smooth="yes"/>
      <point x="99" y="126"/>
      <point x="117" y="110"/>
      <point x="154" y="110" type="curve" smooth="yes"/>
      <point x="190" y="110"/>
      <point x="208" y="133"/>
      <point x="208" y="179" type="curve" smooth="yes"/>
      <point x="208" y="357" type="line"/>
      <point x="-7" y="357" type="line"/>
      <point x="-7" y="399" type="line"/>
    </contour>
  </outline>
</glyph>
<glyph name="uni091E" format="1">
  <advance width="355"/>
  <unicode hex="091E"/>
  <outline>
    <contour>
      <point x="284" y="0" type="move" name="Anchor-7"/>
    </contour>
    <contour>
      <point x="0" y="0" type="move" name="Anchor-6"/>
    </contour>
    <contour>
      <point x="57" y="34" type="move" name="Anchor-5"/>
    </contour>
    <contour>
      <point x="284" y="399" type="move" name="Anchor-3"/>
    </contour>
    <contour>
      <point x="171" y="399" type="move" name="Anchor-2"/>
    </contour>
    <contour>
      <point x="362" y="399" type="line"/>
      <point x="362" y="357" type="line"/>
      <point x="307" y="357" type="line"/>
      <point x="307" y="0" type="line"/>
      <point x="259" y="0" type="line"/>
      <point x="259" y="157" type="line"/>
      <point x="190" y="157" type="line"/>
      <point x="186" y="88"/>
      <point x="157" y="56"/>
      <point x="97" y="56" type="curve" smooth="yes"/>
      <point x="49" y="56"/>
      <point x="16" y="82"/>
      <point x="16" y="117" type="curve" smooth="yes"/>
      <point x="16" y="123"/>
      <point x="16" y="127"/>
      <point x="17" y="130" type="curve" smooth="yes"/>
      <point x="61" y="130" type="line"/>
      <point x="61" y="128" type="line" smooth="yes"/>
      <point x="61" y="111"/>
      <point x="76" y="99"/>
      <point x="97" y="99" type="curve" smooth="yes"/>
      <point x="130" y="99"/>
      <point x="143" y="120"/>
      <point x="143" y="160" type="curve" smooth="yes"/>
      <point x="143" y="195" type="line" smooth="yes"/>
      <point x="143" y="235"/>
      <point x="130" y="256"/>
      <point x="97" y="256" type="curve" smooth="yes"/>
      <point x="78" y="256"/>
      <point x="64" y="244"/>
      <point x="64" y="227" type="curve" smooth="yes"/>
      <point x="64" y="225" type="line"/>
      <point x="17" y="225" type="line" smooth="yes"/>
      <point x="16" y="228"/>
      <point x="16" y="232"/>
      <point x="16" y="238" type="curve" smooth="yes"/>
      <point x="16" y="273"/>
      <point x="49" y="299"/>
      <point x="97" y="299" type="curve" smooth="yes"/>
      <point x="156" y="299"/>
      <point x="185" y="268"/>
      <point x="190" y="200" type="curve"/>
      <point x="259" y="200" type="line"/>
      <point x="259" y="357" type="line"/>
      <point x="-7" y="357" type="line"/>
      <point x="-7" y="399" type="line"/>
    </contour>
  </outline>
</glyph>
<glyph name="uni0922" format="1">
  <advance width="275"/>
  <unicode hex="0922"/>
  <outline>
    <contour>
      <point x="149" y="34" type="move" name="Anchor-7"/>
    </contour>
    <contour>
      <point x="0" y="0" type="move" name="Anchor-6"/>
    </contour>
    <contour>
      <point x="149" y="34" type="move" name="Anchor-5"/>
    </contour>
    <contour>
      <point x="190" y="399" type="move" name="Anchor-3"/>
    </contour>
    <contour>
      <point x="136" y="399" type="move" name="Anchor-2"/>
    </contour>
    <contour>
      <point x="136" y="257" type="line" smooth="yes"/>
      <point x="90" y="257"/>
      <point x="73" y="229"/>
      <point x="73" y="177" type="curve" smooth="yes"/>
      <point x="73" y="156" type="line" smooth="yes"/>
      <point x="73" y="126"/>
      <point x="80" y="102"/>
      <point x="101" y="88" type="curve"/>
      <point x="95" y="99"/>
      <point x="93" y="112"/>
      <point x="93" y="123" type="curve" smooth="yes"/>
      <point x="93" y="164"/>
      <point x="117" y="196"/>
      <point x="169" y="196" type="curve" smooth="yes"/>
      <point x="219" y="196"/>
      <point x="248" y="165"/>
      <point x="248" y="122" type="curve" smooth="yes"/>
      <point x="248" y="66"/>
      <point x="204" y="34"/>
      <point x="149" y="34" type="curve" smooth="yes"/>
      <point x="71" y="34"/>
      <point x="24" y="80"/>
      <point x="24" y="173" type="curve" smooth="yes"/>
      <point x="24" y="252"/>
      <point x="56" y="299"/>
      <point x="136" y="299" type="curve" smooth="yes"/>
      <point x="167" y="299" type="line"/>
      <point x="167" y="357" type="line"/>
      <point x="-7" y="357" type="line"/>
      <point x="-7" y="399" type="line"/>
      <point x="282" y="399" type="line"/>
      <point x="282" y="357" type="line"/>
      <point x="214" y="357" type="line"/>
      <point x="214" y="257" type="line"/>
    </contour>
    <contour>
      <point x="166" y="154" type="curve" smooth="yes"/>
      <point x="144" y="154"/>
      <point x="131" y="140"/>
      <point x="131" y="115" type="curve" smooth="yes"/>
      <point x="131" y="90"/>
      <point x="144" y="77"/>
      <point x="167" y="77" type="curve" smooth="yes"/>
      <point x="187" y="77"/>
      <point x="200" y="94"/>
      <point x="200" y="119" type="curve" smooth="yes"/>
      <point x="200" y="141"/>
      <point x="188" y="154"/>
    </contour>
  </outline>
</glyph>
<glyph name="uni0925" format="1">
  <advance width="347"/>
  <unicode hex="0925"/>
  <outline>
    <contour>
      <point x="274" y="0" type="move" name="Anchor-7"/>
    </contour>
    <contour>
      <point x="0" y="0" type="move" name="Anchor-6"/>
    </contour>
    <contour>
      <point x="65" y="92" type="move" name="Anchor-5"/>
    </contour>
    <contour>
      <point x="274" y="399" type="move" name="Anchor-3"/>
    </contour>
    <contour>
      <point x="175" y="399" type="move" name="Anchor-2"/>
    </contour>
    <contour>
      <point x="353" y="399" type="line"/>
      <point x="353" y="357" type="line"/>
      <point x="299" y="357" type="line"/>
      <point x="299" y="0" type="line"/>
      <point x="250" y="0" type="line"/>
      <point x="250" y="123" type="line"/>
      <point x="233" y="101"/>
      <point x="202" y="92"/>
      <point x="168" y="92" type="curve" smooth="yes"/>
      <point x="96" y="92"/>
      <point x="50" y="134"/>
      <point x="50" y="214" type="curve"/>
      <point x="118" y="214"/>
      <point x="149" y="252"/>
      <point x="149" y="303" type="curve" smooth="yes"/>
      <point x="149" y="333"/>
      <point x="138" y="364"/>
      <point x="110" y="364" type="curve" smooth="yes"/>
      <point x="86" y="364"/>
      <point x="76" y="343"/>
      <point x="76" y="322" type="curve" smooth="yes"/>
      <point x="76" y="305" type="line"/>
      <point x="31" y="305" type="line"/>
      <point x="30" y="309"/>
      <point x="28" y="320"/>
      <point x="28" y="329" type="curve" smooth="yes"/>
      <point x="28" y="380"/>
      <point x="64" y="407"/>
      <point x="109" y="407" type="curve" smooth="yes"/>
      <point x="165" y="407"/>
      <point x="198" y="365"/>
      <point x="198" y="306" type="curve" smooth="yes"/>
      <point x="198" y="240"/>
      <point x="157" y="194"/>
      <point x="104" y="180" type="curve"/>
      <point x="114" y="145"/>
      <point x="139" y="132"/>
      <point x="172" y="132" type="curve" smooth="yes"/>
      <point x="218" y="132"/>
      <point x="250" y="157"/>
      <point x="250" y="216" type="curve" smooth="yes"/>
      <point x="250" y="357" type="line"/>
      <point x="203" y="357" type="line"/>
      <point x="203" y="399" type="line"/>
    </contour>
  </outline>
</glyph>
<glyph name="uni092A" format="1">
  <advance width="279"/>
  <unicode hex="092A"/>
  <outline>
    <contour>
      <point x="206" y="0" type="move" name="Anchor-7"/>
    </contour>
    <contour>
      <point x="0" y="0" type="move" name="Anchor-6"/>
    </contour>
    <contour>
      <point x="38" y="92" type="move" name="Anchor-5"/>
    </contour>
    <contour>
      <point x="206" y="399" type="move" name="Anchor-3"/>
    </contour>
    <contour>
      <point x="133" y="399" type="move" name="Anchor-2"/>
    </contour>
    <contour>
      <point x="285" y="399" type="line"/>
      <point x="285" y="357" type="line"/>
      <point x="230" y="357" type="line"/>
      <point x="230" y="0" type="line"/>
      <point x="182" y="0" type="line"/>
      <point x="182" y="113" type="line"/>
      <point x="167" y="99"/>
      <point x="146" y="92"/>
      <point x="121" y="92" type="curve" smooth="yes"/>
      <point x="67" y="92"/>
      <point x="35" y="125"/>
      <point x="35" y="187" type="curve" smooth="yes"/>
      <point x="35" y="357" type="line"/>
      <point x="-7" y="357" type="line"/>
      <point x="-7" y="399" type="line"/>
    </contour>
    <contour>
      <point x="133" y="135" type="curve" smooth="yes"/>
      <point x="158" y="135"/>
      <point x="178" y="149"/>
      <point x="182" y="173" type="curve"/>
      <point x="182" y="357" type="line"/>
      <point x="83" y="357" type="line"/>
      <point x="83" y="190" type="line" smooth="yes"/>
      <point x="83" y="156"/>
      <point x="101" y="135"/>
    </contour>
  </outline>
</glyph>
<glyph name="uni0936" format="1">
  <advance width="351"/>
  <unicode hex="0936"/>
  <outline>
    <contour>
      <point x="279" y="0" type="move" name="Anchor-7"/>
    </contour>
    <contour>
      <point x="0" y="0" type="move" name="Anchor-6"/>
    </contour>
    <contour>
      <point x="38" y="92" type="move" name="Anchor-5"/>
    </contour>
    <contour>
      <point x="279" y="399" type="move" name="Anchor-3"/>
    </contour>
    <contour>
      <point x="189" y="399" type="move" name="Anchor-2"/>
    </contour>
    <contour>
      <point x="198" y="304" type="curve" smooth="yes"/>
      <point x="198" y="230"/>
      <point x="150" y="175"/>
      <point x="89" y="165" type="curve"/>
      <point x="194" y="0" type="line"/>
      <point x="142" y="0" type="line"/>
      <point x="37" y="170" type="line"/>
      <point x="37" y="200" type="line"/>
      <point x="50" y="200" type="line" smooth="yes"/>
      <point x="118" y="200"/>
      <point x="149" y="245"/>
      <point x="149" y="301" type="curve" smooth="yes"/>
      <point x="149" y="333"/>
      <point x="138" y="364"/>
      <point x="110" y="364" type="curve" smooth="yes"/>
      <point x="86" y="364"/>
      <point x="76" y="343"/>
      <point x="76" y="322" type="curve" smooth="yes"/>
      <point x="76" y="305" type="line"/>
      <point x="31" y="305" type="line"/>
      <point x="30" y="309"/>
      <point x="28" y="320"/>
      <point x="28" y="329" type="curve" smooth="yes"/>
      <point x="28" y="380"/>
      <point x="64" y="407"/>
      <point x="109" y="407" type="curve" smooth="yes"/>
      <point x="165" y="407"/>
      <point x="198" y="366"/>
    </contour>
    <contour>
      <point x="358" y="399" type="line"/>
      <point x="358" y="357" type="line"/>
      <point x="302" y="357" type="line"/>
      <point x="302" y="0" type="line"/>
      <point x="255" y="0" type="line"/>
      <point x="255" y="357" type="line"/>
      <point x="213" y="357" type="line"/>
      <point x="213" y="399" type="line"/>
    </contour>
  </outline>
</glyph>
<glyph name="uni093A" format="1">
  <advance width="0"/>
  <unicode hex="093A"/>
  <outline>
    <contour>
      <point x="-72" y="399" type="move" name="_Anchor-4"/>
    </contour>
    <contour>
      <point x="-72" y="399" type="move" name="_Anchor-3"/>
    </contour>
    <contour>
      <point x="-72" y="399" type="move" name="_Anchor-0"/>
    </contour>
    <contour>
      <point x="-48" y="521" type="line"/>
      <point x="-48" y="393" type="line"/>
      <point x="-96" y="393" type="line"/>
      <point x="-96" y="521" type="line"/>
    </contour>
  </outline>
</glyph>
<glyph name="uni093C" format="1">
  <advance width="0"/>
  <unicode hex="093C"/>
  <outline>
    <contour>
      <point x="-71" y="0" type="move" name="_Anchor-9"/>
    </contour>
    <contour>
      <point x="-71" y="0" type="move" name="_Anchor-5"/>
    </contour>
    <contour>
      <point x="-99" y="-95" type="line"/>
      <point x="-99" y="-32" type="line"/>
      <point x="-41" y="-32" type="line"/>
      <point x="-41" y="-95" type="line"/>
    </contour>
  </outline>
</glyph>
<glyph name="uni0940" format="1">
  <advance width="144"/>
  <unicode hex="0940"/>
  <outline>
    <contour>
      <point x="69" y="0" type="move" name="Anchor-7"/>
    </contour>
    <contour>
      <point x="0" y="0" type="move" name="Anchor-6"/>
    </contour>
    <contour>
      <point x="0" y="0" type="move" name="Anchor-5"/>
    </contour>
    <contour>
      <point x="72" y="399" type="move" name="Anchor-3"/>
    </contour>
    <contour>
      <point x="72" y="399" type="move" name="Anchor-2"/>
    </contour>
    <contour>
      <point x="96" y="399" type="line"/>
      <point x="151" y="399" type="line"/>
      <point x="151" y="357" type="line"/>
      <point x="96" y="357" type="line"/>
      <point x="96" y="0" type="line"/>
      <point x="48" y="0" type="line"/>
      <point x="48" y="357" type="line"/>
      <point x="-7" y="357" type="line"/>
      <point x="-7" y="399" type="line"/>
      <point x="48" y="399" type="line"/>
      <point x="48" y="461" type="line" smooth="yes"/>
      <point x="48" y="503"/>
      <point x="39" y="532"/>
      <point x="3" y="532" type="curve" smooth="yes"/>
      <point x="-32" y="532"/>
      <point x="-43" y="498"/>
      <point x="-43" y="466" type="curve" smooth="yes"/>
      <point x="-43" y="444" type="line"/>
      <point x="-90" y="444" type="line"/>
      <point x="-90" y="472" type="line" smooth="yes"/>
      <point x="-90" y="539"/>
      <point x="-49" y="574"/>
      <point x="7" y="574" type="curve" smooth="yes"/>
      <point x="65" y="574"/>
      <point x="96" y="535"/>
      <point x="96" y="467" type="curve" smooth="yes"/>
    </contour>
  </outline>
</glyph>
<glyph name="uni0943" format="1">
  <advance width="0"/>
  <unicode hex="0943"/>
  <outline>
    <contour>
      <point x="-72" y="0" type="move" name="_Anchor-8"/>
    </contour>
    <contour>
      <point x="-72" y="0" type="move" name="_Anchor-7"/>
    </contour>
    <contour>
      <point x="-72" y="0" type="move" name="_Anchor-1"/>
    </contour>
    <contour>
      <point x="-71" y="43" type="curve" smooth="yes"/>
      <point x="-63" y="43"/>
      <point x="-55" y="42"/>
      <point x="-48" y="40" type="curve"/>
      <point x="-48" y="0" type="line"/>
      <point x="-69" y="0" type="line" smooth="yes"/>
      <point x="-93" y="0"/>
      <point x="-110" y="-16"/>
      <point x="-110" y="-38" type="curve" smooth="yes"/>
      <point x="-110" y="-59"/>
      <point x="-93" y="-75"/>
      <point x="-69" y="-75" type="curve" smooth="yes"/>
      <point x="-50" y="-75"/>
      <point x="-35" y="-72"/>
      <point x="-21" y="-67" type="curve"/>
      <point x="-21" y="-107" type="line"/>
      <point x="-36" y="-113"/>
      <point x="-53" y="-118"/>
      <point x="-71" y="-118" type="curve" smooth="yes"/>
      <point x="-115" y="-118"/>
      <point x="-158" y="-88"/>
      <point x="-158" y="-37" type="curve" smooth="yes"/>
      <point x="-158" y="14"/>
      <point x="-115" y="43"/>
    </contour>
  </outline>
</glyph>
<glyph name="uni0947" format="1">
  <advance width="0"/>
  <unicode hex="0947"/>
  <outline>
    <contour>
      <point x="-74" y="399" type="move" name="_Anchor-4"/>
    </contour>
    <contour>
      <point x="-74" y="399" type="move" name="_Anchor-3"/>
    </contour>
    <contour>
      <point x="-74" y="399" type="move" name="_Anchor-0"/>
    </contour>
    <contour>
      <point x="-55" y="399" type="line"/>
      <point x="-49" y="399" type="line"/>
      <point x="-49" y="357" type="line"/>
      <point x="-103" y="357" type="line"/>
      <point x="-103" y="399" type="line"/>
      <point x="-98" y="399" type="line"/>
      <point x="-152" y="574" type="line"/>
      <point x="-103" y="574" type="line"/>
    </contour>
  </outline>
</glyph>
<glyph name="uni0949" format="1">
  <advance width="144"/>
  <unicode hex="0949"/>
  <outline>
    <contour>
      <point x="72" y="0" type="move" name="Anchor-7"/>
    </contour>
    <contour>
      <point x="0" y="0" type="move" name="Anchor-6"/>
    </contour>
    <contour>
      <point x="0" y="0" type="move" name="Anchor-5"/>
    </contour>
    <contour>
      <point x="72" y="399" type="move" name="Anchor-3"/>
    </contour>
    <contour>
      <point x="72" y="399" type="move" name="Anchor-2"/>
    </contour>
    <contour>
      <point x="166" y="527" type="line"/>
      <point x="166" y="474"/>
      <point x="131" y="437"/>
      <point x="72" y="437" type="curve" smooth="yes"/>
      <point x="14" y="437"/>
      <point x="-21" y="474"/>
      <point x="-21" y="527" type="curve"/>
      <point x="25" y="527" type="line"/>
      <point x="25" y="491"/>
      <point x="47" y="474"/>
      <point x="72" y="474" type="curve" smooth="yes"/>
      <point x="100" y="474"/>
      <point x="120" y="491"/>
      <point x="120" y="527" type="curve"/>
    </contour>
    <contour>
      <point x="151" y="399" type="line"/>
      <point x="151" y="357" type="line"/>
      <point x="96" y="357" type="line"/>
      <point x="96" y="0" type="line"/>
      <point x="48" y="0" type="line"/>
      <point x="48" y="357" type="line"/>
      <point x="-7" y="357" type="line"/>
      <point x="-7" y="399" type="line"/>
    </contour>
  </outline>
</glyph>
<glyph name="uni0953" format="1">
  <advance width="0"/>
  <unicode hex="0953"/>
  <outline>
    <contour>
      <point x="-72" y="399" type="move" name="_Anchor-4"/>
    </contour>
    <contour>
      <point x="-72" y="399" type="move" name="_Anchor-3"/>
    </contour>
    <contour>
      <point x="-72" y="399" type="move" name="_Anchor-0"/>
    </contour>
    <contour>
      <point x="-93" y="444" type="line"/>
      <point x="-155" y="519" type="line"/>
      <point x="-155" y="521" type="line"/>
      <point x="-102" y="521" type="line"/>
      <point x="-52" y="444" type="line"/>
    </contour>
  </outline>
</glyph>
<glyph name="uni0955" format="1">
  <advance width="0"/>
  <unicode hex="0955"/>
  <outline>
    <contour>
      <point x="-72" y="399" type="move" name="_Anchor-4"/>
    </contour>
    <contour>
      <point x="-72" y="399" type="move" name="_Anchor-3"/>
    </contour>
    <contour>
      <point x="-72" y="399" type="move" name="_Anchor-0"/>
    </contour>
    <contour>
      <point x="22" y="545" type="line"/>
      <point x="20" y="500"/>
      <point x="-13" y="469"/>
      <point x="-72" y="469" type="curve" smooth="yes"/>
      <point x="-130" y="469"/>
      <point x="-165" y="500"/>
      <point x="-165" y="545" type="curve"/>
      <point x="-119" y="545" type="line"/>
      <point x="-119" y="516"/>
      <point x="-97" y="503"/>
      <point x="-72" y="503" type="curve" smooth="yes"/>
      <point x="-44" y="503"/>
      <point x="-24" y="516"/>
      <point x="-24" y="545" type="curve"/>
    </contour>
    <contour>
      <point x="-159" y="420" type="line"/>
      <point x="-159" y="455" type="line"/>
      <point x="14" y="455" type="line"/>
      <point x="14" y="420" type="line"/>
    </contour>
  </outline>
</glyph>
<glyph name="uni095B" format="1">
  <advance width="329"/>
  <unicode hex="095B"/>
  <outline>
    <contour>
      <point x="263" y="0" type="move" name="Anchor-7"/>
    </contour>
    <contour>
      <point x="0" y="0" type="move" name="Anchor-6"/>
    </contour>
    <contour>
      <point x="100" y="51" type="move" name="Anchor-5"/>
    </contour>
    <contour>
      <point x="263" y="399" type="move" name="Anchor-3"/>
    </contour>
    <contour>
      <point x="145" y="399" type="move" name="Anchor-2"/>
    </contour>
    <contour>
      <point x="336" y="399" type="line"/>
      <point x="336" y="357" type="line"/>
      <point x="281" y="357" type="line"/>
      <point x="281" y="0" type="line"/>
      <point x="233" y="0" type="line"/>
      <point x="233" y="231" type="line"/>
      <point x="186" y="231" type="line"/>
      <point x="186" y="157" type="line" smooth="yes"/>
      <point x="186" y="99"/>
      <point x="154" y="68"/>
      <point x="100" y="68" type="curve" smooth="yes"/>
      <point x="43" y="68"/>
      <point x="13" y="99"/>
      <point x="13" y="157" type="curve" smooth="yes"/>
      <point x="13" y="274" type="line"/>
      <point x="61" y="274" type="line"/>
      <point x="61" y="154" type="line" smooth="yes"/>
      <point x="61" y="127"/>
      <point x="74" y="111"/>
      <point x="100" y="111" type="curve" smooth="yes"/>
      <point x="123" y="111"/>
      <point x="138" y="127"/>
      <point x="138" y="154" type="curve" smooth="yes"/>
      <point x="138" y="274" type="line"/>
      <point x="233" y="274" type="line"/>
      <point x="233" y="357" type="line"/>
      <point x="-7" y="357" type="line"/>
      <point x="-7" y="399" type="line"/>
    </contour>
    <contour>
      <point x="72" y="-44" type="line"/>
      <point x="72" y="19" type="line"/>
      <point x="130" y="19" type="line"/>
      <point x="130" y="-44" type="line"/>
    </contour>
  </outline>
</glyph>
<glyph name="uni0960" format="1">
  <advance width="442"/>
  <unicode hex="0960"/>
  <outline>
    <contour>
      <point x="209" y="0" type="move" name="Anchor-7"/>
    </contour>
    <contour>
      <point x="0" y="0" type="move" name="Anchor-6"/>
    </contour>
    <contour>
      <point x="0" y="0" type="move" name="Anchor-5"/>
    </contour>
    <contour>
      <point x="209" y="399" type="move" name="Anchor-3"/>
    </contour>
    <contour>
      <point x="209" y="399" type="move" name="Anchor-2"/>
    </contour>
    <contour>
      <point x="233" y="357" type="line"/>
      <point x="233" y="189" type="line"/>
      <point x="354" y="258" type="line"/>
      <point x="354" y="284" type="line"/>
      <point x="401" y="284" type="line"/>
      <point x="401" y="111" type="line"/>
      <point x="374" y="111" type="line" smooth="yes"/>
      <point x="351" y="111"/>
      <point x="339" y="97"/>
      <point x="339" y="79" type="curve" smooth="yes"/>
      <point x="339" y="62"/>
      <point x="356" y="48"/>
      <point x="380" y="48" type="curve" smooth="yes"/>
      <point x="401" y="48" type="line"/>
      <point x="401" y="8" type="line"/>
      <point x="374" y="8" type="line" smooth="yes"/>
      <point x="351" y="8"/>
      <point x="339" y="-6"/>
      <point x="339" y="-23" type="curve" smooth="yes"/>
      <point x="339" y="-41"/>
      <point x="356" y="-55"/>
      <point x="380" y="-55" type="curve" smooth="yes"/>
      <point x="399" y="-55"/>
      <point x="414" y="-52"/>
      <point x="428" y="-47" type="curve"/>
      <point x="428" y="-87" type="line"/>
      <point x="413" y="-93"/>
      <point x="396" y="-98"/>
      <point x="378" y="-98" type="curve" smooth="yes"/>
      <point x="334" y="-98"/>
      <point x="291" y="-70"/>
      <point x="291" y="-26" type="curve" smooth="yes"/>
      <point x="291" y="-1"/>
      <point x="303" y="18"/>
      <point x="320" y="30" type="curve"/>
      <point x="303" y="42"/>
      <point x="291" y="60"/>
      <point x="291" y="83" type="curve" smooth="yes"/>
      <point x="291" y="121"/>
      <point x="320" y="146"/>
      <point x="354" y="152" type="curve"/>
      <point x="354" y="208" type="line"/>
      <point x="233" y="139" type="line"/>
      <point x="233" y="0" type="line"/>
      <point x="185" y="0" type="line"/>
      <point x="185" y="116" type="line"/>
      <point x="44" y="36" type="line"/>
      <point x="44" y="86" type="line"/>
      <point x="174" y="160" type="line"/>
      <point x="142" y="203" type="line" smooth="yes"/>
      <point x="122" y="229"/>
      <point x="102" y="237"/>
      <point x="80" y="237" type="curve" smooth="yes"/>
      <point x="71" y="237"/>
      <point x="59" y="235"/>
      <point x="47" y="232" type="curve" smooth="yes"/>
      <point x="32" y="228" type="line"/>
      <point x="32" y="268" type="line"/>
      <point x="40" y="271"/>
      <point x="44" y="272"/>
      <point x="48" y="273" type="curve" smooth="yes"/>
      <point x="49" y="273"/>
      <point x="51" y="274"/>
      <point x="53" y="274" type="curve" smooth="yes"/>
      <point x="67" y="277"/>
      <point x="80" y="279"/>
      <point x="93" y="279" type="curve" smooth="yes"/>
      <point x="127" y="279"/>
      <point x="152" y="266"/>
      <point x="177" y="231" type="curve" smooth="yes"/>
      <point x="185" y="220" type="line"/>
      <point x="185" y="357" type="line"/>
      <point x="-7" y="357" type="line"/>
      <point x="-7" y="399" type="line"/>
      <point x="449" y="399" type="line"/>
      <point x="449" y="357" type="line"/>
    </contour>
  </outline>
</glyph>
<glyph name="uni0961" format="1">
  <advance width="402"/>
  <unicode hex="0961"/>
  <outline>
    <contour>
      <point x="329" y="-123" type="move" name="Anchor-7"/>
    </contour>
    <contour>
      <point x="0" y="0" type="move" name="Anchor-6"/>
    </contour>
    <contour>
      <point x="0" y="0" type="move" name="Anchor-5"/>
    </contour>
    <contour>
      <point x="329" y="399" type="move" name="Anchor-3"/>
    </contour>
    <contour>
      <point x="0" y="0" type="move" name="Anchor-2"/>
    </contour>
    <contour>
      <point x="326" y="63" type="line" smooth="yes"/>
      <point x="303" y="63"/>
      <point x="291" y="49"/>
      <point x="291" y="31" type="curve" smooth="yes"/>
      <point x="291" y="14"/>
      <point x="308" y="0"/>
      <point x="332" y="0" type="curve" smooth="yes"/>
      <point x="353" y="0" type="line"/>
      <point x="353" y="-40" type="line"/>
      <point x="326" y="-40" type="line" smooth="yes"/>
      <point x="303" y="-40"/>
      <point x="291" y="-54"/>
      <point x="291" y="-71" type="curve" smooth="yes"/>
      <point x="291" y="-89"/>
      <point x="308" y="-103"/>
      <point x="332" y="-103" type="curve" smooth="yes"/>
      <point x="351" y="-103"/>
      <point x="366" y="-100"/>
      <point x="380" y="-95" type="curve"/>
      <point x="380" y="-135" type="line"/>
      <point x="365" y="-141"/>
      <point x="348" y="-146"/>
      <point x="330" y="-146" type="curve" smooth="yes"/>
      <point x="286" y="-146"/>
      <point x="243" y="-118"/>
      <point x="243" y="-74" type="curve" smooth="yes"/>
      <point x="243" y="-49"/>
      <point x="255" y="-30"/>
      <point x="272" y="-18" type="curve"/>
      <point x="255" y="-6"/>
      <point x="243" y="12"/>
      <point x="243" y="35" type="curve" smooth="yes"/>
      <point x="243" y="73"/>
      <point x="272" y="98"/>
      <point x="306" y="104" type="curve"/>
      <point x="306" y="176" type="line" smooth="yes"/>
      <point x="306" y="218"/>
      <point x="292" y="244"/>
      <point x="258" y="244" type="curve" smooth="yes"/>
      <point x="223" y="244"/>
      <point x="212" y="209"/>
      <point x="212" y="171" type="curve" smooth="yes"/>
      <point x="212" y="133" type="line"/>
      <point x="163" y="133" type="line"/>
      <point x="163" y="171" type="line" smooth="yes"/>
      <point x="163" y="209"/>
      <point x="152" y="244"/>
      <point x="117" y="244" type="curve" smooth="yes"/>
      <point x="82" y="244"/>
      <point x="69" y="210"/>
      <point x="69" y="153" type="curve" smooth="yes"/>
      <point x="69" y="76"/>
      <point x="98" y="42"/>
      <point x="169" y="42" type="curve" smooth="yes"/>
      <point x="179" y="42" type="line"/>
      <point x="179" y="3" type="line"/>
      <point x="172" y="1"/>
      <point x="165" y="0"/>
      <point x="157" y="0" type="curve" smooth="yes"/>
      <point x="68" y="0"/>
      <point x="19" y="49"/>
      <point x="19" y="160" type="curve" smooth="yes"/>
      <point x="19" y="235"/>
      <point x="53" y="286"/>
      <point x="110" y="286" type="curve" smooth="yes"/>
      <point x="152" y="286"/>
      <point x="176" y="261"/>
      <point x="186" y="227" type="curve"/>
      <point x="188" y="227" type="line"/>
      <point x="198" y="261"/>
      <point x="220" y="286"/>
      <point x="262" y="286" type="curve" smooth="yes"/>
      <point x="279" y="286"/>
      <point x="294" y="281"/>
      <point x="306" y="271" type="curve"/>
      <point x="306" y="357" type="line"/>
      <point x="-7" y="357" type="line"/>
      <point x="-7" y="399" type="line"/>
      <point x="409" y="399" type="line"/>
      <point x="409" y="357" type="line"/>
      <point x="354" y="357" type="line"/>
      <point x="354" y="63" type="line"/>
    </contour>
  </outline>
</glyph>
<glyph name="uni0963" format="1">
  <advance width="0"/>
  <unicode hex="0963"/>
  <outline>
    <contour>
      <point x="-72" y="0" type="move" name="_Anchor-8"/>
    </contour>
    <contour>
      <point x="-72" y="0" type="move" name="_Anchor-7"/>
    </contour>
    <contour>
      <point x="-72" y="0" type="move" name="_Anchor-1"/>
    </contour>
    <contour>
      <point x="8" y="-154" type="curve" smooth="yes"/>
      <point x="0" y="-154" type="line"/>
      <point x="-2" y="-160"/>
      <point x="-3" y="-165"/>
      <point x="-3" y="-171" type="curve" smooth="yes"/>
      <point x="-3" y="-184"/>
      <point x="4" y="-190"/>
      <point x="17" y="-190" type="curve" smooth="yes"/>
      <point x="26" y="-190"/>
      <point x="38" y="-187"/>
      <point x="47" y="-183" type="curve"/>
      <point x="47" y="-220" type="line"/>
      <point x="38" y="-226"/>
      <point x="23" y="-231"/>
      <point x="9" y="-231" type="curve" smooth="yes"/>
      <point x="-19" y="-231"/>
      <point x="-47" y="-214"/>
      <point x="-47" y="-179" type="curve" smooth="yes"/>
      <point x="-47" y="-165"/>
      <point x="-42" y="-151"/>
      <point x="-36" y="-137" type="curve"/>
      <point x="-43" y="-130"/>
      <point x="-47" y="-120"/>
      <point x="-47" y="-106" type="curve" smooth="yes"/>
      <point x="-47" y="-87"/>
      <point x="-39" y="-69"/>
      <point x="-32" y="-53" type="curve" smooth="yes"/>
      <point x="-26" y="-39"/>
      <point x="-20" y="-27"/>
      <point x="-20" y="-16" type="curve" smooth="yes"/>
      <point x="-20" y="-8"/>
      <point x="-24" y="-2"/>
      <point x="-34" y="-2" type="curve" smooth="yes"/>
      <point x="-47" y="-2"/>
      <point x="-51" y="-12"/>
      <point x="-51" y="-29" type="curve" smooth="yes"/>
      <point x="-51" y="-45" type="line"/>
      <point x="-94" y="-45" type="line"/>
      <point x="-94" y="-29" type="line" smooth="yes"/>
      <point x="-94" y="-13"/>
      <point x="-98" y="-2"/>
      <point x="-110" y="-2" type="curve" smooth="yes"/>
      <point x="-123" y="-2"/>
      <point x="-127" y="-14"/>
      <point x="-127" y="-36" type="curve" smooth="yes"/>
      <point x="-127" y="-66"/>
      <point x="-119" y="-80"/>
      <point x="-100" y="-80" type="curve" smooth="yes"/>
      <point x="-96" y="-80" type="line"/>
      <point x="-96" y="-117" type="line"/>
      <point x="-101" y="-117" type="line" smooth="yes"/>
      <point x="-149" y="-117"/>
      <point x="-172" y="-90"/>
      <point x="-172" y="-37" type="curve" smooth="yes"/>
      <point x="-172" y="14"/>
      <point x="-151" y="37"/>
      <point x="-119" y="37" type="curve" smooth="yes"/>
      <point x="-94" y="37"/>
      <point x="-80" y="22"/>
      <point x="-72" y="2" type="curve"/>
      <point x="-66" y="20"/>
      <point x="-53" y="37"/>
      <point x="-23" y="37" type="curve" smooth="yes"/>
      <point x="8" y="37"/>
      <point x="24" y="18"/>
      <point x="24" y="-9" type="curve" smooth="yes"/>
      <point x="24" y="-27"/>
      <point x="16" y="-43"/>
      <point x="9" y="-59" type="curve" smooth="yes"/>
      <point x="3" y="-72"/>
      <point x="-3" y="-84"/>
      <point x="-3" y="-96" type="curve" smooth="yes"/>
      <point x="-3" y="-107"/>
      <point x="4" y="-114"/>
      <point x="17" y="-114" type="curve" smooth="yes"/>
      <point x="26" y="-114"/>
      <point x="38" y="-111"/>
      <point x="47" y="-106" type="curve"/>
      <point x="47" y="-144" type="line" smooth="yes"/>
      <point x="46" y="-145"/>
      <point x="44" y="-146"/>
      <point x="43" y="-147" type="curve" smooth="yes"/>
      <point x="34" y="-151"/>
      <point x="22" y="-154"/>
    </contour>
  </outline>
</glyph>
<glyph name="uni096F" format="1">
  <advance width="255"/>
  <unicode hex="096F"/>
  <outline>
    <contour>
      <point x="88" y="222" type="curve"/>
      <point x="107" y="175"/>
      <point x="142" y="135"/>
      <point x="183" y="90" type="curve" smooth="yes"/>
      <point x="198" y="74"/>
      <point x="210" y="59"/>
      <point x="210" y="38" type="curve" smooth="yes"/>
      <point x="210" y="27"/>
      <point x="207" y="14"/>
      <point x="200" y="0" type="curve"/>
      <point x="160" y="0" type="line"/>
      <point x="163" y="15"/>
      <point x="164" y="26"/>
      <point x="164" y="31" type="curve" smooth="yes"/>
      <point x="164" y="42"/>
      <point x="161" y="48"/>
      <point x="152" y="59" type="curve" smooth="yes"/>
      <point x="87" y="131"/>
      <point x="27" y="200"/>
      <point x="27" y="295" type="curve" smooth="yes"/>
      <point x="27" y="367"/>
      <point x="61" y="420"/>
      <point x="130" y="420" type="curve" smooth="yes"/>
      <point x="188" y="420"/>
      <point x="225" y="384"/>
      <point x="225" y="326" type="curve" smooth="yes"/>
      <point x="225" y="262"/>
      <point x="179" y="221"/>
      <point x="107" y="221" type="curve" smooth="yes"/>
      <point x="102" y="221"/>
      <point x="95" y="221"/>
    </contour>
    <contour>
      <point x="129" y="378" type="curve" smooth="yes"/>
      <point x="92" y="378"/>
      <point x="74" y="346"/>
      <point x="74" y="296" type="curve" smooth="yes"/>
      <point x="74" y="284"/>
      <point x="75" y="272"/>
      <point x="77" y="261" type="curve"/>
      <point x="111" y="261" type="line" smooth="yes"/>
      <point x="153" y="261"/>
      <point x="177" y="284"/>
      <point x="177" y="322" type="curve" smooth="yes"/>
      <point x="177" y="357"/>
      <point x="158" y="378"/>
    </contour>
  </outline>
</glyph>
<glyph name="uni0971" format="1">
  <advance width="104"/>
  <unicode hex="0971"/>
  <outline>
    <contour>
      <point x="25" y="354" type="line"/>
      <point x="25" y="417" type="line"/>
      <point x="83" y="417" type="line"/>
      <point x="83" y="354" type="line"/>
    </contour>
  </outline>
</glyph>
<glyph name="uni0972" format="1">
  <advance width="389"/>
  <unicode hex="0972"/>
  <outline>
    <contour>
      <point x="320" y="0" type="move" name="Anchor-7"/>
    </contour>
    <contour>
      <point x="203" y="0" type="move" name="Anchor-6"/>
    </contour>
    <contour>
      <point x="13" y="33" type="move" name="Anchor-5"/>
    </contour>
    <contour>
      <point x="320" y="399" type="move" name="Anchor-3"/>
    </contour>
    <contour>
      <point x="194" y="399" type="move" name="Anchor-2"/>
    </contour>
    <contour>
      <point x="288" y="527" type="line"/>
      <point x="288" y="474"/>
      <point x="253" y="437"/>
      <point x="194" y="437" type="curve" smooth="yes"/>
      <point x="136" y="437"/>
      <point x="101" y="474"/>
      <point x="101" y="527" type="curve"/>
      <point x="147" y="527" type="line"/>
      <point x="147" y="491"/>
      <point x="169" y="474"/>
      <point x="194" y="474" type="curve" smooth="yes"/>
      <point x="222" y="474"/>
      <point x="242" y="491"/>
      <point x="242" y="527" type="curve"/>
    </contour>
    <contour>
      <point x="395" y="399" type="line"/>
      <point x="395" y="357" type="line"/>
      <point x="344" y="357" type="line"/>
      <point x="344" y="0" type="line"/>
      <point x="297" y="0" type="line"/>
      <point x="297" y="159" type="line"/>
      <point x="227" y="159" type="line"/>
      <point x="227" y="131" type="line" smooth="yes"/>
      <point x="227" y="71"/>
      <point x="186" y="34"/>
      <point x="125" y="34" type="curve" smooth="yes"/>
      <point x="62" y="34"/>
      <point x="25" y="74"/>
      <point x="25" y="127" type="curve" smooth="yes"/>
      <point x="25" y="132"/>
      <point x="25" y="136"/>
      <point x="26" y="139" type="curve" smooth="yes"/>
      <point x="26" y="140"/>
      <point x="26" y="141"/>
      <point x="26" y="142" type="curve" smooth="yes"/>
      <point x="74" y="142" type="line"/>
      <point x="74" y="135" type="line" smooth="yes"/>
      <point x="74" y="97"/>
      <point x="92" y="76"/>
      <point x="125" y="76" type="curve" smooth="yes"/>
      <point x="156" y="76"/>
      <point x="177" y="96"/>
      <point x="178" y="131" type="curve" smooth="yes"/>
      <point x="178" y="150" type="line" smooth="yes"/>
      <point x="178" y="188"/>
      <point x="154" y="203"/>
      <point x="123" y="203" type="curve" smooth="yes"/>
      <point x="96" y="203" type="line"/>
      <point x="96" y="244" type="line"/>
      <point x="124" y="244" type="line" smooth="yes"/>
      <point x="152" y="244"/>
      <point x="172" y="263"/>
      <point x="172" y="299" type="curve" smooth="yes"/>
      <point x="172" y="317" type="line" smooth="yes"/>
      <point x="172" y="349"/>
      <point x="152" y="365"/>
      <point x="126" y="365" type="curve" smooth="yes"/>
      <point x="100" y="365"/>
      <point x="80" y="347"/>
      <point x="80" y="308" type="curve" smooth="yes"/>
      <point x="80" y="302" type="line"/>
      <point x="33" y="302" type="line" smooth="yes"/>
      <point x="32" y="305"/>
      <point x="32" y="310"/>
      <point x="32" y="318" type="curve" smooth="yes"/>
      <point x="32" y="371"/>
      <point x="71" y="407"/>
      <point x="129" y="407" type="curve" smooth="yes"/>
      <point x="184" y="407"/>
      <point x="221" y="374"/>
      <point x="221" y="317" type="curve" smooth="yes"/>
      <point x="221" y="299" type="line" smooth="yes"/>
      <point x="221" y="260"/>
      <point x="206" y="240"/>
      <point x="187" y="227" type="curve"/>
      <point x="187" y="225" type="line"/>
      <point x="198" y="221"/>
      <point x="207" y="213"/>
      <point x="214" y="202" type="curve"/>
      <point x="297" y="202" type="line"/>
      <point x="297" y="357" type="line"/>
      <point x="245" y="357" type="line"/>
      <point x="245" y="399" type="line"/>
    </contour>
  </outline>
</glyph>
<glyph name="uni0975" format="1">
  <advance width="533"/>
  <unicode hex="0975"/>
  <outline>
    <contour>
      <point x="463" y="0" type="move" name="Anchor-7"/>
    </contour>
    <contour>
      <point x="203" y="0" type="move" name="Anchor-6"/>
    </contour>
    <contour>
      <point x="13" y="33" type="move" name="Anchor-5"/>
    </contour>
    <contour>
      <point x="461" y="399" type="move" name="Anchor-3"/>
    </contour>
    <contour>
      <point x="461" y="399" type="move" name="Anchor-2"/>
    </contour>
    <contour>
      <point x="509" y="399" type="curve"/>
      <point x="540" y="399" type="line"/>
      <point x="540" y="357" type="line"/>
      <point x="485" y="357" type="line"/>
      <point x="485" y="0" type="line"/>
      <point x="437" y="0" type="line"/>
      <point x="437" y="357" type="line"/>
      <point x="344" y="357" type="line"/>
      <point x="344" y="0" type="line"/>
      <point x="297" y="0" type="line"/>
      <point x="297" y="159" type="line"/>
      <point x="227" y="159" type="line"/>
      <point x="227" y="131" type="line" smooth="yes"/>
      <point x="227" y="71"/>
      <point x="186" y="34"/>
      <point x="125" y="34" type="curve" smooth="yes"/>
      <point x="62" y="34"/>
      <point x="25" y="74"/>
      <point x="25" y="127" type="curve" smooth="yes"/>
      <point x="25" y="132"/>
      <point x="25" y="136"/>
      <point x="26" y="139" type="curve" smooth="yes"/>
      <point x="26" y="140"/>
      <point x="26" y="141"/>
      <point x="26" y="142" type="curve" smooth="yes"/>
      <point x="74" y="142" type="line"/>
      <point x="74" y="135" type="line" smooth="yes"/>
      <point x="74" y="97"/>
      <point x="92" y="76"/>
      <point x="125" y="76" type="curve" smooth="yes"/>
      <point x="156" y="76"/>
      <point x="177" y="96"/>
      <point x="178" y="131" type="curve" smooth="yes"/>
      <point x="178" y="150" type="line" smooth="yes"/>
      <point x="178" y="188"/>
      <point x="154" y="203"/>
      <point x="123" y="203" type="curve" smooth="yes"/>
      <point x="96" y="203" type="line"/>
      <point x="96" y="244" type="line"/>
      <point x="124" y="244" type="line" smooth="yes"/>
      <point x="152" y="244"/>
      <point x="172" y="263"/>
      <point x="172" y="299" type="curve" smooth="yes"/>
      <point x="172" y="317" type="line" smooth="yes"/>
      <point x="172" y="349"/>
      <point x="152" y="365"/>
      <point x="126" y="365" type="curve" smooth="yes"/>
      <point x="100" y="365"/>
      <point x="80" y="347"/>
      <point x="80" y="308" type="curve" smooth="yes"/>
      <point x="80" y="302" type="line"/>
      <point x="33" y="302" type="line" smooth="yes"/>
      <point x="32" y="305"/>
      <point x="32" y="310"/>
      <point x="32" y="318" type="curve" smooth="yes"/>
      <point x="32" y="371"/>
      <point x="71" y="407"/>
      <point x="129" y="407" type="curve" smooth="yes"/>
      <point x="184" y="407"/>
      <point x="221" y="374"/>
      <point x="221" y="317" type="curve" smooth="yes"/>
      <point x="221" y="299" type="line" smooth="yes"/>
      <point x="221" y="260"/>
      <point x="206" y="240"/>
      <point x="187" y="227" type="curve"/>
      <point x="187" y="225" type="line"/>
      <point x="198" y="221"/>
      <point x="207" y="213"/>
      <point x="214" y="202" type="curve"/>
      <point x="297" y="202" type="line"/>
      <point x="297" y="357" type="line"/>
      <point x="245" y="357" type="line"/>
      <point x="245" y="399" type="line"/>
      <point x="407" y="399" type="line"/>
      <point x="407" y="418"/>
      <point x="398" y="426"/>
      <point x="377" y="426" type="curve" smooth="yes"/>
      <point x="259" y="426" type="line" smooth="yes"/>
      <point x="205" y="426"/>
      <point x="182" y="446"/>
      <point x="182" y="493" type="curve" smooth="yes"/>
      <point x="182" y="507" type="line"/>
      <point x="230" y="507" type="line"/>
      <point x="230" y="493" type="line" smooth="yes"/>
      <point x="230" y="472"/>
      <point x="238" y="464"/>
      <point x="259" y="464" type="curve" smooth="yes"/>
      <point x="377" y="464" type="line" smooth="yes"/>
      <point x="432" y="464"/>
      <point x="455" y="444"/>
      <point x="455" y="399" type="curve"/>
      <point x="461" y="399" type="line"/>
      <point x="463" y="411"/>
      <point x="465" y="420"/>
      <point x="466" y="427" type="curve" smooth="yes"/>
      <point x="470" y="449"/>
      <point x="471" y="452"/>
      <point x="471" y="455" type="curve" smooth="yes"/>
      <point x="471" y="474"/>
      <point x="461" y="484"/>
      <point x="442" y="484" type="curve" smooth="yes"/>
      <point x="324" y="484" type="line" smooth="yes"/>
      <point x="270" y="484"/>
      <point x="247" y="505"/>
      <point x="247" y="550" type="curve" smooth="yes"/>
      <point x="247" y="565" type="line"/>
      <point x="294" y="565" type="line"/>
      <point x="294" y="550" type="line" smooth="yes"/>
      <point x="294" y="530"/>
      <point x="303" y="523"/>
      <point x="324" y="523" type="curve" smooth="yes"/>
      <point x="442" y="523" type="line" smooth="yes"/>
      <point x="492" y="523"/>
      <point x="518" y="500"/>
      <point x="518" y="459" type="curve" smooth="yes"/>
      <point x="518" y="452"/>
      <point x="518" y="445"/>
    </contour>
  </outline>
</glyph>
<glyph name="uni097C" format="1">
  <advance width="328"/>
  <unicode hex="097C"/>
  <outline>
    <contour>
      <point x="256" y="0" type="move" name="Anchor-7"/>
    </contour>
    <contour>
      <point x="0" y="0" type="move" name="Anchor-6"/>
    </contour>
    <contour>
      <point x="53" y="0" type="move" name="Anchor-5"/>
    </contour>
    <contour>
      <point x="256" y="399" type="move" name="Anchor-3"/>
    </contour>
    <contour>
      <point x="145" y="399" type="move" name="Anchor-2"/>
    </contour>
    <contour>
      <point x="335" y="399" type="line"/>
      <point x="335" y="357" type="line"/>
      <point x="280" y="357" type="line"/>
      <point x="280" y="0" type="line"/>
      <point x="13" y="0" type="line"/>
      <point x="13" y="37" type="line"/>
      <point x="232" y="37" type="line"/>
      <point x="232" y="231" type="line"/>
      <point x="186" y="231" type="line"/>
      <point x="186" y="165" type="line" smooth="yes"/>
      <point x="186" y="107"/>
      <point x="153" y="76"/>
      <point x="99" y="76" type="curve" smooth="yes"/>
      <point x="43" y="76"/>
      <point x="13" y="107"/>
      <point x="13" y="165" type="curve" smooth="yes"/>
      <point x="13" y="274" type="line"/>
      <point x="60" y="274" type="line"/>
      <point x="60" y="163" type="line" smooth="yes"/>
      <point x="60" y="135"/>
      <point x="74" y="120"/>
      <point x="99" y="120" type="curve" smooth="yes"/>
      <point x="123" y="120"/>
      <point x="138" y="135"/>
      <point x="138" y="163" type="curve" smooth="yes"/>
      <point x="138" y="274" type="line"/>
      <point x="232" y="274" type="line"/>
      <point x="232" y="357" type="line"/>
      <point x="-7" y="357" type="line"/>
      <point x="-7" y="399" type="line"/>
    </contour>
  </outline>
</glyph>
<glyph name="uni097D" format="1">
  <advance width="266"/>
  <unicode hex="097D"/>
  <outline>
    <contour>
      <point x="138" y="407" type="curve" smooth="yes"/>
      <point x="195" y="407"/>
      <point x="239" y="364"/>
      <point x="239" y="303" type="curve" smooth="yes"/>
      <point x="239" y="245"/>
      <point x="214" y="217"/>
      <point x="191" y="192" type="curve" smooth="yes"/>
      <point x="173" y="172"/>
      <point x="156" y="153"/>
      <point x="156" y="122" type="curve" smooth="yes"/>
      <point x="156" y="0" type="line"/>
      <point x="105" y="0" type="line"/>
      <point x="105" y="131" type="line" smooth="yes"/>
      <point x="105" y="171"/>
      <point x="126" y="195"/>
      <point x="147" y="219" type="curve" smooth="yes"/>
      <point x="166" y="241"/>
      <point x="185" y="263"/>
      <point x="185" y="297" type="curve" smooth="yes"/>
      <point x="185" y="313"/>
      <point x="180" y="362"/>
      <point x="133" y="362" type="curve" smooth="yes"/>
      <point x="84" y="362"/>
      <point x="78" y="310"/>
      <point x="78" y="283" type="curve" smooth="yes"/>
      <point x="78" y="268" type="line"/>
      <point x="27" y="268" type="line"/>
      <point x="27" y="268"/>
      <point x="25" y="281"/>
      <point x="25" y="288" type="curve" smooth="yes"/>
      <point x="25" y="353"/>
      <point x="63" y="407"/>
    </contour>
  </outline>
</glyph>
<glyph name="uni097F" format="1">
  <advance width="288"/>
  <unicode hex="097F"/>
  <outline>
    <contour>
      <point x="215" y="0" type="move" name="Anchor-7"/>
    </contour>
    <contour>
      <point x="0" y="0" type="move" name="Anchor-6"/>
    </contour>
    <contour>
      <point x="13" y="0" type="move" name="Anchor-5"/>
    </contour>
    <contour>
      <point x="215" y="399" type="move" name="Anchor-3"/>
    </contour>
    <contour>
      <point x="130" y="399" type="move" name="Anchor-2"/>
    </contour>
    <contour>
      <point x="295" y="399" type="line"/>
      <point x="295" y="357" type="line"/>
      <point x="240" y="357" type="line"/>
      <point x="240" y="0" type="line"/>
      <point x="26" y="0" type="line"/>
      <point x="26" y="37" type="line"/>
      <point x="192" y="37" type="line"/>
      <point x="192" y="109" type="line"/>
      <point x="190" y="109" type="line"/>
      <point x="176" y="96"/>
      <point x="152" y="84"/>
      <point x="119" y="84" type="curve" smooth="yes"/>
      <point x="60" y="84"/>
      <point x="19" y="118"/>
      <point x="19" y="197" type="curve" smooth="yes"/>
      <point x="19" y="275"/>
      <point x="60" y="309"/>
      <point x="119" y="309" type="curve" smooth="yes"/>
      <point x="153" y="309"/>
      <point x="176" y="299"/>
      <point x="190" y="285" type="curve"/>
      <point x="192" y="285" type="line"/>
      <point x="192" y="357" type="line"/>
      <point x="-7" y="357" type="line"/>
      <point x="-7" y="399" type="line"/>
    </contour>
    <contour>
      <point x="178" y="144" type="line"/>
      <point x="187" y="154"/>
      <point x="192" y="169"/>
      <point x="192" y="189" type="curve" smooth="yes"/>
      <point x="192" y="204" type="line" smooth="yes"/>
      <point x="192" y="246"/>
      <point x="172" y="267"/>
      <point x="130" y="267" type="curve" smooth="yes"/>
      <point x="123" y="267"/>
      <point x="117" y="267"/>
      <point x="112" y="265" type="curve"/>
    </contour>
    <contour>
      <point x="130" y="127" type="curve" smooth="yes"/>
      <point x="139" y="127"/>
      <point x="147" y="128"/>
      <point x="154" y="130" type="curve"/>
      <point x="86" y="254" type="line"/>
      <point x="75" y="244"/>
      <point x="69" y="228"/>
      <point x="69" y="204" type="curve" smooth="yes"/>
      <point x="69" y="189" type="line" smooth="yes"/>
      <point x="69" y="144"/>
      <point x="90" y="127"/>
    </contour>
  </outline>
</glyph>
<glyph name="uni1CDA" format="1">
  <advance width="0"/>
  <unicode hex="1CDA"/>
  <outline>
    <contour>
      <point x="-51" y="733" type="line"/>
      <point x="-51" y="587" type="line"/>
      <point x="-94" y="587" type="line"/>
      <point x="-94" y="733" type="line"/>
    </contour>
    <contour>
      <point x="28" y="733" type="line"/>
      <point x="28" y="587" type="line"/>
      <point x="-15" y="587" type="line"/>
      <point x="-15" y="733" type="line"/>
    </contour>
  </outline>
</glyph>
<glyph name="wdieresis" format="1">
  <advance width="345"/>
  <unicode hex="1E85"/>
  <outline>
    <contour>
      <point x="154" y="366" type="line"/>
      <point x="103" y="366" type="line"/>
      <point x="103" y="421" type="line"/>
      <point x="154" y="421" type="line"/>
    </contour>
    <contour>
      <point x="242" y="366" type="line"/>
      <point x="190" y="366" type="line"/>
      <point x="190" y="421" type="line"/>
      <point x="242" y="421" type="line"/>
    </contour>
    <contour>
      <point x="268" y="0" type="line"/>
      <point x="214" y="0" type="line"/>
      <point x="183" y="175" type="line" smooth="yes"/>
      <point x="177" y="206"/>
      <point x="173" y="245"/>
      <point x="173" y="245" type="curve"/>
      <point x="171" y="245" type="line"/>
      <point x="171" y="245"/>
      <point x="167" y="207"/>
      <point x="161" y="175" type="curve" smooth="yes"/>
      <point x="130" y="0" type="line"/>
      <point x="77" y="0" type="line"/>
      <point x="1" y="306" type="line"/>
      <point x="53" y="306" type="line"/>
      <point x="92" y="134" type="line" smooth="yes"/>
      <point x="98" y="109"/>
      <point x="103" y="61"/>
      <point x="103" y="61" type="curve"/>
      <point x="106" y="61" type="line"/>
      <point x="106" y="61"/>
      <point x="110" y="103"/>
      <point x="115" y="134" type="curve" smooth="yes"/>
      <point x="146" y="306" type="line"/>
      <point x="202" y="306" type="line"/>
      <point x="233" y="134" type="line" smooth="yes"/>
      <point x="239" y="103"/>
      <point x="243" y="61"/>
      <point x="243" y="61" type="curve"/>
      <point x="244" y="61" type="line"/>
      <point x="244" y="61"/>
      <point x="249" y="99"/>
      <point x="257" y="134" type="curve" smooth="yes"/>
      <point x="295" y="306" type="line"/>
      <point x="344" y="306" type="line"/>
    </contour>
  </outline>
</glyph>
<glyph name="Ygrave" format="1">
  <advance width="319"/>
  <unicode hex="1EF2"/>
  <outline>
    <contour>
      <point x="194" y="438" type="line"/>
      <point x="154" y="438" type="line"/>
      <point x="91" y="513" type="line"/>
      <point x="92" y="515" type="line"/>
      <point x="144" y="515" type="line"/>
    </contour>
    <contour>
      <point x="185" y="165" type="line"/>
      <point x="185" y="0" type="line"/>
      <point x="134" y="0" type="line"/>
      <point x="134" y="165" type="line"/>
      <point x="5" y="399" type="line"/>
      <point x="61" y="399" type="line"/>
      <point x="163" y="214" type="line"/>
      <point x="165" y="214" type="line"/>
      <point x="264" y="399" type="line"/>
      <point x="314" y="399" type="line"/>
    </contour>
  </outline>
</glyph>
<glyph name="uni200C" format="1">
  <advance width="0"/>
  <unicode hex="200C"/>
  <outline>
    <contour>
      <point x="43" y="545" type="line"/>
      <point x="43" y="-266" type="line"/>
      <point x="0" y="-266" type="line"/>
      <point x="0" y="545" type="line"/>
    </contour>
  </outline>
</glyph>
<glyph name="uni200D" format="1">
  <advance width="0"/>
  <unicode hex="200D"/>
  <outline>
    <contour>
      <point x="151" y="507" type="line"/>
      <point x="43" y="507" type="line"/>
      <point x="43" y="-266" type="line"/>
      <point x="0" y="-266" type="line"/>
      <point x="0" y="545" type="line"/>
      <point x="151" y="545" type="line"/>
    </contour>
  </outline>
</glyph>
<glyph name="underscoredbl" format="1">
  <advance width="291"/>
  <unicode hex="2017"/>
  <outline>
    <contour>
      <point x="13" y="-72" type="line"/>
      <point x="13" y="-42" type="line"/>
      <point x="279" y="-42" type="line"/>
      <point x="279" y="-72" type="line"/>
    </contour>
    <contour>
      <point x="13" y="-127" type="line"/>
      <point x="13" y="-96" type="line"/>
      <point x="279" y="-96" type="line"/>
      <point x="279" y="-127" type="line"/>
    </contour>
  </outline>
</glyph>
<glyph name="quotereversed" format="1">
  <advance width="106"/>
  <unicode hex="201B"/>
  <outline>
    <contour>
      <point x="59" y="337" type="line"/>
      <point x="82" y="264" type="line"/>
      <point x="52" y="264" type="line"/>
      <point x="24" y="342" type="line"/>
      <point x="24" y="399" type="line"/>
      <point x="82" y="399" type="line"/>
      <point x="82" y="337" type="line"/>
    </contour>
  </outline>
</glyph>
<glyph name="quotedblbase" format="1">
  <advance width="159"/>
  <unicode hex="201E"/>
  <outline>
    <contour>
      <point x="44" y="-72" type="line"/>
      <point x="14" y="-72" type="line"/>
      <point x="38" y="0" type="line"/>
      <point x="14" y="0" type="line"/>
      <point x="14" y="63" type="line"/>
      <point x="72" y="63" type="line"/>
      <point x="72" y="5" type="line"/>
    </contour>
    <contour>
      <point x="118" y="-72" type="line"/>
      <point x="88" y="-72" type="line"/>
      <point x="111" y="0" type="line"/>
      <point x="88" y="0" type="line"/>
      <point x="88" y="63" type="line"/>
      <point x="146" y="63" type="line"/>
      <point x="146" y="5" type="line"/>
    </contour>
  </outline>
</glyph>
<glyph name="ellipsis" format="1">
  <advance width="478"/>
  <unicode hex="2026"/>
  <outline>
    <contour>
      <point x="51" y="0" type="line"/>
      <point x="51" y="63" type="line"/>
      <point x="109" y="63" type="line"/>
      <point x="109" y="0" type="line"/>
    </contour>
    <contour>
      <point x="210" y="0" type="line"/>
      <point x="210" y="63" type="line"/>
      <point x="268" y="63" type="line"/>
      <point x="268" y="0" type="line"/>
    </contour>
    <contour>
      <point x="368" y="0" type="line"/>
      <point x="368" y="63" type="line"/>
      <point x="426" y="63" type="line"/>
      <point x="426" y="0" type="line"/>
    </contour>
  </outline>
</glyph>
<glyph name="perthousand" format="1">
  <advance width="478"/>
  <unicode hex="2030"/>
  <outline>
    <contour>
      <point x="89" y="407" type="curve" smooth="yes"/>
      <point x="132" y="407"/>
      <point x="158" y="380"/>
      <point x="158" y="301" type="curve" smooth="yes"/>
      <point x="158" y="222"/>
      <point x="132" y="196"/>
      <point x="89" y="196" type="curve" smooth="yes"/>
      <point x="46" y="196"/>
      <point x="20" y="223"/>
      <point x="20" y="301" type="curve" smooth="yes"/>
      <point x="20" y="380"/>
      <point x="46" y="407"/>
    </contour>
    <contour>
      <point x="43" y="0" type="line"/>
      <point x="264" y="399" type="line"/>
      <point x="300" y="399" type="line"/>
      <point x="79" y="0" type="line"/>
    </contour>
    <contour>
      <point x="89" y="372" type="curve" smooth="yes"/>
      <point x="66" y="372"/>
      <point x="61" y="345"/>
      <point x="61" y="306" type="curve" smooth="yes"/>
      <point x="61" y="297" type="line" smooth="yes"/>
      <point x="61" y="258"/>
      <point x="66" y="231"/>
      <point x="89" y="231" type="curve" smooth="yes"/>
      <point x="113" y="231"/>
      <point x="118" y="258"/>
      <point x="118" y="297" type="curve" smooth="yes"/>
      <point x="118" y="306" type="line" smooth="yes"/>
      <point x="118" y="345"/>
      <point x="113" y="372"/>
    </contour>
    <contour>
      <point x="254" y="204" type="curve" smooth="yes"/>
      <point x="298" y="204"/>
      <point x="324" y="177"/>
      <point x="324" y="98" type="curve" smooth="yes"/>
      <point x="324" y="18"/>
      <point x="298" y="-7"/>
      <point x="254" y="-7" type="curve" smooth="yes"/>
      <point x="212" y="-7"/>
      <point x="186" y="19"/>
      <point x="186" y="98" type="curve" smooth="yes"/>
      <point x="186" y="177"/>
      <point x="212" y="204"/>
    </contour>
    <contour>
      <point x="409" y="204" type="curve" smooth="yes"/>
      <point x="452" y="204"/>
      <point x="478" y="177"/>
      <point x="478" y="98" type="curve" smooth="yes"/>
      <point x="478" y="18"/>
      <point x="452" y="-7"/>
      <point x="409" y="-7" type="curve" smooth="yes"/>
      <point x="366" y="-7"/>
      <point x="340" y="19"/>
      <point x="340" y="98" type="curve" smooth="yes"/>
      <point x="340" y="177"/>
      <point x="366" y="204"/>
    </contour>
    <contour>
      <point x="254" y="169" type="curve" smooth="yes"/>
      <point x="231" y="169"/>
      <point x="226" y="142"/>
      <point x="226" y="103" type="curve" smooth="yes"/>
      <point x="226" y="94" type="line" smooth="yes"/>
      <point x="226" y="55"/>
      <point x="231" y="28"/>
      <point x="254" y="28" type="curve" smooth="yes"/>
      <point x="278" y="28"/>
      <point x="283" y="55"/>
      <point x="283" y="94" type="curve" smooth="yes"/>
      <point x="283" y="103" type="line" smooth="yes"/>
      <point x="283" y="142"/>
      <point x="278" y="169"/>
    </contour>
    <contour>
      <point x="409" y="169" type="curve" smooth="yes"/>
      <point x="386" y="169"/>
      <point x="380" y="142"/>
      <point x="380" y="103" type="curve" smooth="yes"/>
      <point x="380" y="94" type="line" smooth="yes"/>
      <point x="380" y="55"/>
      <point x="386" y="28"/>
      <point x="409" y="28" type="curve" smooth="yes"/>
      <point x="432" y="28"/>
      <point x="438" y="55"/>
      <point x="438" y="94" type="curve" smooth="yes"/>
      <point x="438" y="103" type="line" smooth="yes"/>
      <point x="438" y="142"/>
      <point x="432" y="169"/>
    </contour>
  </outline>
</glyph>
<glyph name="minute" format="1">
  <advance width="92"/>
  <unicode hex="2032"/>
  <outline>
    <contour>
      <point x="53" y="306" type="line"/>
      <point x="13" y="306" type="line"/>
      <point x="28" y="399" type="line"/>
      <point x="80" y="399" type="line"/>
      <point x="81" y="398" type="line"/>
    </contour>
  </outline>
</glyph>
<glyph name="guilsinglright" format="1">
  <advance width="159"/>
  <unicode hex="203A"/>
  <outline>
    <contour>
      <point x="60" y="73" type="line"/>
      <point x="18" y="73" type="line"/>
      <point x="84" y="190" type="line"/>
      <point x="18" y="306" type="line"/>
      <point x="60" y="306" type="line"/>
      <point x="142" y="190" type="line"/>
    </contour>
  </outline>
</glyph>
<glyph name="exclamdbl" format="1">
  <advance width="266"/>
  <unicode hex="203C"/>
  <outline>
    <contour>
      <point x="101" y="399" type="line"/>
      <point x="86" y="100" type="line"/>
      <point x="49" y="100" type="line"/>
      <point x="45" y="195"/>
      <point x="40" y="290"/>
      <point x="36" y="385" type="curve" smooth="yes"/>
      <point x="35" y="390"/>
      <point x="35" y="394"/>
      <point x="35" y="399" type="curve"/>
    </contour>
    <contour>
      <point x="226" y="399" type="line"/>
      <point x="211" y="100" type="line"/>
      <point x="175" y="100" type="line"/>
      <point x="160" y="399" type="line"/>
    </contour>
    <contour>
      <point x="98" y="0" type="line"/>
      <point x="39" y="0" type="line"/>
      <point x="39" y="63" type="line"/>
      <point x="98" y="63" type="line"/>
    </contour>
    <contour>
      <point x="223" y="0" type="line"/>
      <point x="164" y="0" type="line"/>
      <point x="164" y="63" type="line"/>
      <point x="223" y="63" type="line"/>
    </contour>
  </outline>
</glyph>
<glyph name="franc" format="1">
  <advance width="294"/>
  <unicode hex="20A3"/>
  <outline>
    <contour>
      <point x="270" y="217" type="line" smooth="yes"/>
      <point x="240" y="217"/>
      <point x="214" y="198"/>
      <point x="214" y="144" type="curve" smooth="yes"/>
      <point x="214" y="0" type="line"/>
      <point x="165" y="0" type="line"/>
      <point x="165" y="177" type="line"/>
      <point x="86" y="177" type="line"/>
      <point x="86" y="0" type="line"/>
      <point x="35" y="0" type="line"/>
      <point x="35" y="399" type="line"/>
      <point x="232" y="399" type="line"/>
      <point x="232" y="353" type="line"/>
      <point x="86" y="353" type="line"/>
      <point x="86" y="223" type="line"/>
      <point x="165" y="223" type="line"/>
      <point x="165" y="264" type="line"/>
      <point x="202" y="264" type="line"/>
      <point x="208" y="223" type="line"/>
      <point x="212" y="223" type="line"/>
      <point x="219" y="247"/>
      <point x="234" y="271"/>
      <point x="264" y="271" type="curve" smooth="yes"/>
      <point x="276" y="271"/>
      <point x="286" y="266"/>
      <point x="286" y="266" type="curve"/>
      <point x="286" y="217" type="line"/>
    </contour>
  </outline>
</glyph>
<glyph name="peseta" format="1">
  <advance width="555"/>
  <unicode hex="20A7"/>
  <outline>
    <contour>
      <point x="136" y="399" type="line" smooth="yes"/>
      <point x="205" y="399"/>
      <point x="245" y="362"/>
      <point x="254" y="306" type="curve"/>
      <point x="270" y="306" type="line"/>
      <point x="280" y="391" type="line"/>
      <point x="318" y="391" type="line"/>
      <point x="318" y="306" type="line"/>
      <point x="404" y="306" type="line"/>
      <point x="416" y="311"/>
      <point x="430" y="314"/>
      <point x="446" y="314" type="curve" smooth="yes"/>
      <point x="503" y="314"/>
      <point x="534" y="275"/>
      <point x="534" y="229" type="curve" smooth="yes"/>
      <point x="534" y="218" type="line"/>
      <point x="484" y="218" type="line"/>
      <point x="484" y="223" type="line" smooth="yes"/>
      <point x="484" y="248"/>
      <point x="474" y="271"/>
      <point x="442" y="271" type="curve" smooth="yes"/>
      <point x="408" y="271"/>
      <point x="401" y="246"/>
      <point x="401" y="229" type="curve" smooth="yes"/>
      <point x="401" y="200"/>
      <point x="427" y="192"/>
      <point x="456" y="181" type="curve" smooth="yes"/>
      <point x="495" y="168"/>
      <point x="540" y="153"/>
      <point x="540" y="88" type="curve" smooth="yes"/>
      <point x="540" y="22"/>
      <point x="499" y="-7"/>
      <point x="442" y="-7" type="curve" smooth="yes"/>
      <point x="400" y="-7"/>
      <point x="374" y="8"/>
      <point x="359" y="30" type="curve"/>
      <point x="359" y="3" type="line"/>
      <point x="351" y="-3"/>
      <point x="336" y="-6"/>
      <point x="324" y="-6" type="curve" smooth="yes"/>
      <point x="283" y="-6"/>
      <point x="270" y="27"/>
      <point x="270" y="59" type="curve" smooth="yes"/>
      <point x="270" y="264" type="line"/>
      <point x="254" y="264" type="line"/>
      <point x="247" y="204"/>
      <point x="204" y="163"/>
      <point x="136" y="163" type="curve" smooth="yes"/>
      <point x="92" y="163" type="line"/>
      <point x="92" y="0" type="line"/>
      <point x="41" y="0" type="line"/>
      <point x="41" y="399" type="line"/>
    </contour>
    <contour>
      <point x="92" y="353" type="line"/>
      <point x="92" y="210" type="line"/>
      <point x="134" y="210" type="line" smooth="yes"/>
      <point x="175" y="210"/>
      <point x="202" y="238"/>
      <point x="202" y="282" type="curve" smooth="yes"/>
      <point x="202" y="325"/>
      <point x="179" y="353"/>
      <point x="134" y="353" type="curve" smooth="yes"/>
    </contour>
    <contour>
      <point x="318" y="264" type="line"/>
      <point x="318" y="63" type="line" smooth="yes"/>
      <point x="318" y="45"/>
      <point x="326" y="36"/>
      <point x="342" y="36" type="curve" smooth="yes"/>
      <point x="355" y="36" type="line"/>
      <point x="347" y="49"/>
      <point x="344" y="66"/>
      <point x="344" y="83" type="curve" smooth="yes"/>
      <point x="344" y="96" type="line"/>
      <point x="394" y="96" type="line"/>
      <point x="394" y="90" type="line" smooth="yes"/>
      <point x="394" y="51"/>
      <point x="416" y="36"/>
      <point x="444" y="36" type="curve" smooth="yes"/>
      <point x="470" y="36"/>
      <point x="490" y="51"/>
      <point x="490" y="80" type="curve" smooth="yes"/>
      <point x="490" y="116"/>
      <point x="461" y="126"/>
      <point x="429" y="138" type="curve" smooth="yes"/>
      <point x="392" y="151"/>
      <point x="351" y="166"/>
      <point x="351" y="226" type="curve" smooth="yes"/>
      <point x="351" y="240"/>
      <point x="353" y="253"/>
      <point x="358" y="264" type="curve"/>
    </contour>
  </outline>
</glyph>
